<?xml version="1.0" encoding="utf-8"?>
<!-- Generator: Adobe Illustrator 25.4.1, SVG Export Plug-In . SVG Version: 6.00 Build 0)  -->
<svg version="1.1" id="Layer_1" xmlns="http://www.w3.org/2000/svg" xmlns:xlink="http://www.w3.org/1999/xlink" x="0px" y="0px"
	 viewBox="0 0 198.4 127.6" style="enable-background:new 0 0 198.4 127.6;" xml:space="preserve">
<style type="text/css">
	.st0{fill:#107DC1;}
	.st1{fill:#FFFFFF;}
</style>
<path class="st0" d="M185.7,118.6h-171c-6.6,0-12-5.4-12-12V13.9c0-6.6,5.4-12,12-12h171c6.6,0,12,5.4,12,12v92.7
	C197.7,113.2,192.3,118.6,185.7,118.6z"/>
<g>
	<path class="st1" d="M27.2,35c0,2.4-0.6,4.2-1.8,5.4s-2.9,1.9-5,1.9s-3.9-0.6-5-1.9s-1.8-3.1-1.8-5.5s0.6-4.2,1.8-5.4
		s2.9-1.9,5.1-1.9s3.9,0.6,5,1.9S27.2,32.6,27.2,35z M16.8,35c0,1.6,0.3,2.8,0.9,3.6s1.5,1.2,2.7,1.2c2.4,0,3.6-1.6,3.6-4.8
		c0-3.2-1.2-4.8-3.6-4.8c-1.2,0-2.1,0.4-2.7,1.2S16.8,33.4,16.8,35z"/>
	<path class="st1" d="M35.9,42.4c-1.3,0-2.3-0.5-3-1.4h-0.2c0.1,0.9,0.2,1.4,0.2,1.6V47h-3V31.2h2.4l0.4,1.4h0.1
		c0.7-1.1,1.7-1.6,3.1-1.6c1.3,0,2.3,0.5,3,1.5s1.1,2.4,1.1,4.2c0,1.2-0.2,2.2-0.5,3s-0.8,1.5-1.5,2S36.8,42.4,35.9,42.4z
		 M35.1,33.4c-0.7,0-1.3,0.2-1.6,0.7s-0.5,1.2-0.5,2.2v0.3c0,1.2,0.2,2,0.5,2.5s0.9,0.8,1.7,0.8c1.3,0,2-1.1,2-3.3
		c0-1.1-0.2-1.9-0.5-2.4S35.8,33.4,35.1,33.4z"/>
	<path class="st1" d="M47.5,42.4c-1.8,0-3.1-0.5-4.1-1.5s-1.5-2.3-1.5-4.1c0-1.8,0.5-3.2,1.4-4.2s2.2-1.5,3.8-1.5
		c1.5,0,2.7,0.4,3.6,1.3S52,34.5,52,36v1.4h-7c0,0.8,0.3,1.5,0.8,2s1.1,0.7,2,0.7c0.7,0,1.3-0.1,1.9-0.2s1.2-0.4,1.8-0.7v2.3
		c-0.5,0.3-1.1,0.5-1.7,0.6S48.4,42.4,47.5,42.4z M47.1,33.2c-0.6,0-1.1,0.2-1.5,0.6s-0.6,1-0.6,1.7h4.2c0-0.7-0.2-1.3-0.6-1.7
		S47.8,33.2,47.1,33.2z"/>
	<path class="st1" d="M64.5,42.2h-3v-6.4c0-0.8-0.1-1.4-0.4-1.8s-0.7-0.6-1.3-0.6c-0.8,0-1.4,0.3-1.8,0.8s-0.6,1.5-0.6,2.8v5.1h-3
		V31.2h2.3l0.4,1.4h0.2c0.3-0.5,0.8-0.9,1.4-1.2s1.2-0.4,2-0.4c1.3,0,2.2,0.3,2.9,1s1,1.7,1,3V42.2z"/>
	<path class="st1" d="M67.4,28.4c0-1,0.5-1.5,1.6-1.5s1.6,0.5,1.6,1.5c0,0.5-0.1,0.8-0.4,1.1s-0.7,0.4-1.2,0.4
		C68,29.9,67.4,29.4,67.4,28.4z M70.5,42.2h-3V31.2h3V42.2z"/>
	<path class="st1" d="M83.7,42.2h-3v-6.4c0-0.8-0.1-1.4-0.4-1.8s-0.7-0.6-1.3-0.6c-0.8,0-1.4,0.3-1.8,0.8s-0.6,1.5-0.6,2.8v5.1h-3
		V31.2h2.3l0.4,1.4h0.2c0.3-0.5,0.8-0.9,1.4-1.2s1.2-0.4,2-0.4c1.3,0,2.2,0.3,2.9,1s1,1.7,1,3V42.2z"/>
	<path class="st1" d="M96.3,31.2v1.5l-1.7,0.4c0.3,0.5,0.5,1,0.5,1.6c0,1.2-0.4,2.1-1.2,2.7s-2,1-3.4,1l-0.5,0l-0.4,0
		C89.2,38.7,89,39,89,39.3c0,0.4,0.5,0.6,1.6,0.6h1.9c1.2,0,2.1,0.3,2.7,0.8c0.6,0.5,0.9,1.3,0.9,2.3c0,1.3-0.5,2.3-1.6,3
		S92,47,90,47c-1.5,0-2.7-0.3-3.5-0.8s-1.2-1.3-1.2-2.2c0-0.7,0.2-1.2,0.6-1.7s1-0.8,1.8-0.9c-0.3-0.1-0.6-0.3-0.8-0.6
		s-0.3-0.6-0.3-0.9c0-0.4,0.1-0.8,0.4-1s0.6-0.5,1-0.8c-0.6-0.2-1-0.6-1.4-1.2s-0.5-1.2-0.5-1.9c0-1.2,0.4-2.1,1.2-2.8s1.9-1,3.3-1
		c0.3,0,0.7,0,1.1,0.1s0.7,0.1,0.8,0.1H96.3z M87.9,43.7c0,0.4,0.2,0.7,0.6,1s0.9,0.4,1.7,0.4c1.1,0,1.9-0.1,2.5-0.4
		s0.9-0.7,0.9-1.2c0-0.4-0.2-0.7-0.5-0.8s-0.9-0.2-1.7-0.2h-1.5c-0.5,0-1,0.1-1.4,0.4S87.9,43.3,87.9,43.7z M89,34.8
		c0,0.6,0.1,1.1,0.4,1.4s0.7,0.5,1.2,0.5c0.6,0,1-0.2,1.2-0.5s0.4-0.8,0.4-1.4c0-1.3-0.5-2-1.6-2C89.5,32.8,89,33.5,89,34.8z"/>
	<path class="st1" d="M110.2,42.2l-0.6-1.5h-0.1c-0.5,0.6-1,1.1-1.5,1.3s-1.2,0.4-2.1,0.4c-1,0-1.9-0.3-2.5-0.9s-0.9-1.5-0.9-2.6
		c0-1.2,0.4-2,1.2-2.6s2-0.9,3.7-0.9l1.9-0.1v-0.5c0-1.1-0.6-1.7-1.7-1.7c-0.9,0-1.9,0.3-3.1,0.8l-1-2c1.3-0.7,2.6-1,4.2-1
		c1.5,0,2.6,0.3,3.4,1s1.2,1.6,1.2,2.9v7.3H110.2z M109.4,37.1l-1.2,0c-0.9,0-1.5,0.2-1.9,0.5s-0.6,0.7-0.6,1.3
		c0,0.8,0.5,1.3,1.4,1.3c0.7,0,1.2-0.2,1.7-0.6s0.6-0.9,0.6-1.6V37.1z"/>
	<path class="st1" d="M125.5,42.2h-3v-6.4c0-0.8-0.1-1.4-0.4-1.8s-0.7-0.6-1.3-0.6c-0.8,0-1.4,0.3-1.8,0.8s-0.6,1.5-0.6,2.8v5.1h-3
		V31.2h2.3l0.4,1.4h0.2c0.3-0.5,0.8-0.9,1.4-1.2s1.2-0.4,2-0.4c1.3,0,2.2,0.3,2.9,1s1,1.7,1,3V42.2z"/>
	<path class="st1" d="M138.7,42.4c-1.8,0-3.1-0.5-4.1-1.5s-1.5-2.3-1.5-4.1c0-1.8,0.5-3.2,1.4-4.2s2.2-1.5,3.8-1.5
		c1.5,0,2.7,0.4,3.6,1.3s1.3,2.1,1.3,3.6v1.4h-7c0,0.8,0.3,1.5,0.8,2s1.1,0.7,2,0.7c0.7,0,1.3-0.1,1.9-0.2s1.2-0.4,1.8-0.7v2.3
		c-0.5,0.3-1.1,0.5-1.7,0.6S139.5,42.4,138.7,42.4z M138.2,33.2c-0.6,0-1.1,0.2-1.5,0.6s-0.6,1-0.6,1.7h4.2c0-0.7-0.2-1.3-0.6-1.7
		S138.9,33.2,138.2,33.2z"/>
	<path class="st1" d="M155.3,42.2h-3v-6.4c0-0.8-0.1-1.4-0.4-1.8s-0.7-0.6-1.2-0.6c-0.8,0-1.3,0.3-1.7,0.8s-0.5,1.5-0.5,2.8v5.1h-3
		V31.2h2.3l0.4,1.4h0.2c0.3-0.5,0.7-0.9,1.3-1.2s1.2-0.4,1.9-0.4c1.6,0,2.7,0.5,3.3,1.6h0.3c0.3-0.5,0.7-0.9,1.3-1.2
		s1.2-0.4,1.9-0.4c1.2,0,2.2,0.3,2.8,1s1,1.7,1,3.1v7.1h-3v-6.4c0-0.8-0.1-1.4-0.4-1.8s-0.7-0.6-1.2-0.6c-0.7,0-1.3,0.3-1.6,0.8
		s-0.5,1.3-0.5,2.5V42.2z"/>
	<path class="st1" d="M172.1,42.2l-0.6-1.5h-0.1c-0.5,0.6-1,1.1-1.5,1.3s-1.2,0.4-2.1,0.4c-1,0-1.9-0.3-2.5-0.9s-0.9-1.5-0.9-2.6
		c0-1.2,0.4-2,1.2-2.6s2-0.9,3.7-0.9l1.9-0.1v-0.5c0-1.1-0.6-1.7-1.7-1.7c-0.9,0-1.9,0.3-3.1,0.8l-1-2c1.3-0.7,2.6-1,4.2-1
		c1.5,0,2.6,0.3,3.4,1s1.2,1.6,1.2,2.9v7.3H172.1z M171.2,37.1l-1.2,0c-0.9,0-1.5,0.2-1.9,0.5s-0.6,0.7-0.6,1.3
		c0,0.8,0.5,1.3,1.4,1.3c0.7,0,1.2-0.2,1.7-0.6s0.6-0.9,0.6-1.6V37.1z"/>
	<path class="st1" d="M177.1,28.4c0-1,0.5-1.5,1.6-1.5s1.6,0.5,1.6,1.5c0,0.5-0.1,0.8-0.4,1.1s-0.7,0.4-1.2,0.4
		C177.7,29.9,177.1,29.4,177.1,28.4z M180.2,42.2h-3V31.2h3V42.2z"/>
	<path class="st1" d="M186.3,42.2h-3V27h3V42.2z"/>
	<path class="st1" d="M35.2,57.5h-2.6v8.7h-3v-8.7H28V56l1.6-0.8v-0.8c0-1.2,0.3-2.2,0.9-2.7s1.6-0.9,2.9-0.9c1,0,1.9,0.2,2.7,0.5
		l-0.8,2.2c-0.6-0.2-1.2-0.3-1.7-0.3c-0.4,0-0.7,0.1-0.9,0.4s-0.3,0.6-0.3,1v0.7h2.6V57.5z"/>
	<path class="st1" d="M43,55c0.4,0,0.7,0,1,0.1l-0.2,2.8c-0.2-0.1-0.5-0.1-0.9-0.1c-1,0-1.7,0.2-2.2,0.7s-0.8,1.2-0.8,2.1v5.6h-3
		V55.2h2.3l0.4,1.8h0.1c0.3-0.6,0.8-1.1,1.4-1.5S42.3,55,43,55z"/>
	<path class="st1" d="M55.9,60.7c0,1.8-0.5,3.2-1.4,4.2s-2.2,1.5-3.9,1.5c-1,0-2-0.2-2.8-0.7s-1.4-1.1-1.8-2s-0.6-1.9-0.6-3
		c0-1.8,0.5-3.2,1.4-4.2S49,55,50.7,55c1,0,2,0.2,2.8,0.7s1.4,1.1,1.8,2S55.9,59.5,55.9,60.7z M48.4,60.7c0,1.1,0.2,1.9,0.5,2.5
		c0.4,0.6,0.9,0.8,1.7,0.8c0.8,0,1.4-0.3,1.7-0.8c0.3-0.6,0.5-1.4,0.5-2.5c0-1.1-0.2-1.9-0.5-2.4s-0.9-0.8-1.7-0.8
		c-0.8,0-1.4,0.3-1.7,0.8S48.4,59.6,48.4,60.7z"/>
	<path class="st1" d="M68.2,66.2h-3v-6.4c0-0.8-0.1-1.4-0.4-1.8s-0.7-0.6-1.2-0.6c-0.8,0-1.3,0.3-1.7,0.8s-0.5,1.5-0.5,2.8v5.1h-3
		V55.2h2.3l0.4,1.4h0.2c0.3-0.5,0.7-0.9,1.3-1.2s1.2-0.4,1.9-0.4c1.6,0,2.7,0.5,3.3,1.6H68c0.3-0.5,0.7-0.9,1.3-1.2s1.2-0.4,1.9-0.4
		c1.2,0,2.2,0.3,2.8,1s1,1.7,1,3.1v7.1h-3v-6.4c0-0.8-0.1-1.4-0.4-1.8s-0.7-0.6-1.2-0.6c-0.7,0-1.3,0.3-1.6,0.8s-0.5,1.3-0.5,2.5
		V66.2z"/>
	<path class="st1" d="M90.8,62.9c0,1.1-0.4,2-1.2,2.6s-1.9,0.9-3.5,0.9c-0.8,0-1.5-0.1-2-0.2s-1.1-0.3-1.6-0.5v-2.5
		c0.6,0.3,1.2,0.5,1.9,0.7s1.3,0.3,1.8,0.3c1.1,0,1.6-0.3,1.6-0.9c0-0.2-0.1-0.4-0.2-0.6s-0.4-0.3-0.7-0.5s-0.8-0.4-1.4-0.6
		c-0.8-0.4-1.5-0.7-1.9-1s-0.7-0.6-0.9-1s-0.3-0.9-0.3-1.4c0-1,0.4-1.7,1.1-2.3s1.8-0.8,3.2-0.8c1.3,0,2.6,0.3,3.8,0.9L89.8,58
		c-0.5-0.2-1.1-0.4-1.5-0.6s-1-0.2-1.5-0.2c-0.9,0-1.3,0.2-1.3,0.7c0,0.3,0.1,0.5,0.4,0.7s0.9,0.5,1.9,0.9c0.9,0.3,1.5,0.7,1.9,1
		s0.7,0.6,0.9,1S90.8,62.4,90.8,62.9z"/>
	<path class="st1" d="M103.1,60.7c0,1.8-0.5,3.2-1.4,4.2s-2.2,1.5-3.9,1.5c-1,0-2-0.2-2.8-0.7s-1.4-1.1-1.8-2s-0.6-1.9-0.6-3
		c0-1.8,0.5-3.2,1.4-4.2s2.2-1.5,3.9-1.5c1,0,2,0.2,2.8,0.7c0.8,0.5,1.4,1.1,1.8,2S103.1,59.5,103.1,60.7z M95.5,60.7
		c0,1.1,0.2,1.9,0.5,2.5c0.4,0.6,0.9,0.8,1.7,0.8c0.8,0,1.4-0.3,1.7-0.8c0.3-0.6,0.5-1.4,0.5-2.5c0-1.1-0.2-1.9-0.5-2.4
		s-0.9-0.8-1.7-0.8c-0.8,0-1.4,0.3-1.7,0.8S95.5,59.6,95.5,60.7z"/>
	<path class="st1" d="M115.3,66.2h-3v-6.4c0-0.8-0.1-1.4-0.4-1.8s-0.7-0.6-1.2-0.6c-0.8,0-1.3,0.3-1.7,0.8s-0.5,1.5-0.5,2.8v5.1h-3
		V55.2h2.3l0.4,1.4h0.2c0.3-0.5,0.7-0.9,1.3-1.2s1.2-0.4,1.9-0.4c1.6,0,2.7,0.5,3.3,1.6h0.3c0.3-0.5,0.7-0.9,1.3-1.2
		s1.2-0.4,1.9-0.4c1.2,0,2.2,0.3,2.8,1s1,1.7,1,3.1v7.1h-3v-6.4c0-0.8-0.1-1.4-0.4-1.8s-0.7-0.6-1.2-0.6c-0.7,0-1.3,0.3-1.6,0.8
		s-0.5,1.3-0.5,2.5V66.2z"/>
	<path class="st1" d="M130.1,66.4c-1.8,0-3.1-0.5-4.1-1.5s-1.5-2.3-1.5-4.1c0-1.8,0.5-3.2,1.4-4.2s2.2-1.5,3.8-1.5
		c1.5,0,2.7,0.4,3.6,1.3s1.3,2.1,1.3,3.6v1.4h-7c0,0.8,0.3,1.5,0.8,2c0.5,0.5,1.1,0.7,2,0.7c0.7,0,1.3-0.1,1.9-0.2s1.2-0.4,1.8-0.7
		v2.3c-0.5,0.3-1.1,0.5-1.7,0.6S131,66.4,130.1,66.4z M129.7,57.2c-0.6,0-1.1,0.2-1.5,0.6s-0.6,1-0.6,1.7h4.2c0-0.7-0.2-1.3-0.6-1.7
		S130.3,57.2,129.7,57.2z"/>
	<path class="st1" d="M146.9,60.7c0,1.8-0.5,3.2-1.4,4.2s-2.2,1.5-3.9,1.5c-1,0-2-0.2-2.8-0.7s-1.4-1.1-1.8-2s-0.6-1.9-0.6-3
		c0-1.8,0.5-3.2,1.4-4.2s2.2-1.5,3.9-1.5c1,0,2,0.2,2.8,0.7s1.4,1.1,1.8,2S146.9,59.5,146.9,60.7z M139.4,60.7
		c0,1.1,0.2,1.9,0.5,2.5c0.4,0.6,0.9,0.8,1.7,0.8c0.8,0,1.4-0.3,1.7-0.8c0.3-0.6,0.5-1.4,0.5-2.5c0-1.1-0.2-1.9-0.5-2.4
		s-0.9-0.8-1.7-0.8c-0.8,0-1.4,0.3-1.7,0.8S139.4,59.6,139.4,60.7z"/>
	<path class="st1" d="M159.5,66.2h-3v-6.4c0-0.8-0.1-1.4-0.4-1.8s-0.7-0.6-1.3-0.6c-0.8,0-1.4,0.3-1.8,0.8s-0.6,1.5-0.6,2.8v5.1h-3
		V55.2h2.3l0.4,1.4h0.2c0.3-0.5,0.8-0.9,1.4-1.2s1.2-0.4,2-0.4c1.3,0,2.2,0.3,2.9,1s1,1.7,1,3V66.2z"/>
	<path class="st1" d="M167.5,66.4c-1.8,0-3.1-0.5-4.1-1.5s-1.5-2.3-1.5-4.1c0-1.8,0.5-3.2,1.4-4.2s2.2-1.5,3.8-1.5
		c1.5,0,2.7,0.4,3.6,1.3s1.3,2.1,1.3,3.6v1.4h-7c0,0.8,0.3,1.5,0.8,2c0.5,0.5,1.1,0.7,2,0.7c0.7,0,1.3-0.1,1.9-0.2s1.2-0.4,1.8-0.7
		v2.3c-0.5,0.3-1.1,0.5-1.7,0.6S168.3,66.4,167.5,66.4z M167,57.2c-0.6,0-1.1,0.2-1.5,0.6s-0.6,1-0.6,1.7h4.2c0-0.7-0.2-1.3-0.6-1.7
		S167.7,57.2,167,57.2z"/>
	<path class="st1" d="M23.4,79.2h3.3l2.1,6.1c0.2,0.5,0.3,1.2,0.4,1.9h0.1c0.1-0.7,0.2-1.3,0.4-1.9l2-6.1h3.2l-4.6,12.3
		c-0.4,1.1-1,2-1.8,2.6S26.7,95,25.6,95c-0.5,0-1-0.1-1.5-0.2v-2.4c0.4,0.1,0.7,0.1,1.2,0.1c0.5,0,1-0.2,1.4-0.5s0.7-0.8,0.9-1.5
		l0.2-0.5L23.4,79.2z"/>
	<path class="st1" d="M46.3,84.7c0,1.8-0.5,3.2-1.4,4.2s-2.2,1.5-3.9,1.5c-1,0-2-0.2-2.8-0.7s-1.4-1.1-1.8-2s-0.6-1.9-0.6-3
		c0-1.8,0.5-3.2,1.4-4.2S39.3,79,41,79c1,0,2,0.2,2.8,0.7s1.4,1.1,1.8,2S46.3,83.5,46.3,84.7z M38.7,84.7c0,1.1,0.2,1.9,0.5,2.5
		S40.2,88,41,88c0.8,0,1.4-0.3,1.7-0.8s0.5-1.4,0.5-2.5c0-1.1-0.2-1.9-0.5-2.4s-0.9-0.8-1.7-0.8c-0.8,0-1.4,0.3-1.7,0.8
		S38.7,83.6,38.7,84.7z"/>
	<path class="st1" d="M56.5,90.2l-0.4-1.4h-0.2c-0.3,0.5-0.8,0.9-1.4,1.2s-1.3,0.4-2,0.4c-1.3,0-2.2-0.3-2.9-1s-1-1.7-1-3v-7.1h3
		v6.4c0,0.8,0.1,1.4,0.4,1.8s0.7,0.6,1.3,0.6c0.8,0,1.4-0.3,1.8-0.8s0.6-1.5,0.6-2.8v-5.1h3v10.9H56.5z"/>
	<path class="st1" d="M70.5,90.4c-1.3,0-2.3-0.5-3-1.5s-1.1-2.4-1.1-4.1c0-1.8,0.4-3.2,1.1-4.2s1.8-1.5,3.1-1.5
		c1.4,0,2.4,0.5,3.1,1.6h0.1c-0.1-0.8-0.2-1.5-0.2-2.2V75h3v15.2h-2.3l-0.6-1.4h-0.1C73,89.8,71.9,90.4,70.5,90.4z M71.6,88
		c0.8,0,1.3-0.2,1.7-0.7s0.5-1.2,0.6-2.3v-0.3c0-1.2-0.2-2-0.5-2.5s-0.9-0.8-1.8-0.8c-0.7,0-1.2,0.3-1.5,0.8s-0.6,1.4-0.6,2.5
		s0.2,1.9,0.6,2.4S70.9,88,71.6,88z"/>
	<path class="st1" d="M89.7,84.7c0,1.8-0.5,3.2-1.4,4.2s-2.2,1.5-3.9,1.5c-1,0-2-0.2-2.8-0.7s-1.4-1.1-1.8-2s-0.6-1.9-0.6-3
		c0-1.8,0.5-3.2,1.4-4.2s2.2-1.5,3.9-1.5c1,0,2,0.2,2.8,0.7s1.4,1.1,1.8,2S89.7,83.5,89.7,84.7z M82.1,84.7c0,1.1,0.2,1.9,0.5,2.5
		s0.9,0.8,1.7,0.8c0.8,0,1.4-0.3,1.7-0.8s0.5-1.4,0.5-2.5c0-1.1-0.2-1.9-0.5-2.4s-0.9-0.8-1.7-0.8c-0.8,0-1.4,0.3-1.7,0.8
		S82.1,83.6,82.1,84.7z"/>
	<path class="st1" d="M102.2,90.2h-3v-6.4c0-0.8-0.1-1.4-0.4-1.8s-0.7-0.6-1.3-0.6c-0.8,0-1.4,0.3-1.8,0.8s-0.6,1.5-0.6,2.8v5.1h-3
		V79.2h2.3l0.4,1.4H95c0.3-0.5,0.8-0.9,1.4-1.2s1.2-0.4,2-0.4c1.3,0,2.2,0.3,2.9,1s1,1.7,1,3V90.2z"/>
	<path class="st1" d="M107.7,75.9l0.1,0.2c-0.3,1.3-0.9,2.8-1.7,4.7h-2.1c0.4-1.9,0.8-3.6,1-4.9H107.7z"/>
	<path class="st1" d="M114.2,88c0.5,0,1.1-0.1,1.9-0.3v2.2c-0.7,0.3-1.7,0.5-2.7,0.5c-1.2,0-2.1-0.3-2.6-0.9s-0.8-1.5-0.8-2.7v-5.3
		h-1.4v-1.3l1.6-1l0.9-2.3h1.9v2.3h3.1v2.2h-3.1v5.3c0,0.4,0.1,0.7,0.4,0.9S113.8,88,114.2,88z"/>
	<path class="st1" d="M126.3,84.2l1.3-1.7l3.1-3.3h3.4l-4.3,4.7l4.6,6.2h-3.4l-3.1-4.4l-1.3,1v3.4h-3V75h3v6.8L126.3,84.2
		L126.3,84.2z"/>
	<path class="st1" d="M146,90.2h-3v-6.4c0-0.8-0.1-1.4-0.4-1.8s-0.7-0.6-1.3-0.6c-0.8,0-1.4,0.3-1.8,0.8s-0.6,1.5-0.6,2.8v5.1h-3
		V79.2h2.3l0.4,1.4h0.2c0.3-0.5,0.8-0.9,1.4-1.2s1.2-0.4,2-0.4c1.3,0,2.2,0.3,2.9,1s1,1.7,1,3V90.2z"/>
	<path class="st1" d="M158.9,84.7c0,1.8-0.5,3.2-1.4,4.2s-2.2,1.5-3.9,1.5c-1,0-2-0.2-2.8-0.7s-1.4-1.1-1.8-2s-0.6-1.9-0.6-3
		c0-1.8,0.5-3.2,1.4-4.2s2.2-1.5,3.9-1.5c1,0,2,0.2,2.8,0.7s1.4,1.1,1.8,2S158.9,83.5,158.9,84.7z M151.4,84.7
		c0,1.1,0.2,1.9,0.5,2.5s0.9,0.8,1.7,0.8c0.8,0,1.4-0.3,1.7-0.8s0.5-1.4,0.5-2.5c0-1.1-0.2-1.9-0.5-2.4s-0.9-0.8-1.7-0.8
		c-0.8,0-1.4,0.3-1.7,0.8S151.4,83.6,151.4,84.7z"/>
	<path class="st1" d="M170.4,90.2l-0.8-3.8l-1.1-4.8h-0.1l-2,8.6h-3.2L160,79.2h3l1.3,4.8c0.2,0.9,0.4,2.1,0.6,3.6h0.1
		c0-0.5,0.1-1.3,0.3-2.4l0.2-0.8l1.3-5.2h3.3l1.3,5.2c0,0.1,0.1,0.4,0.1,0.6s0.1,0.6,0.2,0.9s0.1,0.6,0.1,0.9s0.1,0.5,0.1,0.7h0.1
		c0.1-0.5,0.2-1.1,0.3-1.9s0.3-1.4,0.3-1.7l1.3-4.8h2.9l-3.1,10.9H170.4z"/>
</g>
</svg>
