<?xml version="1.0" encoding="utf-8"?>
<!-- Generator: Adobe Illustrator 25.4.1, SVG Export Plug-In . SVG Version: 6.00 Build 0)  -->
<svg version="1.1" id="Layer_1" xmlns="http://www.w3.org/2000/svg" xmlns:xlink="http://www.w3.org/1999/xlink" x="0px" y="0px"
	 viewBox="0 0 198.4 127.6" style="enable-background:new 0 0 198.4 127.6;" xml:space="preserve">
<style type="text/css">
	.st0{fill:#107DC1;}
	.st1{fill:#FFFFFF;}
	.st2{fill:none;}
	.st3{font-family:'OpenSans-Bold';}
	.st4{font-size:20px;}
</style>
<path class="st0" d="M184.7,118.6h-171c-6.6,0-12-5.4-12-12V13.9c0-6.6,5.4-12,12-12h171c6.6,0,12,5.4,12,12v92.7
	C196.7,113.2,191.3,118.6,184.7,118.6z"/>
<g>
	<path class="st1" d="M167.2-78.8c0,2.4-0.6,4.2-1.8,5.4c-1.2,1.2-2.9,1.9-5,1.9c-2.1,0-3.9-0.6-5-1.9c-1.1-1.3-1.8-3.1-1.8-5.5
		s0.6-4.2,1.8-5.4c1.2-1.2,2.9-1.9,5.1-1.9c2.2,0,3.9,0.6,5,1.9C166.6-83,167.2-81.2,167.2-78.8z M156.8-78.8c0,1.6,0.3,2.8,0.9,3.6
		c0.6,0.8,1.5,1.2,2.7,1.2c2.4,0,3.6-1.6,3.6-4.8c0-3.2-1.2-4.8-3.6-4.8c-1.2,0-2.1,0.4-2.7,1.2C157.1-81.6,156.8-80.4,156.8-78.8z"
		/>
	<path class="st1" d="M175.9-71.4c-1.3,0-2.3-0.5-3-1.4h-0.2c0.1,0.9,0.2,1.4,0.2,1.6v4.4h-3v-15.8h2.4l0.4,1.4h0.1
		c0.7-1.1,1.7-1.6,3.1-1.6c1.3,0,2.3,0.5,3,1.5c0.7,1,1.1,2.4,1.1,4.2c0,1.2-0.2,2.2-0.5,3c-0.3,0.8-0.8,1.5-1.5,2
		C177.3-71.6,176.8-71.4,175.9-71.4z M175.1-80.4c-0.7,0-1.3,0.2-1.6,0.7c-0.3,0.5-0.5,1.2-0.5,2.2v0.3c0,1.2,0.2,2,0.5,2.5
		c0.3,0.5,0.9,0.8,1.7,0.8c1.3,0,2-1.1,2-3.3c0-1.1-0.2-1.9-0.5-2.4C176.4-80.1,175.8-80.4,175.1-80.4z"/>
	<path class="st1" d="M187.5-71.4c-1.8,0-3.1-0.5-4.1-1.5s-1.5-2.3-1.5-4.1c0-1.8,0.5-3.2,1.4-4.2c0.9-1,2.2-1.5,3.8-1.5
		c1.5,0,2.7,0.4,3.6,1.3c0.9,0.9,1.3,2.1,1.3,3.6v1.4h-7c0,0.8,0.3,1.5,0.8,2s1.1,0.7,2,0.7c0.7,0,1.3-0.1,1.9-0.2
		c0.6-0.1,1.2-0.4,1.8-0.7v2.3c-0.5,0.3-1.1,0.5-1.7,0.6S188.4-71.4,187.5-71.4z M187.1-80.6c-0.6,0-1.1,0.2-1.5,0.6
		c-0.4,0.4-0.6,1-0.6,1.7h4.2c0-0.7-0.2-1.3-0.6-1.7S187.8-80.6,187.1-80.6z"/>
	<path class="st1" d="M204.5-71.6h-3V-78c0-0.8-0.1-1.4-0.4-1.8c-0.3-0.4-0.7-0.6-1.3-0.6c-0.8,0-1.4,0.3-1.8,0.8
		c-0.4,0.5-0.6,1.5-0.6,2.8v5.1h-3v-10.9h2.3l0.4,1.4h0.2c0.3-0.5,0.8-0.9,1.4-1.2c0.6-0.3,1.2-0.4,2-0.4c1.3,0,2.2,0.3,2.9,1
		s1,1.7,1,3v7.2H204.5z"/>
	<path class="st1" d="M207.4-85.4c0-1,0.5-1.5,1.6-1.5c1.1,0,1.6,0.5,1.6,1.5c0,0.5-0.1,0.8-0.4,1.1c-0.3,0.3-0.7,0.4-1.2,0.4
		C208-83.9,207.4-84.4,207.4-85.4z M210.5-71.6h-3v-11h3V-71.6z"/>
	<path class="st1" d="M223.7-71.6h-3V-78c0-0.8-0.1-1.4-0.4-1.8c-0.3-0.4-0.7-0.6-1.3-0.6c-0.8,0-1.4,0.3-1.8,0.8
		c-0.4,0.5-0.6,1.5-0.6,2.8v5.1h-3v-10.9h2.3l0.4,1.4h0.2c0.3-0.5,0.8-0.9,1.4-1.2c0.6-0.3,1.2-0.4,2-0.4c1.3,0,2.2,0.3,2.9,1
		c0.7,0.7,1,1.7,1,3v7.2H223.7z"/>
	<path class="st1" d="M236.3-82.6v1.5l-1.7,0.4c0.3,0.5,0.5,1,0.5,1.6c0,1.2-0.4,2.1-1.2,2.7c-0.8,0.6-2,1-3.4,1H230h-0.4
		c-0.4,0.3-0.6,0.6-0.6,0.9c0,0.4,0.5,0.6,1.6,0.6h1.9c1.2,0,2.1,0.3,2.7,0.8c0.6,0.5,0.9,1.3,0.9,2.3c0,1.3-0.5,2.3-1.6,3
		c-1.1,0.7-2.5,1-4.5,1c-1.5,0-2.7-0.3-3.5-0.8s-1.2-1.3-1.2-2.2c0-0.7,0.2-1.2,0.6-1.7c0.4-0.5,1-0.8,1.8-0.9
		c-0.3-0.1-0.6-0.3-0.8-0.6c-0.2-0.3-0.3-0.6-0.3-0.9c0-0.4,0.1-0.8,0.4-1c0.3-0.2,0.6-0.5,1-0.8c-0.6-0.2-1-0.6-1.4-1.2
		c-0.4-0.6-0.5-1.2-0.5-1.9c0-1.2,0.4-2.1,1.2-2.8c0.8-0.7,1.9-1,3.3-1c0.3,0,0.7,0,1.1,0.1c0.4,0.1,0.7,0.1,0.8,0.1h3.8V-82.6z
		 M227.9-70.1c0,0.4,0.2,0.7,0.6,1c0.4,0.3,0.9,0.4,1.7,0.4c1.1,0,1.9-0.1,2.5-0.4c0.6-0.3,0.9-0.7,0.9-1.2c0-0.4-0.2-0.7-0.5-0.8
		s-0.9-0.2-1.7-0.2h-1.5c-0.5,0-1,0.1-1.4,0.4C228.1-70.6,227.9-70.5,227.9-70.1z M229-79c0,0.6,0.1,1.1,0.4,1.4s0.7,0.5,1.2,0.5
		c0.6,0,1-0.2,1.2-0.5c0.2-0.3,0.4-0.8,0.4-1.4c0-1.3-0.5-2-1.6-2C229.5-81,229-80.3,229-79z"/>
	<path class="st1" d="M250.2-71.6l-0.6-1.5h-0.1c-0.5,0.6-1,1.1-1.5,1.3c-0.5,0.2-1.2,0.4-2.1,0.4c-1,0-1.9-0.3-2.5-0.9
		c-0.6-0.6-0.9-1.5-0.9-2.6c0-1.2,0.4-2,1.2-2.6c0.8-0.6,2-0.9,3.7-0.9l1.9-0.1V-79c0-1.1-0.6-1.7-1.7-1.7c-0.9,0-1.9,0.3-3.1,0.8
		l-1-2c1.3-0.7,2.6-1,4.2-1c1.5,0,2.6,0.3,3.4,1c0.8,0.7,1.2,1.6,1.2,2.9v7.3L250.2-71.6L250.2-71.6z M249.4-76.7h-1.2
		c-0.9,0-1.5,0.2-1.9,0.5c-0.4,0.3-0.6,0.7-0.6,1.3c0,0.8,0.5,1.3,1.4,1.3c0.7,0,1.2-0.2,1.7-0.6c0.5-0.4,0.6-0.9,0.6-1.6V-76.7z"/>
	<path class="st1" d="M265.5-71.6h-3V-78c0-0.8-0.1-1.4-0.4-1.8c-0.3-0.4-0.7-0.6-1.3-0.6c-0.8,0-1.4,0.3-1.8,0.8
		c-0.4,0.5-0.6,1.5-0.6,2.8v5.1h-3v-10.9h2.3l0.4,1.4h0.2c0.3-0.5,0.8-0.9,1.4-1.2c0.6-0.3,1.2-0.4,2-0.4c1.3,0,2.2,0.3,2.9,1
		c0.7,0.7,1,1.7,1,3L265.5-71.6L265.5-71.6z"/>
	<path class="st1" d="M278.7-71.4c-1.8,0-3.1-0.5-4.1-1.5s-1.5-2.3-1.5-4.1c0-1.8,0.5-3.2,1.4-4.2s2.2-1.5,3.8-1.5
		c1.5,0,2.7,0.4,3.6,1.3c0.9,0.9,1.3,2.1,1.3,3.6v1.4h-7c0,0.8,0.3,1.5,0.8,2s1.1,0.7,2,0.7c0.7,0,1.3-0.1,1.9-0.2
		c0.6-0.1,1.2-0.4,1.8-0.7v2.3c-0.5,0.3-1.1,0.5-1.7,0.6C280.4-71.6,279.5-71.4,278.7-71.4z M278.2-80.6c-0.6,0-1.1,0.2-1.5,0.6
		c-0.4,0.4-0.6,1-0.6,1.7h4.2c0-0.7-0.2-1.3-0.6-1.7C279.3-80.4,278.9-80.6,278.2-80.6z"/>
	<path class="st1" d="M295.3-71.6h-3V-78c0-0.8-0.1-1.4-0.4-1.8c-0.3-0.4-0.7-0.6-1.2-0.6c-0.8,0-1.3,0.3-1.7,0.8s-0.5,1.5-0.5,2.8
		v5.1h-3v-10.9h2.3l0.4,1.4h0.2c0.3-0.5,0.7-0.9,1.3-1.2c0.6-0.3,1.2-0.4,1.9-0.4c1.6,0,2.7,0.5,3.3,1.6h0.3
		c0.3-0.5,0.7-0.9,1.3-1.2c0.6-0.3,1.2-0.4,1.9-0.4c1.2,0,2.2,0.3,2.8,1s1,1.7,1,3.1v7.1h-3V-78c0-0.8-0.1-1.4-0.4-1.8
		c-0.3-0.4-0.7-0.6-1.2-0.6c-0.7,0-1.3,0.3-1.6,0.8c-0.3,0.5-0.5,1.3-0.5,2.5v5.5H295.3z"/>
	<path class="st1" d="M312.1-71.6l-0.6-1.5h-0.1c-0.5,0.6-1,1.1-1.5,1.3c-0.5,0.2-1.2,0.4-2.1,0.4c-1,0-1.9-0.3-2.5-0.9
		c-0.6-0.6-0.9-1.5-0.9-2.6c0-1.2,0.4-2,1.2-2.6c0.8-0.6,2-0.9,3.7-0.9l1.9-0.1V-79c0-1.1-0.6-1.7-1.7-1.7c-0.9,0-1.9,0.3-3.1,0.8
		l-1-2c1.3-0.7,2.6-1,4.2-1c1.5,0,2.6,0.3,3.4,1c0.8,0.7,1.2,1.6,1.2,2.9v7.3L312.1-71.6L312.1-71.6z M311.2-76.7H310
		c-0.9,0-1.5,0.2-1.9,0.5c-0.4,0.3-0.6,0.7-0.6,1.3c0,0.8,0.5,1.3,1.4,1.3c0.7,0,1.2-0.2,1.7-0.6c0.5-0.4,0.6-0.9,0.6-1.6V-76.7z"/>
	<path class="st1" d="M317.1-85.4c0-1,0.5-1.5,1.6-1.5s1.6,0.5,1.6,1.5c0,0.5-0.1,0.8-0.4,1.1c-0.3,0.3-0.7,0.4-1.2,0.4
		C317.7-83.9,317.1-84.4,317.1-85.4z M320.2-71.6h-3v-11h3V-71.6z"/>
	<path class="st1" d="M326.3-71.6h-3v-15.2h3V-71.6z"/>
	<path class="st1" d="M175.2-56.3h-2.6v8.7h-3v-8.7H168v-1.5l1.6-0.8v-0.8c0-1.2,0.3-2.2,0.9-2.7c0.6-0.5,1.6-0.9,2.9-0.9
		c1,0,1.9,0.2,2.7,0.5l-0.8,2.2c-0.6-0.2-1.2-0.3-1.7-0.3c-0.4,0-0.7,0.1-0.9,0.4c-0.2,0.3-0.3,0.6-0.3,1v0.7h2.6v2.2H175.2z"/>
	<path class="st1" d="M183-58.8c0.4,0,0.7,0,1,0.1l-0.2,2.8c-0.2-0.1-0.5-0.1-0.9-0.1c-1,0-1.7,0.2-2.2,0.7s-0.8,1.2-0.8,2.1v5.6h-3
		v-11h2.3l0.4,1.8h0.1c0.3-0.6,0.8-1.1,1.4-1.5S182.3-58.8,183-58.8z"/>
	<path class="st1" d="M195.9-53.1c0,1.8-0.5,3.2-1.4,4.2c-0.9,1-2.2,1.5-3.9,1.5c-1,0-2-0.2-2.8-0.7s-1.4-1.1-1.8-2
		c-0.4-0.9-0.6-1.9-0.6-3c0-1.8,0.5-3.2,1.4-4.2c0.9-1,2.2-1.5,3.9-1.5c1,0,2,0.2,2.8,0.7c0.8,0.5,1.4,1.1,1.8,2
		S195.9-54.3,195.9-53.1z M188.4-53.1c0,1.1,0.2,1.9,0.5,2.5c0.4,0.6,0.9,0.8,1.7,0.8s1.4-0.3,1.7-0.8c0.3-0.6,0.5-1.4,0.5-2.5
		s-0.2-1.9-0.5-2.4c-0.3-0.5-0.9-0.8-1.7-0.8s-1.4,0.3-1.7,0.8S188.4-54.2,188.4-53.1z"/>
	<path class="st1" d="M208.2-47.6h-3V-54c0-0.8-0.1-1.4-0.4-1.8s-0.7-0.6-1.2-0.6c-0.8,0-1.3,0.3-1.7,0.8c-0.4,0.5-0.5,1.5-0.5,2.8
		v5.1h-3v-10.9h2.3l0.4,1.4h0.2c0.3-0.5,0.7-0.9,1.3-1.2c0.6-0.3,1.2-0.4,1.9-0.4c1.6,0,2.7,0.5,3.3,1.6h0.2
		c0.3-0.5,0.7-0.9,1.3-1.2s1.2-0.4,1.9-0.4c1.2,0,2.2,0.3,2.8,1s1,1.7,1,3.1v7.1h-3V-54c0-0.8-0.1-1.4-0.4-1.8s-0.7-0.6-1.2-0.6
		c-0.7,0-1.3,0.3-1.6,0.8c-0.3,0.5-0.5,1.3-0.5,2.5v5.5H208.2z"/>
	<path class="st1" d="M230.8-50.9c0,1.1-0.4,2-1.2,2.6c-0.8,0.6-1.9,0.9-3.5,0.9c-0.8,0-1.5-0.1-2-0.2s-1.1-0.3-1.6-0.5v-2.5
		c0.6,0.3,1.2,0.5,1.9,0.7c0.7,0.2,1.3,0.3,1.8,0.3c1.1,0,1.6-0.3,1.6-0.9c0-0.2-0.1-0.4-0.2-0.6c-0.1-0.2-0.4-0.3-0.7-0.5
		c-0.3-0.2-0.8-0.4-1.4-0.6c-0.8-0.4-1.5-0.7-1.9-1c-0.4-0.3-0.7-0.6-0.9-1c-0.2-0.4-0.3-0.9-0.3-1.4c0-1,0.4-1.7,1.1-2.3
		s1.8-0.8,3.2-0.8c1.3,0,2.6,0.3,3.8,0.9l-0.7,2c-0.5-0.2-1.1-0.4-1.5-0.6c-0.4-0.2-1-0.2-1.5-0.2c-0.9,0-1.3,0.2-1.3,0.7
		c0,0.3,0.1,0.5,0.4,0.7s0.9,0.5,1.9,0.9c0.9,0.3,1.5,0.7,1.9,1c0.4,0.3,0.7,0.6,0.9,1C230.8-51.9,230.8-51.4,230.8-50.9z"/>
	<path class="st1" d="M243.1-53.1c0,1.8-0.5,3.2-1.4,4.2c-0.9,1-2.2,1.5-3.9,1.5c-1,0-2-0.2-2.8-0.7s-1.4-1.1-1.8-2
		c-0.4-0.9-0.6-1.9-0.6-3c0-1.8,0.5-3.2,1.4-4.2c0.9-1,2.2-1.5,3.9-1.5c1,0,2,0.2,2.8,0.7s1.4,1.1,1.8,2
		C242.9-55.2,243.1-54.3,243.1-53.1z M235.5-53.1c0,1.1,0.2,1.9,0.5,2.5c0.4,0.6,0.9,0.8,1.7,0.8c0.8,0,1.4-0.3,1.7-0.8
		c0.3-0.6,0.5-1.4,0.5-2.5s-0.2-1.9-0.5-2.4s-0.9-0.8-1.7-0.8s-1.4,0.3-1.7,0.8C235.7-55,235.5-54.2,235.5-53.1z"/>
	<path class="st1" d="M255.3-47.6h-3V-54c0-0.8-0.1-1.4-0.4-1.8s-0.7-0.6-1.2-0.6c-0.8,0-1.3,0.3-1.7,0.8s-0.5,1.5-0.5,2.8v5.1h-3
		v-10.9h2.3l0.4,1.4h0.2c0.3-0.5,0.7-0.9,1.3-1.2s1.2-0.4,1.9-0.4c1.6,0,2.7,0.5,3.3,1.6h0.3c0.3-0.5,0.7-0.9,1.3-1.2
		c0.6-0.3,1.2-0.4,1.9-0.4c1.2,0,2.2,0.3,2.8,1s1,1.7,1,3.1v7.1h-3V-54c0-0.8-0.1-1.4-0.4-1.8c-0.3-0.4-0.7-0.6-1.2-0.6
		c-0.7,0-1.3,0.3-1.6,0.8c-0.3,0.5-0.5,1.3-0.5,2.5v5.5H255.3z"/>
	<path class="st1" d="M270.1-47.4c-1.8,0-3.1-0.5-4.1-1.5s-1.5-2.3-1.5-4.1s0.5-3.2,1.4-4.2s2.2-1.5,3.8-1.5c1.5,0,2.7,0.4,3.6,1.3
		c0.9,0.9,1.3,2.1,1.3,3.6v1.4h-7c0,0.8,0.3,1.5,0.8,2s1.1,0.7,2,0.7c0.7,0,1.3-0.1,1.9-0.2c0.6-0.1,1.2-0.4,1.8-0.7v2.3
		c-0.5,0.3-1.1,0.5-1.7,0.6C271.8-47.6,271-47.4,270.1-47.4z M269.7-56.6c-0.6,0-1.1,0.2-1.5,0.6s-0.6,1-0.6,1.7h4.2
		c0-0.7-0.2-1.3-0.6-1.7C270.8-56.4,270.3-56.6,269.7-56.6z"/>
	<path class="st1" d="M286.9-53.1c0,1.8-0.5,3.2-1.4,4.2s-2.2,1.5-3.9,1.5c-1,0-2-0.2-2.8-0.7c-0.8-0.5-1.4-1.1-1.8-2
		c-0.4-0.9-0.6-1.9-0.6-3c0-1.8,0.5-3.2,1.4-4.2s2.2-1.5,3.9-1.5c1,0,2,0.2,2.8,0.7c0.8,0.5,1.4,1.1,1.8,2
		C286.7-55.2,286.9-54.3,286.9-53.1z M279.4-53.1c0,1.1,0.2,1.9,0.5,2.5c0.4,0.6,0.9,0.8,1.7,0.8c0.8,0,1.4-0.3,1.7-0.8
		c0.3-0.6,0.5-1.4,0.5-2.5s-0.2-1.9-0.5-2.4c-0.3-0.5-0.9-0.8-1.7-0.8c-0.8,0-1.4,0.3-1.7,0.8C279.6-55,279.4-54.2,279.4-53.1z"/>
	<path class="st1" d="M299.5-47.6h-3V-54c0-0.8-0.1-1.4-0.4-1.8s-0.7-0.6-1.3-0.6c-0.8,0-1.4,0.3-1.8,0.8c-0.4,0.5-0.6,1.5-0.6,2.8
		v5.1h-3v-10.9h2.3l0.4,1.4h0.2c0.3-0.5,0.8-0.9,1.4-1.2c0.6-0.3,1.2-0.4,2-0.4c1.3,0,2.2,0.3,2.9,1c0.7,0.7,1,1.7,1,3L299.5-47.6
		L299.5-47.6z"/>
	<path class="st1" d="M307.5-47.4c-1.8,0-3.1-0.5-4.1-1.5s-1.5-2.3-1.5-4.1s0.5-3.2,1.4-4.2s2.2-1.5,3.8-1.5c1.5,0,2.7,0.4,3.6,1.3
		c0.9,0.9,1.3,2.1,1.3,3.6v1.4h-7c0,0.8,0.3,1.5,0.8,2s1.1,0.7,2,0.7c0.7,0,1.3-0.1,1.9-0.2c0.6-0.1,1.2-0.4,1.8-0.7v2.3
		c-0.5,0.3-1.1,0.5-1.7,0.6C309.2-47.6,308.3-47.4,307.5-47.4z M307-56.6c-0.6,0-1.1,0.2-1.5,0.6s-0.6,1-0.6,1.7h4.2
		c0-0.7-0.2-1.3-0.6-1.7C308.1-56.4,307.7-56.6,307-56.6z"/>
	<path class="st1" d="M163.4-34.6h3.3l2.1,6.1c0.2,0.5,0.3,1.2,0.4,1.9h0.1c0.1-0.7,0.2-1.3,0.4-1.9l2-6.1h3.2l-4.6,12.3
		c-0.4,1.1-1,2-1.8,2.6s-1.8,0.9-2.9,0.9c-0.5,0-1-0.1-1.5-0.2v-2.4c0.4,0.1,0.7,0.1,1.2,0.1s1-0.2,1.4-0.5c0.4-0.3,0.7-0.8,0.9-1.5
		l0.2-0.5L163.4-34.6z"/>
	<path class="st1" d="M186.3-29.1c0,1.8-0.5,3.2-1.4,4.2c-0.9,1-2.2,1.5-3.9,1.5c-1,0-2-0.2-2.8-0.7c-0.8-0.5-1.4-1.1-1.8-2
		c-0.4-0.9-0.6-1.9-0.6-3c0-1.8,0.5-3.2,1.4-4.2c0.9-1,2.1-1.5,3.8-1.5c1,0,2,0.2,2.8,0.7s1.4,1.1,1.8,2
		C186-31.2,186.3-30.3,186.3-29.1z M178.7-29.1c0,1.1,0.2,1.9,0.5,2.5c0.3,0.6,1,0.8,1.8,0.8c0.8,0,1.4-0.3,1.7-0.8
		c0.3-0.5,0.5-1.4,0.5-2.5s-0.2-1.9-0.5-2.4c-0.3-0.5-0.9-0.8-1.7-0.8c-0.8,0-1.4,0.3-1.7,0.8S178.7-30.2,178.7-29.1z"/>
	<path class="st1" d="M196.5-23.6l-0.4-1.4h-0.2c-0.3,0.5-0.8,0.9-1.4,1.2s-1.3,0.4-2,0.4c-1.3,0-2.2-0.3-2.9-1c-0.7-0.7-1-1.7-1-3
		v-7.1h3v6.4c0,0.8,0.1,1.4,0.4,1.8s0.7,0.6,1.3,0.6c0.8,0,1.4-0.3,1.8-0.8c0.4-0.5,0.6-1.5,0.6-2.8v-5.1h3v10.9L196.5-23.6
		L196.5-23.6z"/>
	<path class="st1" d="M210.5-23.4c-1.3,0-2.3-0.5-3-1.5s-1.1-2.4-1.1-4.1c0-1.8,0.4-3.2,1.1-4.2s1.8-1.5,3.1-1.5
		c1.4,0,2.4,0.5,3.1,1.6h0.1c-0.1-0.8-0.2-1.5-0.2-2.2v-3.5h3v15.2h-2.3l-0.6-1.4h-0.1C213-24,211.9-23.4,210.5-23.4z M211.6-25.8
		c0.8,0,1.3-0.2,1.7-0.7s0.5-1.2,0.6-2.3v-0.3c0-1.2-0.2-2-0.5-2.5c-0.3-0.5-0.9-0.8-1.8-0.8c-0.7,0-1.2,0.3-1.5,0.8
		c-0.3,0.5-0.6,1.4-0.6,2.5s0.2,1.9,0.6,2.4C210.5-26.2,210.9-25.8,211.6-25.8z"/>
	<path class="st1" d="M229.7-29.1c0,1.8-0.5,3.2-1.4,4.2c-0.9,1-2.2,1.5-3.9,1.5c-1,0-2-0.2-2.8-0.7s-1.4-1.1-1.8-2
		c-0.4-0.9-0.6-1.9-0.6-3c0-1.8,0.5-3.2,1.4-4.2c0.9-1,2.2-1.5,3.9-1.5c1,0,2,0.2,2.8,0.7s1.4,1.1,1.8,2
		C229.5-31.2,229.7-30.3,229.7-29.1z M222.1-29.1c0,1.1,0.2,1.9,0.5,2.5s0.9,0.8,1.7,0.8s1.4-0.3,1.7-0.8c0.3-0.5,0.5-1.4,0.5-2.5
		s-0.2-1.9-0.5-2.4s-0.9-0.8-1.7-0.8c-0.8,0-1.4,0.3-1.7,0.8C222.3-31,222.1-30.2,222.1-29.1z"/>
	<path class="st1" d="M242.2-23.6h-3V-30c0-0.8-0.1-1.4-0.4-1.8c-0.3-0.4-0.7-0.6-1.3-0.6c-0.8,0-1.4,0.3-1.8,0.8
		c-0.4,0.5-0.6,1.5-0.6,2.8v5.1h-3v-10.9h2.3l0.4,1.4h0.2c0.3-0.5,0.8-0.9,1.4-1.2c0.6-0.3,1.2-0.4,2-0.4c1.3,0,2.2,0.3,2.9,1
		c0.7,0.7,1,1.7,1,3v7.2H242.2z"/>
	<path class="st1" d="M247.7-37.9l0.1,0.2c-0.3,1.3-0.9,2.8-1.7,4.7H244c0.4-1.9,0.8-3.6,1-4.9C245-37.9,247.7-37.9,247.7-37.9z"/>
	<path class="st1" d="M254.2-25.8c0.5,0,1.1-0.1,1.9-0.3v2.2c-0.7,0.3-1.7,0.5-2.7,0.5c-1.2,0-2.1-0.3-2.6-0.9S250-25.8,250-27v-5.3
		h-1.4v-1.3l1.6-1l0.9-2.3h1.9v2.3h3.1v2.2H253v5.3c0,0.4,0.1,0.7,0.4,0.9S253.8-25.8,254.2-25.8z"/>
	<path class="st1" d="M266.3-29.6l1.3-1.7l3.1-3.3h3.4l-4.3,4.7l4.6,6.2H271l-3.1-4.4l-1.3,1v3.4h-3v-15.1h3v6.8L266.3-29.6
		L266.3-29.6z"/>
	<path class="st1" d="M286-23.6h-3V-30c0-0.8-0.1-1.4-0.4-1.8c-0.3-0.4-0.7-0.6-1.3-0.6c-0.8,0-1.4,0.3-1.8,0.8
		c-0.4,0.5-0.6,1.5-0.6,2.8v5.1h-3v-10.9h2.3l0.4,1.4h0.2c0.3-0.5,0.8-0.9,1.4-1.2c0.6-0.3,1.2-0.4,2-0.4c1.3,0,2.2,0.3,2.9,1
		c0.7,0.7,1,1.7,1,3L286-23.6L286-23.6z"/>
	<path class="st1" d="M298.9-29.1c0,1.8-0.5,3.2-1.4,4.2s-2.2,1.5-3.9,1.5c-1,0-2-0.2-2.8-0.7c-0.8-0.5-1.4-1.1-1.8-2
		c-0.4-0.9-0.6-1.9-0.6-3c0-1.8,0.5-3.2,1.4-4.2s2.2-1.5,3.9-1.5c1,0,2,0.2,2.8,0.7c0.8,0.5,1.4,1.1,1.8,2
		C298.7-31.2,298.9-30.3,298.9-29.1z M291.4-29.1c0,1.1,0.2,1.9,0.5,2.5c0.3,0.6,0.9,0.8,1.7,0.8c0.8,0,1.4-0.3,1.7-0.8
		c0.3-0.5,0.5-1.4,0.5-2.5s-0.2-1.9-0.5-2.4c-0.3-0.5-0.9-0.8-1.7-0.8c-0.8,0-1.4,0.3-1.7,0.8C291.6-31,291.4-30.2,291.4-29.1z"/>
	<path class="st1" d="M310.4-23.6l-0.8-3.8l-1.1-4.8h-0.1l-2,8.6h-3.2l-3.2-11h3l1.3,4.8c0.2,0.9,0.4,2.1,0.6,3.6h0.1
		c0-0.5,0.1-1.3,0.3-2.4l0.2-0.8l1.3-5.2h3.3l1.3,5.2c0,0.1,0.1,0.4,0.1,0.6s0.1,0.6,0.2,0.9c0.1,0.3,0.1,0.6,0.1,0.9
		s0.1,0.5,0.1,0.7h0.1c0.1-0.5,0.2-1.1,0.3-1.9s0.3-1.4,0.3-1.7l1.3-4.8h2.9l-3.1,10.9h-3.3V-23.6z"/>
</g>
<g>
	<path class="st1" d="M238.2,5.9c0,1.3-0.5,2.3-1.4,3s-2.2,1.1-3.9,1.1c-1.5,0-2.9-0.3-4-0.9V6.4c1,0.4,1.8,0.7,2.4,0.9
		s1.3,0.3,1.8,0.3c0.7,0,1.2-0.1,1.5-0.4s0.5-0.6,0.5-1.1c0-0.3-0.1-0.5-0.2-0.7s-0.4-0.4-0.7-0.6s-0.9-0.5-1.9-1
		c-0.9-0.4-1.5-0.8-2-1.2s-0.8-0.8-1-1.3s-0.4-1.1-0.4-1.8c0-1.3,0.4-2.3,1.3-3s2-1.1,3.5-1.1c0.7,0,1.5,0.1,2.1,0.3
		s1.4,0.4,2.1,0.7l-1,2.4c-0.8-0.3-1.4-0.5-1.9-0.7s-1-0.2-1.5-0.2c-0.6,0-1,0.1-1.3,0.4s-0.5,0.6-0.5,1c0,0.3,0.1,0.5,0.2,0.7
		s0.3,0.4,0.6,0.6s0.9,0.5,1.9,1c1.3,0.6,2.2,1.3,2.7,1.9S238.2,5,238.2,5.9z"/>
	<path class="st1" d="M250.6,9.9h-3V3.5c0-1.6-0.6-2.4-1.8-2.4c-0.8,0-1.4,0.3-1.8,0.8s-0.6,1.5-0.6,2.8v5.1h-3V-5.3h3v3.1
		c0,0.2,0,0.8-0.1,1.7l-0.1,0.9h0.2c0.7-1.1,1.7-1.6,3.2-1.6c1.3,0,2.3,0.3,2.9,1s1,1.7,1,3V9.9z"/>
	<path class="st1" d="M260.6,9.9l-0.6-1.5H260c-0.5,0.6-1,1.1-1.5,1.3s-1.2,0.4-2.1,0.4c-1,0-1.9-0.3-2.5-0.9S253,7.7,253,6.6
		c0-1.2,0.4-2,1.2-2.6s2-0.9,3.7-0.9l1.9-0.1V2.6c0-1.1-0.6-1.7-1.7-1.7c-0.9,0-1.9,0.3-3.1,0.8l-1-2c1.3-0.7,2.6-1,4.2-1
		c1.5,0,2.6,0.3,3.4,1s1.2,1.6,1.2,2.9v7.3H260.6z M259.8,4.8l-1.2,0c-0.9,0-1.5,0.2-1.9,0.5S256,6,256,6.6c0,0.8,0.5,1.3,1.4,1.3
		c0.7,0,1.2-0.2,1.7-0.6s0.6-0.9,0.6-1.6V4.8z"/>
	<path class="st1" d="M271.9-1.3c0.4,0,0.7,0,1,0.1l-0.2,2.8c-0.2-0.1-0.5-0.1-0.9-0.1c-1,0-1.7,0.2-2.2,0.7s-0.8,1.2-0.8,2.1v5.6
		h-3V-1.1h2.3l0.4,1.8h0.1c0.3-0.6,0.8-1.1,1.4-1.5S271.2-1.3,271.9-1.3z"/>
	<path class="st1" d="M274.7-3.9c0-1,0.5-1.5,1.6-1.5s1.6,0.5,1.6,1.5c0,0.5-0.1,0.8-0.4,1.1s-0.7,0.4-1.2,0.4
		C275.3-2.4,274.7-2.9,274.7-3.9z M277.9,9.9h-3V-1.1h3V9.9z"/>
	<path class="st1" d="M291.1,9.9h-3V3.5c0-0.8-0.1-1.4-0.4-1.8s-0.7-0.6-1.3-0.6c-0.8,0-1.4,0.3-1.8,0.8S284,3.4,284,4.7v5.1h-3
		V-1.1h2.3l0.4,1.4h0.2c0.3-0.5,0.8-0.9,1.4-1.2s1.2-0.4,2-0.4c1.3,0,2.2,0.3,2.9,1s1,1.7,1,3V9.9z"/>
	<path class="st1" d="M303.6-1.1v1.5l-1.7,0.4c0.3,0.5,0.5,1,0.5,1.6c0,1.2-0.4,2.1-1.2,2.7s-2,1-3.4,1l-0.5,0l-0.4,0
		c-0.3,0.2-0.5,0.5-0.5,0.8c0,0.4,0.5,0.6,1.6,0.6h1.9c1.2,0,2.1,0.3,2.7,0.8s0.9,1.3,0.9,2.3c0,1.3-0.5,2.3-1.6,3s-2.6,1.1-4.6,1.1
		c-1.5,0-2.7-0.3-3.5-0.8s-1.2-1.3-1.2-2.2c0-0.7,0.2-1.2,0.6-1.7s1-0.8,1.8-0.9c-0.3-0.1-0.6-0.3-0.8-0.6s-0.3-0.6-0.3-0.9
		c0-0.4,0.1-0.8,0.4-1s0.6-0.5,1-0.8c-0.6-0.2-1-0.6-1.4-1.2s-0.5-1.2-0.5-1.9c0-1.2,0.4-2.1,1.2-2.8s1.9-1,3.3-1
		c0.3,0,0.7,0,1.1,0.1s0.7,0.1,0.8,0.1H303.6z M295.2,11.4c0,0.4,0.2,0.7,0.6,1s0.9,0.4,1.7,0.4c1.1,0,1.9-0.1,2.5-0.4
		s0.9-0.7,0.9-1.2c0-0.4-0.2-0.7-0.5-0.8s-0.9-0.2-1.7-0.2h-1.5c-0.5,0-1,0.1-1.4,0.4S295.2,11,295.2,11.4z M296.3,2.5
		c0,0.6,0.1,1.1,0.4,1.4s0.7,0.5,1.2,0.5c0.6,0,1-0.2,1.2-0.5s0.4-0.8,0.4-1.4c0-1.3-0.5-2-1.6-2C296.8,0.5,296.3,1.2,296.3,2.5z"/>
	<path class="st1" d="M309.1-1.1h3.3l2.1,6.1c0.2,0.5,0.3,1.2,0.4,1.9h0.1c0.1-0.7,0.2-1.3,0.4-1.9l2-6.1h3.2l-4.6,12.3
		c-0.4,1.1-1,2-1.8,2.6s-1.7,0.8-2.7,0.8c-0.5,0-1-0.1-1.5-0.2v-2.4c0.4,0.1,0.7,0.1,1.2,0.1c0.5,0,1-0.2,1.4-0.5s0.7-0.8,0.9-1.5
		l0.2-0.5L309.1-1.1z"/>
	<path class="st1" d="M331.9,4.4c0,1.8-0.5,3.2-1.4,4.2s-2.2,1.5-3.9,1.5c-1,0-2-0.2-2.8-0.7s-1.4-1.1-1.8-2s-0.6-1.9-0.6-3
		c0-1.8,0.5-3.2,1.4-4.2s2.2-1.5,3.9-1.5c1,0,2,0.2,2.8,0.7s1.4,1.1,1.8,2S331.9,3.2,331.9,4.4z M324.4,4.4c0,1.1,0.2,1.9,0.5,2.5
		s0.9,0.8,1.7,0.8c0.8,0,1.4-0.3,1.7-0.8s0.5-1.4,0.5-2.5c0-1.1-0.2-1.9-0.5-2.4s-0.9-0.8-1.7-0.8c-0.8,0-1.4,0.3-1.7,0.8
		S324.4,3.3,324.4,4.4z"/>
	<path class="st1" d="M342.1,9.9l-0.4-1.4h-0.2c-0.3,0.5-0.8,0.9-1.4,1.2s-1.3,0.4-2,0.4c-1.3,0-2.2-0.3-2.9-1s-1-1.7-1-3v-7.1h3
		v6.4c0,0.8,0.1,1.4,0.4,1.8s0.7,0.6,1.3,0.6c0.8,0,1.4-0.3,1.8-0.8s0.6-1.5,0.6-2.8v-5.1h3V9.9H342.1z"/>
	<path class="st1" d="M353.6-1.3c0.4,0,0.7,0,1,0.1l-0.2,2.8c-0.2-0.1-0.5-0.1-0.9-0.1c-1,0-1.7,0.2-2.2,0.7s-0.8,1.2-0.8,2.1v5.6
		h-3V-1.1h2.3l0.4,1.8h0.1c0.3-0.6,0.8-1.1,1.4-1.5S352.9-1.3,353.6-1.3z"/>
	<path class="st1" d="M233,33.9h-3v-6.4c0-1.6-0.6-2.4-1.8-2.4c-0.8,0-1.4,0.3-1.8,0.8s-0.6,1.5-0.6,2.8v5.1h-3V18.7h3v3.1
		c0,0.2,0,0.8-0.1,1.7l-0.1,0.9h0.2c0.7-1.1,1.7-1.6,3.2-1.6c1.3,0,2.3,0.3,2.9,1s1,1.7,1,3V33.9z"/>
	<path class="st1" d="M246,28.4c0,1.8-0.5,3.2-1.4,4.2s-2.2,1.5-3.9,1.5c-1,0-2-0.2-2.8-0.7s-1.4-1.1-1.8-2s-0.6-1.9-0.6-3
		c0-1.8,0.5-3.2,1.4-4.2s2.2-1.5,3.9-1.5c1,0,2,0.2,2.8,0.7s1.4,1.1,1.8,2S246,27.2,246,28.4z M238.4,28.4c0,1.1,0.2,1.9,0.5,2.5
		s0.9,0.8,1.7,0.8c0.8,0,1.4-0.3,1.7-0.8s0.5-1.4,0.5-2.5c0-1.1-0.2-1.9-0.5-2.4s-0.9-0.8-1.7-0.8c-0.8,0-1.4,0.3-1.7,0.8
		S238.4,27.3,238.4,28.4z"/>
	<path class="st1" d="M258.2,33.9h-3v-6.4c0-0.8-0.1-1.4-0.4-1.8s-0.7-0.6-1.2-0.6c-0.8,0-1.3,0.3-1.7,0.8s-0.5,1.5-0.5,2.8v5.1h-3
		V22.9h2.3l0.4,1.4h0.2c0.3-0.5,0.7-0.9,1.3-1.2s1.2-0.4,1.9-0.4c1.6,0,2.7,0.5,3.3,1.6h0.3c0.3-0.5,0.7-0.9,1.3-1.2
		s1.2-0.4,1.9-0.4c1.2,0,2.2,0.3,2.8,1s1,1.7,1,3.1v7.1h-3v-6.4c0-0.8-0.1-1.4-0.4-1.8s-0.7-0.6-1.2-0.6c-0.7,0-1.3,0.3-1.6,0.8
		s-0.5,1.3-0.5,2.5V33.9z"/>
	<path class="st1" d="M273,34.1c-1.8,0-3.1-0.5-4.1-1.5s-1.5-2.3-1.5-4.1c0-1.8,0.5-3.2,1.4-4.2s2.2-1.5,3.8-1.5
		c1.5,0,2.7,0.4,3.6,1.3s1.3,2.1,1.3,3.6v1.4h-7c0,0.8,0.3,1.5,0.8,2s1.1,0.7,2,0.7c0.7,0,1.3-0.1,1.9-0.2s1.2-0.4,1.8-0.7v2.3
		c-0.5,0.3-1.1,0.5-1.7,0.6S273.9,34.1,273,34.1z M272.6,24.9c-0.6,0-1.1,0.2-1.5,0.6s-0.6,1-0.6,1.7h4.2c0-0.7-0.2-1.3-0.6-1.7
		S273.2,24.9,272.6,24.9z"/>
	<path class="st1" d="M292,33.9l-0.6-1.5h-0.1c-0.5,0.6-1,1.1-1.5,1.3s-1.2,0.4-2.1,0.4c-1,0-1.9-0.3-2.5-0.9s-0.9-1.5-0.9-2.6
		c0-1.2,0.4-2,1.2-2.6s2-0.9,3.7-0.9l1.9-0.1v-0.5c0-1.1-0.6-1.7-1.7-1.7c-0.9,0-1.9,0.3-3.1,0.8l-1-2c1.3-0.7,2.6-1,4.2-1
		c1.5,0,2.6,0.3,3.4,1s1.2,1.6,1.2,2.9v7.3H292z M291.1,28.8l-1.2,0c-0.9,0-1.5,0.2-1.9,0.5s-0.6,0.7-0.6,1.3c0,0.8,0.5,1.3,1.4,1.3
		c0.7,0,1.2-0.2,1.7-0.6s0.6-0.9,0.6-1.6V28.8z"/>
	<path class="st1" d="M300.6,34.1c-1.3,0-2.3-0.5-3-1.5s-1.1-2.4-1.1-4.1c0-1.8,0.4-3.2,1.1-4.2s1.8-1.5,3.1-1.5
		c1.4,0,2.4,0.5,3.1,1.6h0.1c-0.1-0.8-0.2-1.5-0.2-2.2v-3.5h3v15.2h-2.3l-0.6-1.4h-0.1C303,33.5,302,34.1,300.6,34.1z M301.7,31.7
		c0.8,0,1.3-0.2,1.7-0.7s0.5-1.2,0.6-2.3v-0.3c0-1.2-0.2-2-0.5-2.5s-0.9-0.8-1.8-0.8c-0.7,0-1.2,0.3-1.5,0.8s-0.6,1.4-0.6,2.5
		s0.2,1.9,0.6,2.4S301,31.7,301.7,31.7z"/>
	<path class="st1" d="M313.3,34.1c-1.3,0-2.3-0.5-3-1.5s-1.1-2.4-1.1-4.1c0-1.8,0.4-3.2,1.1-4.2s1.8-1.5,3.1-1.5
		c1.4,0,2.4,0.5,3.1,1.6h0.1c-0.1-0.8-0.2-1.5-0.2-2.2v-3.5h3v15.2h-2.3l-0.6-1.4h-0.1C315.7,33.5,314.7,34.1,313.3,34.1z
		 M314.3,31.7c0.8,0,1.3-0.2,1.7-0.7s0.5-1.2,0.6-2.3v-0.3c0-1.2-0.2-2-0.5-2.5s-0.9-0.8-1.8-0.8c-0.7,0-1.2,0.3-1.5,0.8
		s-0.6,1.4-0.6,2.5s0.2,1.9,0.6,2.4S313.6,31.7,314.3,31.7z"/>
	<path class="st1" d="M328.6,22.7c0.4,0,0.7,0,1,0.1l-0.2,2.8c-0.2-0.1-0.5-0.1-0.9-0.1c-1,0-1.7,0.2-2.2,0.7s-0.8,1.2-0.8,2.1v5.6
		h-3V22.9h2.3l0.4,1.8h0.1c0.3-0.6,0.8-1.1,1.4-1.5S327.9,22.7,328.6,22.7z"/>
	<path class="st1" d="M336.5,34.1c-1.8,0-3.1-0.5-4.1-1.5s-1.5-2.3-1.5-4.1c0-1.8,0.5-3.2,1.4-4.2s2.2-1.5,3.8-1.5
		c1.5,0,2.7,0.4,3.6,1.3s1.3,2.1,1.3,3.6v1.4h-7c0,0.8,0.3,1.5,0.8,2s1.1,0.7,2,0.7c0.7,0,1.3-0.1,1.9-0.2s1.2-0.4,1.8-0.7v2.3
		c-0.5,0.3-1.1,0.5-1.7,0.6S337.3,34.1,336.5,34.1z M336.1,24.9c-0.6,0-1.1,0.2-1.5,0.6s-0.6,1-0.6,1.7h4.2c0-0.7-0.2-1.3-0.6-1.7
		S336.7,24.9,336.1,24.9z"/>
	<path class="st1" d="M351,30.6c0,1.1-0.4,2-1.2,2.6s-1.9,0.9-3.5,0.9c-0.8,0-1.5-0.1-2-0.2s-1.1-0.3-1.6-0.5V31
		c0.6,0.3,1.2,0.5,1.9,0.7s1.3,0.3,1.8,0.3c1.1,0,1.6-0.3,1.6-0.9c0-0.2-0.1-0.4-0.2-0.6s-0.4-0.3-0.7-0.5s-0.8-0.4-1.4-0.6
		c-0.8-0.4-1.5-0.7-1.9-1s-0.7-0.6-0.9-1s-0.3-0.9-0.3-1.4c0-1,0.4-1.7,1.1-2.3s1.8-0.8,3.2-0.8c1.3,0,2.6,0.3,3.8,0.9l-0.9,2.1
		c-0.5-0.2-1.1-0.4-1.5-0.6s-1-0.2-1.5-0.2c-0.9,0-1.3,0.2-1.3,0.7c0,0.3,0.1,0.5,0.4,0.7s0.9,0.5,1.9,0.9c0.9,0.3,1.5,0.7,1.9,1
		s0.7,0.6,0.9,1S351,30.1,351,30.6z"/>
	<path class="st1" d="M360.9,30.6c0,1.1-0.4,2-1.2,2.6s-1.9,0.9-3.5,0.9c-0.8,0-1.5-0.1-2-0.2s-1.1-0.3-1.6-0.5V31
		c0.6,0.3,1.2,0.5,1.9,0.7s1.3,0.3,1.8,0.3c1.1,0,1.6-0.3,1.6-0.9c0-0.2-0.1-0.4-0.2-0.6s-0.4-0.3-0.7-0.5s-0.8-0.4-1.4-0.6
		c-0.8-0.4-1.5-0.7-1.9-1s-0.7-0.6-0.9-1s-0.3-0.9-0.3-1.4c0-1,0.4-1.7,1.1-2.3s1.8-0.8,3.2-0.8c1.3,0,2.6,0.3,3.8,0.9l-0.9,2.1
		c-0.5-0.2-1.1-0.4-1.5-0.6s-1-0.2-1.5-0.2c-0.9,0-1.3,0.2-1.3,0.7c0,0.3,0.1,0.5,0.4,0.7s0.9,0.5,1.9,0.9c0.9,0.3,1.5,0.7,1.9,1
		s0.7,0.6,0.9,1S360.9,30.1,360.9,30.6z"/>
	<path class="st1" d="M225.7,57.9l-0.8-3.8l-1.1-4.8h-0.1l-2,8.6h-3.2l-3.1-10.9h3l1.3,4.8c0.2,0.9,0.4,2.1,0.6,3.6h0.1
		c0-0.5,0.1-1.3,0.3-2.4l0.2-0.8l1.3-5.2h3.3l1.3,5.2c0,0.1,0.1,0.4,0.1,0.6s0.1,0.6,0.2,0.9s0.1,0.6,0.1,0.9s0.1,0.5,0.1,0.7h0.1
		c0.1-0.5,0.2-1.1,0.3-1.9s0.3-1.4,0.3-1.7l1.3-4.8h2.9L229,57.9H225.7z"/>
	<path class="st1" d="M233.7,44.1c0-1,0.5-1.5,1.6-1.5s1.6,0.5,1.6,1.5c0,0.5-0.1,0.8-0.4,1.1c-0.3,0.3-0.7,0.4-1.2,0.4
		C234.3,45.6,233.7,45.1,233.7,44.1z M236.8,57.9h-3V46.9h3V57.9z"/>
	<path class="st1" d="M244.6,55.7c0.5,0,1.1-0.1,1.9-0.3v2.2c-0.7,0.3-1.7,0.5-2.7,0.5c-1.2,0-2.1-0.3-2.6-0.9s-0.8-1.5-0.8-2.7
		v-5.3h-1.4v-1.3l1.6-1l0.9-2.3h1.9v2.3h3.1v2.2h-3.1v5.3c0,0.4,0.1,0.7,0.4,0.9S244.2,55.7,244.6,55.7z"/>
	<path class="st1" d="M258.7,57.9h-3v-6.4c0-1.6-0.6-2.4-1.8-2.4c-0.8,0-1.4,0.3-1.8,0.8s-0.6,1.5-0.6,2.8v5.1h-3V42.7h3v3.1
		c0,0.2,0,0.8-0.1,1.7l-0.1,0.9h0.2c0.7-1.1,1.7-1.6,3.2-1.6c1.3,0,2.3,0.3,2.9,1s1,1.7,1,3V57.9z"/>
	<path class="st1" d="M273.9,57.9l-0.6-1.5h-0.1c-0.5,0.6-1,1.1-1.5,1.3s-1.2,0.4-2.1,0.4c-1,0-1.9-0.3-2.5-0.9s-0.9-1.5-0.9-2.6
		c0-1.2,0.4-2,1.2-2.6s2-0.9,3.7-0.9l1.9-0.1v-0.5c0-1.1-0.6-1.7-1.7-1.7c-0.9,0-1.9,0.3-3.1,0.8l-1-2c1.3-0.7,2.6-1,4.2-1
		c1.5,0,2.6,0.3,3.4,1s1.2,1.6,1.2,2.9v7.3H273.9z M273.1,52.8l-1.2,0c-0.9,0-1.5,0.2-1.9,0.5s-0.6,0.7-0.6,1.3
		c0,0.8,0.5,1.3,1.4,1.3c0.7,0,1.2-0.2,1.7-0.6s0.6-0.9,0.6-1.6V52.8z"/>
	<path class="st1" d="M291.9,54.6c0,1.1-0.4,2-1.2,2.6s-1.9,0.9-3.5,0.9c-0.8,0-1.5-0.1-2-0.2s-1.1-0.3-1.6-0.5V55
		c0.6,0.3,1.2,0.5,1.9,0.7s1.3,0.3,1.8,0.3c1.1,0,1.6-0.3,1.6-0.9c0-0.2-0.1-0.4-0.2-0.6s-0.4-0.3-0.7-0.5s-0.8-0.4-1.4-0.6
		c-0.8-0.4-1.5-0.7-1.9-1s-0.7-0.6-0.9-1s-0.3-0.9-0.3-1.4c0-1,0.4-1.7,1.1-2.3s1.8-0.8,3.2-0.8c1.3,0,2.6,0.3,3.8,0.9l-0.9,2.1
		c-0.5-0.2-1.1-0.4-1.5-0.6s-1-0.2-1.5-0.2c-0.9,0-1.3,0.2-1.3,0.7c0,0.3,0.1,0.5,0.4,0.7s0.9,0.5,1.9,0.9c0.9,0.3,1.5,0.7,1.9,1
		s0.7,0.6,0.9,1C291.8,53.6,291.9,54.1,291.9,54.6z"/>
	<path class="st1" d="M298.8,55.7c0.5,0,1.1-0.1,1.9-0.3v2.2c-0.7,0.3-1.7,0.5-2.7,0.5c-1.2,0-2.1-0.3-2.6-0.9s-0.8-1.5-0.8-2.7
		v-5.3h-1.4v-1.3l1.6-1l0.9-2.3h1.9v2.3h3.1v2.2h-3.1v5.3c0,0.4,0.1,0.7,0.4,0.9S298.4,55.7,298.8,55.7z"/>
	<path class="st1" d="M309,46.7c0.4,0,0.7,0,1,0.1l-0.2,2.8c-0.2-0.1-0.5-0.1-0.9-0.1c-1,0-1.7,0.2-2.2,0.7s-0.8,1.2-0.8,2.1v5.6h-3
		V46.9h2.3l0.4,1.8h0.1c0.3-0.6,0.8-1.1,1.4-1.5S308.3,46.7,309,46.7z"/>
	<path class="st1" d="M318.9,57.9l-0.6-1.5h-0.1c-0.5,0.6-1,1.1-1.5,1.3s-1.2,0.4-2.1,0.4c-1,0-1.9-0.3-2.5-0.9s-0.9-1.5-0.9-2.6
		c0-1.2,0.4-2,1.2-2.6s2-0.9,3.7-0.9l1.9-0.1v-0.5c0-1.1-0.6-1.7-1.7-1.7c-0.9,0-1.9,0.3-3.1,0.8l-1-2c1.3-0.7,2.6-1,4.2-1
		c1.5,0,2.6,0.3,3.4,1s1.2,1.6,1.2,2.9v7.3H318.9z M318,52.8l-1.2,0c-0.9,0-1.5,0.2-1.9,0.5s-0.6,0.7-0.6,1.3c0,0.8,0.5,1.3,1.4,1.3
		c0.7,0,1.2-0.2,1.7-0.6s0.6-0.9,0.6-1.6V52.8z"/>
	<path class="st1" d="M334.1,57.9h-3v-6.4c0-0.8-0.1-1.4-0.4-1.8s-0.7-0.6-1.3-0.6c-0.8,0-1.4,0.3-1.8,0.8s-0.6,1.5-0.6,2.8v5.1h-3
		V46.9h2.3l0.4,1.4h0.2c0.3-0.5,0.8-0.9,1.4-1.2s1.2-0.4,2-0.4c1.3,0,2.2,0.3,2.9,1s1,1.7,1,3V57.9z"/>
	<path class="st1" d="M346.7,46.9v1.5l-1.7,0.4c0.3,0.5,0.5,1,0.5,1.6c0,1.2-0.4,2.1-1.2,2.7s-2,1-3.4,1l-0.5,0l-0.4,0
		c-0.3,0.2-0.5,0.5-0.5,0.8c0,0.4,0.5,0.6,1.6,0.6h1.9c1.2,0,2.1,0.3,2.7,0.8s0.9,1.3,0.9,2.3c0,1.3-0.5,2.3-1.6,3s-2.6,1.1-4.6,1.1
		c-1.5,0-2.7-0.3-3.5-0.8s-1.2-1.3-1.2-2.2c0-0.7,0.2-1.2,0.6-1.7s1-0.8,1.8-0.9c-0.3-0.1-0.6-0.3-0.8-0.6s-0.3-0.6-0.3-0.9
		c0-0.4,0.1-0.8,0.4-1s0.6-0.5,1-0.8c-0.6-0.2-1-0.6-1.4-1.2s-0.5-1.2-0.5-1.9c0-1.2,0.4-2.1,1.2-2.8s1.9-1,3.3-1
		c0.3,0,0.7,0,1.1,0.1s0.7,0.1,0.8,0.1H346.7z M338.3,59.4c0,0.4,0.2,0.7,0.6,1s0.9,0.4,1.7,0.4c1.1,0,1.9-0.1,2.5-0.4
		s0.9-0.7,0.9-1.2c0-0.4-0.2-0.7-0.5-0.8s-0.9-0.2-1.7-0.2h-1.5c-0.5,0-1,0.1-1.4,0.4S338.3,59,338.3,59.4z M339.4,50.5
		c0,0.6,0.1,1.1,0.4,1.4s0.7,0.5,1.2,0.5c0.6,0,1-0.2,1.2-0.5s0.4-0.8,0.4-1.4c0-1.3-0.5-2-1.6-2C339.9,48.5,339.4,49.2,339.4,50.5z
		"/>
	<path class="st1" d="M353.4,58.1c-1.8,0-3.1-0.5-4.1-1.5s-1.5-2.3-1.5-4.1c0-1.8,0.5-3.2,1.4-4.2s2.2-1.5,3.8-1.5
		c1.5,0,2.7,0.4,3.6,1.3s1.3,2.1,1.3,3.6v1.4h-7c0,0.8,0.3,1.5,0.8,2s1.1,0.7,2,0.7c0.7,0,1.3-0.1,1.9-0.2s1.2-0.4,1.8-0.7v2.3
		c-0.5,0.3-1.1,0.5-1.7,0.6S354.3,58.1,353.4,58.1z M353,48.9c-0.6,0-1.1,0.2-1.5,0.6s-0.6,1-0.6,1.7h4.2c0-0.7-0.2-1.3-0.6-1.7
		S353.7,48.9,353,48.9z"/>
	<path class="st1" d="M366.4,46.7c0.4,0,0.7,0,1,0.1l-0.2,2.8c-0.2-0.1-0.5-0.1-0.9-0.1c-1,0-1.7,0.2-2.2,0.7s-0.8,1.2-0.8,2.1v5.6
		h-3V46.9h2.3l0.4,1.8h0.1c0.3-0.6,0.8-1.1,1.4-1.5S365.7,46.7,366.4,46.7z"/>
</g>
<rect x="-38.2" y="-101.5" class="st2" width="171.6" height="97"/>
<text transform="matrix(1 0 0 1 -15.9621 -86.319)"><tspan x="0" y="0" class="st1 st3 st4">Sharing your </tspan><tspan x="-6.7" y="24" class="st1 st3 st4">home address </tspan><tspan x="-12.8" y="48" class="st1 st3 st4">with a stranger</tspan></text>
<rect x="192.4" y="70.1" class="st2" width="171.6" height="97"/>
<text transform="matrix(1 0 0 1 210.1922 85.2889)"><tspan x="0" y="0" class="st1 st3 st4">Buying things </tspan><tspan x="2.8" y="24" class="st1 st3 st4">without your </tspan><tspan x="29.3" y="48" class="st1 st3 st4">parents</tspan></text>
<g>
	<path class="st1" d="M-73.5,157.9H-77l-3.7-6l-1.3,0.9v5.1h-3v-14.3h3v6.5l1.2-1.7l3.9-4.9h3.4l-5,6.3L-73.5,157.9z"/>
	<path class="st1" d="M-67,158.1c-1.8,0-3.1-0.5-4.1-1.5s-1.5-2.3-1.5-4.1c0-1.8,0.5-3.2,1.4-4.2s2.2-1.5,3.8-1.5
		c1.5,0,2.7,0.4,3.6,1.3s1.3,2.1,1.3,3.6v1.4h-7c0,0.8,0.3,1.5,0.8,2s1.1,0.7,2,0.7c0.7,0,1.3-0.1,1.9-0.2s1.2-0.4,1.8-0.7v2.3
		c-0.5,0.3-1.1,0.5-1.7,0.6S-66.2,158.1-67,158.1z M-67.4,148.9c-0.6,0-1.1,0.2-1.5,0.6s-0.6,1-0.6,1.7h4.2c0-0.7-0.2-1.3-0.6-1.7
		S-66.8,148.9-67.4,148.9z"/>
	<path class="st1" d="M-55.2,158.1c-1.8,0-3.1-0.5-4.1-1.5s-1.5-2.3-1.5-4.1c0-1.8,0.5-3.2,1.4-4.2s2.2-1.5,3.8-1.5
		c1.5,0,2.7,0.4,3.6,1.3s1.3,2.1,1.3,3.6v1.4h-7c0,0.8,0.3,1.5,0.8,2s1.1,0.7,2,0.7c0.7,0,1.3-0.1,1.9-0.2s1.2-0.4,1.8-0.7v2.3
		c-0.5,0.3-1.1,0.5-1.7,0.6S-54.3,158.1-55.2,158.1z M-55.6,148.9c-0.6,0-1.1,0.2-1.5,0.6s-0.6,1-0.6,1.7h4.2c0-0.7-0.2-1.3-0.6-1.7
		S-55,148.9-55.6,148.9z"/>
	<path class="st1" d="M-42.3,158.1c-1.3,0-2.3-0.5-3-1.4h-0.2c0.1,0.9,0.2,1.4,0.2,1.6v4.4h-3v-15.7h2.4l0.4,1.4h0.1
		c0.7-1.1,1.7-1.6,3.1-1.6c1.3,0,2.3,0.5,3,1.5s1.1,2.4,1.1,4.2c0,1.2-0.2,2.2-0.5,3s-0.8,1.5-1.5,2S-41.5,158.1-42.3,158.1z
		 M-43.2,149.1c-0.7,0-1.3,0.2-1.6,0.7s-0.5,1.2-0.5,2.2v0.3c0,1.2,0.2,2,0.5,2.5s0.9,0.8,1.7,0.8c1.3,0,2-1.1,2-3.3
		c0-1.1-0.2-1.9-0.5-2.4S-42.5,149.1-43.2,149.1z"/>
	<path class="st1" d="M-35.8,144.1c0-1,0.5-1.5,1.6-1.5s1.6,0.5,1.6,1.5c0,0.5-0.1,0.8-0.4,1.1s-0.7,0.4-1.2,0.4
		C-35.2,145.6-35.8,145.1-35.8,144.1z M-32.7,157.9h-3v-10.9h3V157.9z"/>
	<path class="st1" d="M-19.5,157.9h-3v-6.4c0-0.8-0.1-1.4-0.4-1.8s-0.7-0.6-1.3-0.6c-0.8,0-1.4,0.3-1.8,0.8s-0.6,1.5-0.6,2.8v5.1h-3
		v-10.9h2.3l0.4,1.4h0.2c0.3-0.5,0.8-0.9,1.4-1.2s1.2-0.4,2-0.4c1.3,0,2.2,0.3,2.9,1s1,1.7,1,3V157.9z"/>
	<path class="st1" d="M-6.9,146.9v1.5l-1.7,0.4c0.3,0.5,0.5,1,0.5,1.6c0,1.2-0.4,2.1-1.2,2.7s-2,1-3.4,1l-0.5,0l-0.4,0
		c-0.3,0.2-0.5,0.5-0.5,0.8c0,0.4,0.5,0.6,1.6,0.6h1.9c1.2,0,2.1,0.3,2.7,0.8s0.9,1.3,0.9,2.3c0,1.3-0.5,2.3-1.6,3s-2.6,1.1-4.6,1.1
		c-1.5,0-2.7-0.3-3.5-0.8s-1.2-1.3-1.2-2.2c0-0.7,0.2-1.2,0.6-1.7s1-0.8,1.8-0.9c-0.3-0.1-0.6-0.3-0.8-0.6s-0.3-0.6-0.3-0.9
		c0-0.4,0.1-0.8,0.4-1s0.6-0.5,1-0.8c-0.6-0.2-1-0.6-1.4-1.2s-0.5-1.2-0.5-1.9c0-1.2,0.4-2.1,1.2-2.8s1.9-1,3.3-1
		c0.3,0,0.7,0,1.1,0.1s0.7,0.1,0.8,0.1H-6.9z M-15.3,159.4c0,0.4,0.2,0.7,0.6,1s0.9,0.4,1.7,0.4c1.1,0,1.9-0.1,2.5-0.4
		s0.9-0.7,0.9-1.2c0-0.4-0.2-0.7-0.5-0.8s-0.9-0.2-1.7-0.2h-1.5c-0.5,0-1,0.1-1.4,0.4S-15.3,159-15.3,159.4z M-14.3,150.5
		c0,0.6,0.1,1.1,0.4,1.4s0.7,0.5,1.2,0.5c0.6,0,1-0.2,1.2-0.5s0.4-0.8,0.4-1.4c0-1.3-0.5-2-1.6-2C-13.7,148.5-14.3,149.2-14.3,150.5
		z"/>
	<path class="st1" d="M-1.5,146.9h3.3l2.1,6.1c0.2,0.5,0.3,1.2,0.4,1.9h0.1c0.1-0.7,0.2-1.3,0.4-1.9l2-6.1h3.2l-4.6,12.3
		c-0.4,1.1-1,2-1.8,2.6s-1.7,0.8-2.7,0.8c-0.5,0-1-0.1-1.5-0.2v-2.4c0.4,0.1,0.7,0.1,1.2,0.1c0.5,0,1-0.2,1.4-0.5s0.7-0.8,0.9-1.5
		l0.2-0.5L-1.5,146.9z"/>
	<path class="st1" d="M21.4,152.4c0,1.8-0.5,3.2-1.4,4.2s-2.2,1.5-3.9,1.5c-1,0-2-0.2-2.8-0.7s-1.4-1.1-1.8-2s-0.6-1.9-0.6-3
		c0-1.8,0.5-3.2,1.4-4.2s2.2-1.5,3.9-1.5c1,0,2,0.2,2.8,0.7s1.4,1.1,1.8,2S21.4,151.2,21.4,152.4z M13.8,152.4
		c0,1.1,0.2,1.9,0.5,2.5s0.9,0.8,1.7,0.8c0.8,0,1.4-0.3,1.7-0.8s0.5-1.4,0.5-2.5c0-1.1-0.2-1.9-0.5-2.4s-0.9-0.8-1.7-0.8
		c-0.8,0-1.4,0.3-1.7,0.8S13.8,151.3,13.8,152.4z"/>
	<path class="st1" d="M31.6,157.9l-0.4-1.4H31c-0.3,0.5-0.8,0.9-1.4,1.2s-1.3,0.4-2,0.4c-1.3,0-2.2-0.3-2.9-1s-1-1.7-1-3v-7.1h3v6.4
		c0,0.8,0.1,1.4,0.4,1.8s0.7,0.6,1.3,0.6c0.8,0,1.4-0.3,1.8-0.8s0.6-1.5,0.6-2.8v-5.1h3v10.9H31.6z"/>
	<path class="st1" d="M43.1,146.7c0.4,0,0.7,0,1,0.1l-0.2,2.8c-0.2-0.1-0.5-0.1-0.9-0.1c-1,0-1.7,0.2-2.2,0.7s-0.8,1.2-0.8,2.1v5.6
		h-3v-10.9h2.3l0.4,1.8h0.1c0.3-0.6,0.8-1.1,1.4-1.5S42.4,146.7,43.1,146.7z"/>
	<path class="st1" d="M-94.9,182.1c-1.3,0-2.3-0.5-3-1.4h-0.2c0.1,0.9,0.2,1.4,0.2,1.6v4.4h-3v-15.7h2.4l0.4,1.4h0.1
		c0.7-1.1,1.7-1.6,3.1-1.6c1.3,0,2.3,0.5,3,1.5c0.7,1,1.1,2.4,1.1,4.1c0,1.2-0.2,2.2-0.5,3s-0.8,1.5-1.5,2S-94.1,182.1-94.9,182.1z
		 M-95.8,173.1c-0.7,0-1.3,0.2-1.6,0.7c-0.3,0.5-0.5,1.2-0.5,2.2v0.3c0,1.2,0.2,2,0.5,2.5s0.9,0.8,1.7,0.8c1.3,0,2-1.1,2-3.3
		c0-1.1-0.2-1.9-0.5-2.4S-95.1,173.1-95.8,173.1z"/>
	<path class="st1" d="M-81.3,181.9l-0.6-1.5H-82c-0.5,0.6-1,1.1-1.5,1.3s-1.2,0.4-2.1,0.4c-1,0-1.9-0.3-2.5-0.9
		c-0.6-0.6-0.9-1.5-0.9-2.6c0-1.2,0.4-2,1.2-2.6c0.8-0.5,2-0.9,3.7-0.9l1.9-0.1v-0.5c0-1.1-0.6-1.7-1.7-1.7c-0.9,0-1.9,0.3-3.1,0.8
		l-1-2c1.3-0.7,2.6-1,4.2-1c1.5,0,2.6,0.3,3.4,1s1.2,1.6,1.2,2.9v7.3H-81.3z M-82.2,176.8l-1.2,0c-0.9,0-1.5,0.2-1.9,0.5
		c-0.4,0.3-0.6,0.7-0.6,1.3c0,0.8,0.5,1.3,1.4,1.3c0.7,0,1.2-0.2,1.7-0.6c0.4-0.4,0.6-0.9,0.6-1.6V176.8z"/>
	<path class="st1" d="M-68.6,178.6c0,1.1-0.4,2-1.2,2.6s-1.9,0.9-3.5,0.9c-0.8,0-1.5-0.1-2-0.2s-1.1-0.3-1.6-0.5V179
		c0.6,0.3,1.2,0.5,1.9,0.7s1.3,0.3,1.8,0.3c1.1,0,1.6-0.3,1.6-0.9c0-0.2-0.1-0.4-0.2-0.6s-0.4-0.3-0.7-0.5s-0.8-0.4-1.4-0.6
		c-0.8-0.4-1.5-0.7-1.9-1c-0.4-0.3-0.7-0.6-0.9-1c-0.2-0.4-0.3-0.9-0.3-1.4c0-1,0.4-1.7,1.1-2.3s1.8-0.8,3.2-0.8
		c1.3,0,2.6,0.3,3.8,0.9l-0.9,2.1c-0.5-0.2-1.1-0.4-1.5-0.6c-0.5-0.1-1-0.2-1.5-0.2c-0.9,0-1.3,0.2-1.3,0.7c0,0.3,0.1,0.5,0.4,0.7
		s0.9,0.5,1.9,0.9c0.9,0.3,1.5,0.7,1.9,1c0.4,0.3,0.7,0.6,0.9,1S-68.6,178.1-68.6,178.6z"/>
	<path class="st1" d="M-58.6,178.6c0,1.1-0.4,2-1.2,2.6s-1.9,0.9-3.5,0.9c-0.8,0-1.5-0.1-2-0.2s-1.1-0.3-1.6-0.5V179
		c0.6,0.3,1.2,0.5,1.9,0.7s1.3,0.3,1.8,0.3c1.1,0,1.6-0.3,1.6-0.9c0-0.2-0.1-0.4-0.2-0.6s-0.4-0.3-0.7-0.5s-0.8-0.4-1.4-0.6
		c-0.8-0.4-1.5-0.7-1.9-1c-0.4-0.3-0.7-0.6-0.9-1c-0.2-0.4-0.3-0.9-0.3-1.4c0-1,0.4-1.7,1.1-2.3s1.8-0.8,3.2-0.8
		c1.3,0,2.6,0.3,3.8,0.9l-0.9,2.1c-0.5-0.2-1.1-0.4-1.5-0.6c-0.5-0.1-1-0.2-1.5-0.2c-0.9,0-1.3,0.2-1.3,0.7c0,0.3,0.1,0.5,0.4,0.7
		s0.9,0.5,1.9,0.9c0.9,0.3,1.5,0.7,1.9,1c0.4,0.3,0.7,0.6,0.9,1S-58.6,178.1-58.6,178.6z"/>
	<path class="st1" d="M-47.3,181.9l-0.8-3.8l-1.1-4.8h-0.1l-2,8.6h-3.2l-3.1-10.9h3l1.3,4.8c0.2,0.9,0.4,2.1,0.6,3.6h0.1
		c0-0.5,0.1-1.3,0.3-2.4l0.2-0.8l1.3-5.2h3.3l1.3,5.2c0,0.1,0.1,0.4,0.1,0.6c0.1,0.3,0.1,0.6,0.2,0.9c0.1,0.3,0.1,0.6,0.1,0.9
		s0.1,0.5,0.1,0.7h0.1c0.1-0.5,0.2-1.1,0.3-1.9c0.1-0.8,0.3-1.4,0.3-1.7l1.3-4.8h2.9l-3.1,10.9H-47.3z"/>
	<path class="st1" d="M-29.3,176.4c0,1.8-0.5,3.2-1.4,4.2c-0.9,1-2.2,1.5-3.9,1.5c-1,0-2-0.2-2.8-0.7s-1.4-1.1-1.8-2s-0.6-1.9-0.6-3
		c0-1.8,0.5-3.2,1.4-4.2s2.2-1.5,3.9-1.5c1,0,2,0.2,2.8,0.7s1.4,1.1,1.8,2C-29.5,174.2-29.3,175.2-29.3,176.4z M-36.8,176.4
		c0,1.1,0.2,1.9,0.5,2.5c0.4,0.6,0.9,0.8,1.7,0.8c0.8,0,1.4-0.3,1.7-0.8c0.3-0.5,0.5-1.4,0.5-2.5c0-1.1-0.2-1.9-0.5-2.4
		c-0.4-0.5-0.9-0.8-1.7-0.8c-0.8,0-1.4,0.3-1.7,0.8S-36.8,175.3-36.8,176.4z"/>
	<path class="st1" d="M-20.7,170.7c0.4,0,0.7,0,1,0.1l-0.2,2.8c-0.2-0.1-0.5-0.1-0.9-0.1c-1,0-1.7,0.2-2.2,0.7s-0.8,1.2-0.8,2.1v5.6
		h-3v-10.9h2.3l0.4,1.8h0.1c0.3-0.6,0.8-1.1,1.4-1.5S-21.4,170.7-20.7,170.7z"/>
	<path class="st1" d="M-14.3,182.1c-1.3,0-2.3-0.5-3-1.5s-1.1-2.4-1.1-4.1c0-1.8,0.4-3.2,1.1-4.2s1.8-1.5,3.1-1.5
		c1.4,0,2.4,0.5,3.1,1.6h0.1c-0.1-0.8-0.2-1.5-0.2-2.2v-3.5h3v15.2h-2.3l-0.6-1.4h-0.1C-11.8,181.5-12.9,182.1-14.3,182.1z
		 M-13.2,179.7c0.8,0,1.3-0.2,1.7-0.7c0.4-0.4,0.5-1.2,0.6-2.3v-0.3c0-1.2-0.2-2-0.5-2.5s-0.9-0.8-1.8-0.8c-0.7,0-1.2,0.3-1.5,0.8
		c-0.4,0.6-0.6,1.4-0.6,2.5s0.2,1.9,0.6,2.4S-13.9,179.7-13.2,179.7z"/>
	<path class="st1" d="M7.8,178.6c0,1.1-0.4,2-1.2,2.6s-1.9,0.9-3.5,0.9c-0.8,0-1.5-0.1-2-0.2s-1.1-0.3-1.6-0.5V179
		c0.6,0.3,1.2,0.5,1.9,0.7s1.3,0.3,1.8,0.3c1.1,0,1.6-0.3,1.6-0.9c0-0.2-0.1-0.4-0.2-0.6s-0.4-0.3-0.7-0.5s-0.8-0.4-1.4-0.6
		c-0.8-0.4-1.5-0.7-1.9-1c-0.4-0.3-0.7-0.6-0.9-1c-0.2-0.4-0.3-0.9-0.3-1.4c0-1,0.4-1.7,1.1-2.3s1.8-0.8,3.2-0.8
		c1.3,0,2.6,0.3,3.8,0.9l-0.9,2.1c-0.5-0.2-1.1-0.4-1.5-0.6c-0.5-0.1-1-0.2-1.5-0.2c-0.9,0-1.3,0.2-1.3,0.7c0,0.3,0.1,0.5,0.4,0.7
		s0.9,0.5,1.9,0.9c0.9,0.3,1.5,0.7,1.9,1c0.4,0.3,0.7,0.6,0.9,1S7.8,178.1,7.8,178.6z"/>
	<path class="st1" d="M15,182.1c-1.8,0-3.1-0.5-4.1-1.5c-1-1-1.5-2.3-1.5-4.1c0-1.8,0.5-3.2,1.4-4.2s2.2-1.5,3.8-1.5
		c1.5,0,2.7,0.4,3.6,1.3s1.3,2.1,1.3,3.6v1.4h-7c0,0.8,0.3,1.5,0.8,2c0.5,0.5,1.1,0.7,2,0.7c0.7,0,1.3-0.1,1.9-0.2s1.2-0.4,1.8-0.7
		v2.3c-0.5,0.3-1.1,0.5-1.7,0.6S15.9,182.1,15,182.1z M14.6,172.9c-0.6,0-1.1,0.2-1.5,0.6c-0.4,0.4-0.6,1-0.6,1.7h4.2
		c0-0.7-0.2-1.3-0.6-1.7C15.7,173.1,15.2,172.9,14.6,172.9z"/>
	<path class="st1" d="M26.3,182.1c-3.4,0-5.1-1.9-5.1-5.6c0-1.9,0.5-3.3,1.4-4.3s2.2-1.5,4-1.5c1.3,0,2.4,0.2,3.4,0.7l-0.9,2.3
		c-0.5-0.2-0.9-0.3-1.3-0.5c-0.4-0.1-0.8-0.2-1.2-0.2c-1.5,0-2.3,1.1-2.3,3.3c0,2.1,0.8,3.2,2.3,3.2c0.6,0,1.1-0.1,1.6-0.2
		c0.5-0.2,1-0.4,1.5-0.7v2.5c-0.5,0.3-1,0.5-1.5,0.6S27.1,182.1,26.3,182.1z"/>
	<path class="st1" d="M38.3,170.7c0.4,0,0.7,0,1,0.1l-0.2,2.8c-0.2-0.1-0.5-0.1-0.9-0.1c-1,0-1.7,0.2-2.2,0.7s-0.8,1.2-0.8,2.1v5.6
		h-3v-10.9h2.3l0.4,1.8H35c0.3-0.6,0.8-1.1,1.4-1.5S37.6,170.7,38.3,170.7z"/>
	<path class="st1" d="M46.2,182.1c-1.8,0-3.1-0.5-4.1-1.5c-1-1-1.5-2.3-1.5-4.1c0-1.8,0.5-3.2,1.4-4.2s2.2-1.5,3.8-1.5
		c1.5,0,2.7,0.4,3.6,1.3s1.3,2.1,1.3,3.6v1.4h-7c0,0.8,0.3,1.5,0.8,2c0.5,0.5,1.1,0.7,2,0.7c0.7,0,1.3-0.1,1.9-0.2s1.2-0.4,1.8-0.7
		v2.3c-0.5,0.3-1.1,0.5-1.7,0.6S47,182.1,46.2,182.1z M45.8,172.9c-0.6,0-1.1,0.2-1.5,0.6c-0.4,0.4-0.6,1-0.6,1.7h4.2
		c0-0.7-0.2-1.3-0.6-1.7C46.9,173.1,46.4,172.9,45.8,172.9z"/>
	<path class="st1" d="M57.7,179.7c0.5,0,1.1-0.1,1.9-0.3v2.2c-0.7,0.3-1.7,0.5-2.7,0.5c-1.2,0-2.1-0.3-2.6-0.9
		c-0.5-0.6-0.8-1.5-0.8-2.7v-5.3H52v-1.3l1.6-1l0.9-2.3h1.9v2.3h3.1v2.2h-3.1v5.3c0,0.4,0.1,0.7,0.4,0.9
		C57,179.6,57.3,179.7,57.7,179.7z"/>
</g>
<g>
	<path class="st1" d="M23.5,39.4c-1.1,0-2,0.4-2.6,1.3s-0.9,2-0.9,3.6c0,3.2,1.2,4.8,3.6,4.8c1,0,2.2-0.3,3.6-0.8v2.5
		c-1.2,0.5-2.5,0.7-3.9,0.7c-2.1,0-3.7-0.6-4.8-1.9s-1.7-3.1-1.7-5.4c0-1.5,0.3-2.8,0.8-3.9s1.3-2,2.3-2.6s2.2-0.9,3.6-0.9
		c1.4,0,2.8,0.3,4.2,1l-1,2.5c-0.5-0.3-1.1-0.5-1.6-0.7S24.1,39.4,23.5,39.4z"/>
	<path class="st1" d="M36.9,51.3l-0.6-1.5h-0.1c-0.5,0.6-1,1.1-1.5,1.3s-1.2,0.4-2.1,0.4c-1,0-1.9-0.3-2.5-0.9s-0.9-1.5-0.9-2.6
		c0-1.2,0.4-2,1.2-2.6s2-0.9,3.7-0.9l1.9-0.1v-0.5c0-1.1-0.6-1.7-1.7-1.7c-0.9,0-1.9,0.3-3.1,0.8l-1-2c1.3-0.7,2.6-1,4.2-1
		c1.5,0,2.6,0.3,3.4,1s1.2,1.6,1.2,2.9v7.3H36.9z M36,46.3l-1.2,0c-0.9,0-1.5,0.2-1.9,0.5s-0.6,0.7-0.6,1.3c0,0.8,0.5,1.3,1.4,1.3
		c0.7,0,1.2-0.2,1.7-0.6s0.6-0.9,0.6-1.6V46.3z"/>
	<path class="st1" d="M45,51.3h-3V36.1h3V51.3z"/>
	<path class="st1" d="M51.1,51.3h-3V36.1h3V51.3z"/>
	<path class="st1" d="M54.1,37.6c0-1,0.5-1.5,1.6-1.5s1.6,0.5,1.6,1.5c0,0.5-0.1,0.8-0.4,1.1s-0.7,0.4-1.2,0.4
		C54.7,39.1,54.1,38.6,54.1,37.6z M57.2,51.3h-3V40.4h3V51.3z"/>
	<path class="st1" d="M70.5,51.3h-3V45c0-0.8-0.1-1.4-0.4-1.8s-0.7-0.6-1.3-0.6c-0.8,0-1.4,0.3-1.8,0.8s-0.6,1.5-0.6,2.8v5.1h-3
		V40.4h2.3l0.4,1.4h0.2c0.3-0.5,0.8-0.9,1.4-1.2s1.2-0.4,2-0.4c1.3,0,2.2,0.3,2.9,1s1,1.7,1,3V51.3z"/>
	<path class="st1" d="M83,40.4v1.5l-1.7,0.4c0.3,0.5,0.5,1,0.5,1.6c0,1.2-0.4,2.1-1.2,2.7s-2,1-3.4,1l-0.5,0l-0.4,0
		c-0.3,0.2-0.5,0.5-0.5,0.8c0,0.4,0.5,0.6,1.6,0.6h1.9c1.2,0,2.1,0.3,2.7,0.8s0.9,1.3,0.9,2.3c0,1.3-0.5,2.3-1.6,3s-2.6,1.1-4.6,1.1
		c-1.5,0-2.7-0.3-3.5-0.8S72,54.1,72,53.1c0-0.7,0.2-1.2,0.6-1.7s1-0.8,1.8-0.9c-0.3-0.1-0.6-0.3-0.8-0.6s-0.3-0.6-0.3-0.9
		c0-0.4,0.1-0.8,0.4-1s0.6-0.5,1-0.8c-0.6-0.2-1-0.6-1.4-1.2s-0.5-1.2-0.5-1.9c0-1.2,0.4-2.1,1.2-2.8s1.9-1,3.3-1
		c0.3,0,0.7,0,1.1,0.1s0.7,0.1,0.8,0.1H83z M74.6,52.9c0,0.4,0.2,0.7,0.6,1s0.9,0.4,1.7,0.4c1.1,0,1.9-0.1,2.5-0.4s0.9-0.7,0.9-1.2
		c0-0.4-0.2-0.7-0.5-0.8s-0.9-0.2-1.7-0.2h-1.5c-0.5,0-1,0.1-1.4,0.4S74.6,52.5,74.6,52.9z M75.7,44c0,0.6,0.1,1.1,0.4,1.4
		s0.7,0.5,1.2,0.5c0.6,0,1-0.2,1.2-0.5s0.4-0.8,0.4-1.4c0-1.3-0.5-2-1.6-2C76.2,42,75.7,42.7,75.7,44z"/>
	<path class="st1" d="M88.4,40.4h3.3l2.1,6.1c0.2,0.5,0.3,1.2,0.4,1.9h0.1c0.1-0.7,0.2-1.3,0.4-1.9l2-6.1h3.2l-4.6,12.3
		c-0.4,1.1-1,2-1.8,2.6s-1.7,0.8-2.7,0.8c-0.5,0-1-0.1-1.5-0.2v-2.4c0.4,0.1,0.7,0.1,1.2,0.1c0.5,0,1-0.2,1.4-0.5s0.7-0.8,0.9-1.5
		l0.2-0.5L88.4,40.4z"/>
	<path class="st1" d="M111.3,45.9c0,1.8-0.5,3.2-1.4,4.2s-2.2,1.5-3.9,1.5c-1,0-2-0.2-2.8-0.7s-1.4-1.1-1.8-2s-0.6-1.9-0.6-3
		c0-1.8,0.5-3.2,1.4-4.2s2.2-1.5,3.9-1.5c1,0,2,0.2,2.8,0.7s1.4,1.1,1.8,2S111.3,44.7,111.3,45.9z M103.8,45.9
		c0,1.1,0.2,1.9,0.5,2.5s0.9,0.8,1.7,0.8c0.8,0,1.4-0.3,1.7-0.8s0.5-1.4,0.5-2.5c0-1.1-0.2-1.9-0.5-2.4s-0.9-0.8-1.7-0.8
		c-0.8,0-1.4,0.3-1.7,0.8S103.8,44.8,103.8,45.9z"/>
	<path class="st1" d="M121.5,51.3l-0.4-1.4h-0.2c-0.3,0.5-0.8,0.9-1.4,1.2s-1.3,0.4-2,0.4c-1.3,0-2.2-0.3-2.9-1s-1-1.7-1-3v-7.1h3
		v6.4c0,0.8,0.1,1.4,0.4,1.8s0.7,0.6,1.3,0.6c0.8,0,1.4-0.3,1.8-0.8s0.6-1.5,0.6-2.8v-5.1h3v10.9H121.5z"/>
	<path class="st1" d="M133,40.2c0.4,0,0.7,0,1,0.1l-0.2,2.8c-0.2-0.1-0.5-0.1-0.9-0.1c-1,0-1.7,0.2-2.2,0.7s-0.8,1.2-0.8,2.1v5.6h-3
		V40.4h2.3l0.4,1.8h0.1c0.3-0.6,0.8-1.1,1.4-1.5S132.3,40.2,133,40.2z"/>
	<path class="st1" d="M147.3,40.2c1.3,0,2.3,0.5,3,1.5s1.1,2.4,1.1,4.1c0,1.8-0.4,3.2-1.1,4.2s-1.8,1.5-3.1,1.5
		c-1.3,0-2.3-0.5-3-1.4H144l-0.5,1.2h-2.3V36.1h3v3.5c0,0.4,0,1.2-0.1,2.2h0.1C144.9,40.8,145.9,40.2,147.3,40.2z M146.3,42.6
		c-0.7,0-1.3,0.2-1.6,0.7s-0.5,1.2-0.5,2.2v0.3c0,1.2,0.2,2,0.5,2.5s0.9,0.8,1.7,0.8c0.6,0,1.1-0.3,1.5-0.8s0.5-1.4,0.5-2.5
		s-0.2-1.9-0.5-2.4S146.9,42.6,146.3,42.6z"/>
	<path class="st1" d="M158.8,51.5c-1.8,0-3.1-0.5-4.1-1.5s-1.5-2.3-1.5-4.1c0-1.8,0.5-3.2,1.4-4.2s2.2-1.5,3.8-1.5
		c1.5,0,2.7,0.4,3.6,1.3s1.3,2.1,1.3,3.6v1.4h-7c0,0.8,0.3,1.5,0.8,2s1.1,0.7,2,0.7c0.7,0,1.3-0.1,1.9-0.2s1.2-0.4,1.8-0.7v2.3
		c-0.5,0.3-1.1,0.5-1.7,0.6S159.6,51.5,158.8,51.5z M158.4,42.3c-0.6,0-1.1,0.2-1.5,0.6s-0.6,1-0.6,1.7h4.2c0-0.7-0.2-1.3-0.6-1.7
		S159,42.3,158.4,42.3z"/>
	<path class="st1" d="M173.3,48.1c0,1.1-0.4,2-1.2,2.6s-1.9,0.9-3.5,0.9c-0.8,0-1.5-0.1-2-0.2s-1.1-0.3-1.6-0.5v-2.5
		c0.6,0.3,1.2,0.5,1.9,0.7s1.3,0.3,1.8,0.3c1.1,0,1.6-0.3,1.6-0.9c0-0.2-0.1-0.4-0.2-0.6s-0.4-0.3-0.7-0.5s-0.8-0.4-1.4-0.6
		c-0.8-0.4-1.5-0.7-1.9-1s-0.7-0.6-0.9-1s-0.3-0.9-0.3-1.4c0-1,0.4-1.7,1.1-2.3s1.8-0.8,3.2-0.8c1.3,0,2.6,0.3,3.8,0.9l-0.9,2.1
		c-0.5-0.2-1.1-0.4-1.5-0.6s-1-0.2-1.5-0.2c-0.9,0-1.3,0.2-1.3,0.7c0,0.3,0.1,0.5,0.4,0.7s0.9,0.5,1.9,0.9c0.9,0.3,1.5,0.7,1.9,1
		s0.7,0.6,0.9,1S173.3,47.6,173.3,48.1z"/>
	<path class="st1" d="M180.2,49.2c0.5,0,1.1-0.1,1.9-0.3V51c-0.7,0.3-1.7,0.5-2.7,0.5c-1.2,0-2.1-0.3-2.6-0.9s-0.8-1.5-0.8-2.7v-5.3
		h-1.4v-1.3l1.6-1l0.9-2.3h1.9v2.3h3.1v2.2h-3.1v5.3c0,0.4,0.1,0.7,0.4,0.9S179.8,49.2,180.2,49.2z"/>
	<path class="st1" d="M31.4,66.7h-2.6v8.7h-3v-8.7h-1.6v-1.4l1.6-0.8v-0.8c0-1.2,0.3-2.2,0.9-2.7s1.6-0.9,2.9-0.9
		c1,0,1.9,0.2,2.7,0.5l-0.8,2.2c-0.6-0.2-1.2-0.3-1.7-0.3c-0.4,0-0.7,0.1-0.9,0.4s-0.3,0.6-0.3,1v0.7h2.6V66.7z"/>
	<path class="st1" d="M39.2,64.2c0.4,0,0.7,0,1,0.1L40,67.1C39.7,67,39.4,67,39.1,67c-1,0-1.7,0.2-2.2,0.7s-0.8,1.2-0.8,2.1v5.6h-3
		V64.4h2.3l0.4,1.8h0.1c0.3-0.6,0.8-1.1,1.4-1.5C37.9,64.4,38.5,64.2,39.2,64.2z"/>
	<path class="st1" d="M42.1,61.6c0-1,0.5-1.5,1.6-1.5s1.6,0.5,1.6,1.5c0,0.5-0.1,0.8-0.4,1.1s-0.7,0.4-1.2,0.4
		C42.6,63.1,42.1,62.6,42.1,61.6z M45.2,75.3h-3V64.4h3V75.3z"/>
	<path class="st1" d="M53.2,75.5c-1.8,0-3.1-0.5-4.1-1.5c-1-1-1.5-2.3-1.5-4.1c0-1.8,0.5-3.2,1.4-4.2c0.9-1,2.2-1.5,3.8-1.5
		c1.5,0,2.7,0.4,3.6,1.3s1.3,2.1,1.3,3.6v1.4h-7c0,0.8,0.3,1.5,0.8,2c0.5,0.5,1.1,0.7,2,0.7c0.7,0,1.3-0.1,1.9-0.2s1.2-0.4,1.8-0.7
		v2.3c-0.5,0.3-1.1,0.5-1.7,0.6S54.1,75.5,53.2,75.5z M52.8,66.3c-0.6,0-1.1,0.2-1.5,0.6s-0.6,1-0.6,1.7h4.2c0-0.7-0.2-1.3-0.6-1.7
		S53.4,66.3,52.8,66.3z"/>
	<path class="st1" d="M70.2,75.3h-3V69c0-0.8-0.1-1.4-0.4-1.8c-0.3-0.4-0.7-0.6-1.3-0.6c-0.8,0-1.4,0.3-1.8,0.8s-0.6,1.5-0.6,2.8
		v5.1h-3V64.4h2.3l0.4,1.4H63c0.3-0.5,0.8-0.9,1.4-1.2c0.6-0.3,1.2-0.4,2-0.4c1.3,0,2.2,0.3,2.9,1c0.7,0.7,1,1.7,1,3V75.3z"/>
	<path class="st1" d="M76.7,75.5c-1.3,0-2.3-0.5-3-1.5s-1.1-2.4-1.1-4.1c0-1.8,0.4-3.2,1.1-4.2c0.7-1,1.8-1.5,3.1-1.5
		c1.4,0,2.4,0.5,3.1,1.6H80c-0.1-0.8-0.2-1.5-0.2-2.2v-3.5h3v15.2h-2.3l-0.6-1.4h-0.1C79.1,75,78.1,75.5,76.7,75.5z M77.8,73.2
		c0.8,0,1.3-0.2,1.7-0.7c0.4-0.4,0.5-1.2,0.6-2.3v-0.3c0-1.2-0.2-2-0.5-2.5s-0.9-0.8-1.8-0.8c-0.7,0-1.2,0.3-1.5,0.8
		c-0.4,0.6-0.6,1.4-0.6,2.5s0.2,1.9,0.6,2.4S77.1,73.2,77.8,73.2z"/>
	<path class="st1" d="M101,69.9c0,1.8-0.5,3.2-1.4,4.2c-0.9,1-2.2,1.5-3.9,1.5c-1,0-2-0.2-2.8-0.7s-1.4-1.1-1.8-2s-0.6-1.9-0.6-3
		c0-1.8,0.5-3.2,1.4-4.2c0.9-1,2.2-1.5,3.9-1.5c1,0,2,0.2,2.8,0.7c0.8,0.5,1.4,1.1,1.8,2C100.8,67.7,101,68.7,101,69.9z M93.5,69.9
		c0,1.1,0.2,1.9,0.5,2.5c0.4,0.6,0.9,0.8,1.7,0.8c0.8,0,1.4-0.3,1.7-0.8c0.3-0.5,0.5-1.4,0.5-2.5c0-1.1-0.2-1.9-0.5-2.4
		c-0.4-0.5-0.9-0.8-1.7-0.8c-0.8,0-1.4,0.3-1.7,0.8S93.5,68.8,93.5,69.9z"/>
	<path class="st1" d="M113.6,75.3h-3V69c0-0.8-0.1-1.4-0.4-1.8c-0.3-0.4-0.7-0.6-1.3-0.6c-0.8,0-1.4,0.3-1.8,0.8s-0.6,1.5-0.6,2.8
		v5.1h-3V64.4h2.3l0.4,1.4h0.2c0.3-0.5,0.8-0.9,1.4-1.2c0.6-0.3,1.2-0.4,2-0.4c1.3,0,2.2,0.3,2.9,1c0.7,0.7,1,1.7,1,3V75.3z"/>
	<path class="st1" d="M124.4,75.3l-4.2-10.9h3.1l2.1,6.2c0.2,0.8,0.4,1.5,0.4,2.2h0.1c0-0.6,0.2-1.4,0.4-2.2l2.1-6.2h3.1l-4.2,10.9
		H124.4z"/>
	<path class="st1" d="M133.1,61.6c0-1,0.5-1.5,1.6-1.5s1.6,0.5,1.6,1.5c0,0.5-0.1,0.8-0.4,1.1s-0.7,0.4-1.2,0.4
		C133.6,63.1,133.1,62.6,133.1,61.6z M136.2,75.3h-3V64.4h3V75.3z"/>
	<path class="st1" d="M142.8,75.5c-1.3,0-2.3-0.5-3-1.5s-1.1-2.4-1.1-4.1c0-1.8,0.4-3.2,1.1-4.2c0.7-1,1.8-1.5,3.1-1.5
		c1.4,0,2.4,0.5,3.1,1.6h0.1c-0.1-0.8-0.2-1.5-0.2-2.2v-3.5h3v15.2h-2.3l-0.6-1.4h-0.1C145.2,75,144.2,75.5,142.8,75.5z M143.8,73.2
		c0.8,0,1.3-0.2,1.7-0.7c0.4-0.4,0.5-1.2,0.6-2.3v-0.3c0-1.2-0.2-2-0.5-2.5s-0.9-0.8-1.8-0.8c-0.7,0-1.2,0.3-1.5,0.8
		c-0.4,0.6-0.6,1.4-0.6,2.5s0.2,1.9,0.6,2.4S143.1,73.2,143.8,73.2z"/>
	<path class="st1" d="M156.9,75.5c-1.8,0-3.1-0.5-4.1-1.5c-1-1-1.5-2.3-1.5-4.1c0-1.8,0.5-3.2,1.4-4.2c0.9-1,2.2-1.5,3.8-1.5
		c1.5,0,2.7,0.4,3.6,1.3s1.3,2.1,1.3,3.6v1.4h-7c0,0.8,0.3,1.5,0.8,2c0.5,0.5,1.1,0.7,2,0.7c0.7,0,1.3-0.1,1.9-0.2s1.2-0.4,1.8-0.7
		v2.3c-0.5,0.3-1.1,0.5-1.7,0.6S157.8,75.5,156.9,75.5z M156.5,66.3c-0.6,0-1.1,0.2-1.5,0.6s-0.6,1-0.6,1.7h4.2
		c0-0.7-0.2-1.3-0.6-1.7S157.1,66.3,156.5,66.3z"/>
	<path class="st1" d="M173.7,69.9c0,1.8-0.5,3.2-1.4,4.2c-0.9,1-2.2,1.5-3.9,1.5c-1,0-2-0.2-2.8-0.7s-1.4-1.1-1.8-2s-0.6-1.9-0.6-3
		c0-1.8,0.5-3.2,1.4-4.2c0.9-1,2.2-1.5,3.9-1.5c1,0,2,0.2,2.8,0.7c0.8,0.5,1.4,1.1,1.8,2C173.5,67.7,173.7,68.7,173.7,69.9z
		 M166.2,69.9c0,1.1,0.2,1.9,0.5,2.5c0.4,0.6,0.9,0.8,1.7,0.8c0.8,0,1.4-0.3,1.7-0.8c0.3-0.5,0.5-1.4,0.5-2.5c0-1.1-0.2-1.9-0.5-2.4
		c-0.4-0.5-0.9-0.8-1.7-0.8c-0.8,0-1.4,0.3-1.7,0.8S166.2,68.8,166.2,69.9z"/>
</g>
</svg>
