<?xml version="1.0" encoding="utf-8"?>
<!-- Generator: Adobe Illustrator 25.4.1, SVG Export Plug-In . SVG Version: 6.00 Build 0)  -->
<svg version="1.1" id="Layer_1" xmlns="http://www.w3.org/2000/svg" xmlns:xlink="http://www.w3.org/1999/xlink" x="0px" y="0px"
	 viewBox="0 0 198.4 127.6" style="enable-background:new 0 0 198.4 127.6;" xml:space="preserve">
<style type="text/css">
	.st0{fill:#107DC1;}
	.st1{fill:#FFFFFF;}
</style>
<path class="st0" d="M184.7,118.6h-171c-6.6,0-12-5.4-12-12V13.9c0-6.6,5.4-12,12-12h171c6.6,0,12,5.4,12,12v92.7
	C196.7,113.2,191.3,118.6,184.7,118.6z"/>
<g>
	<path class="st1" d="M167.2-78.8c0,2.4-0.6,4.2-1.8,5.4c-1.2,1.2-2.9,1.9-5,1.9c-2.1,0-3.9-0.6-5-1.9c-1.1-1.3-1.8-3.1-1.8-5.5
		s0.6-4.2,1.8-5.4c1.2-1.2,2.9-1.9,5.1-1.9c2.2,0,3.9,0.6,5,1.9C166.6-83,167.2-81.2,167.2-78.8z M156.8-78.8c0,1.6,0.3,2.8,0.9,3.6
		c0.6,0.8,1.5,1.2,2.7,1.2c2.4,0,3.6-1.6,3.6-4.8c0-3.2-1.2-4.8-3.6-4.8c-1.2,0-2.1,0.4-2.7,1.2C157.1-81.6,156.8-80.4,156.8-78.8z"
		/>
	<path class="st1" d="M175.9-71.4c-1.3,0-2.3-0.5-3-1.4h-0.2c0.1,0.9,0.2,1.4,0.2,1.6v4.4h-3v-15.8h2.4l0.4,1.4h0.1
		c0.7-1.1,1.7-1.6,3.1-1.6c1.3,0,2.3,0.5,3,1.5c0.7,1,1.1,2.4,1.1,4.2c0,1.2-0.2,2.2-0.5,3c-0.3,0.8-0.8,1.5-1.5,2
		C177.3-71.6,176.8-71.4,175.9-71.4z M175.1-80.4c-0.7,0-1.3,0.2-1.6,0.7c-0.3,0.5-0.5,1.2-0.5,2.2v0.3c0,1.2,0.2,2,0.5,2.5
		c0.3,0.5,0.9,0.8,1.7,0.8c1.3,0,2-1.1,2-3.3c0-1.1-0.2-1.9-0.5-2.4C176.4-80.1,175.8-80.4,175.1-80.4z"/>
	<path class="st1" d="M187.5-71.4c-1.8,0-3.1-0.5-4.1-1.5s-1.5-2.3-1.5-4.1c0-1.8,0.5-3.2,1.4-4.2c0.9-1,2.2-1.5,3.8-1.5
		c1.5,0,2.7,0.4,3.6,1.3c0.9,0.9,1.3,2.1,1.3,3.6v1.4h-7c0,0.8,0.3,1.5,0.8,2s1.1,0.7,2,0.7c0.7,0,1.3-0.1,1.9-0.2
		c0.6-0.1,1.2-0.4,1.8-0.7v2.3c-0.5,0.3-1.1,0.5-1.7,0.6S188.4-71.4,187.5-71.4z M187.1-80.6c-0.6,0-1.1,0.2-1.5,0.6
		c-0.4,0.4-0.6,1-0.6,1.7h4.2c0-0.7-0.2-1.3-0.6-1.7S187.8-80.6,187.1-80.6z"/>
	<path class="st1" d="M204.5-71.6h-3V-78c0-0.8-0.1-1.4-0.4-1.8c-0.3-0.4-0.7-0.6-1.3-0.6c-0.8,0-1.4,0.3-1.8,0.8
		c-0.4,0.5-0.6,1.5-0.6,2.8v5.1h-3v-10.9h2.3l0.4,1.4h0.2c0.3-0.5,0.8-0.9,1.4-1.2c0.6-0.3,1.2-0.4,2-0.4c1.3,0,2.2,0.3,2.9,1
		s1,1.7,1,3v7.2H204.5z"/>
	<path class="st1" d="M207.4-85.4c0-1,0.5-1.5,1.6-1.5c1.1,0,1.6,0.5,1.6,1.5c0,0.5-0.1,0.8-0.4,1.1c-0.3,0.3-0.7,0.4-1.2,0.4
		C208-83.9,207.4-84.4,207.4-85.4z M210.5-71.6h-3v-11h3V-71.6z"/>
	<path class="st1" d="M223.7-71.6h-3V-78c0-0.8-0.1-1.4-0.4-1.8c-0.3-0.4-0.7-0.6-1.3-0.6c-0.8,0-1.4,0.3-1.8,0.8
		c-0.4,0.5-0.6,1.5-0.6,2.8v5.1h-3v-10.9h2.3l0.4,1.4h0.2c0.3-0.5,0.8-0.9,1.4-1.2c0.6-0.3,1.2-0.4,2-0.4c1.3,0,2.2,0.3,2.9,1
		c0.7,0.7,1,1.7,1,3v7.2H223.7z"/>
	<path class="st1" d="M236.3-82.6v1.5l-1.7,0.4c0.3,0.5,0.5,1,0.5,1.6c0,1.2-0.4,2.1-1.2,2.7c-0.8,0.6-2,1-3.4,1H230h-0.4
		c-0.4,0.3-0.6,0.6-0.6,0.9c0,0.4,0.5,0.6,1.6,0.6h1.9c1.2,0,2.1,0.3,2.7,0.8c0.6,0.5,0.9,1.3,0.9,2.3c0,1.3-0.5,2.3-1.6,3
		c-1.1,0.7-2.5,1-4.5,1c-1.5,0-2.7-0.3-3.5-0.8s-1.2-1.3-1.2-2.2c0-0.7,0.2-1.2,0.6-1.7c0.4-0.5,1-0.8,1.8-0.9
		c-0.3-0.1-0.6-0.3-0.8-0.6c-0.2-0.3-0.3-0.6-0.3-0.9c0-0.4,0.1-0.8,0.4-1c0.3-0.2,0.6-0.5,1-0.8c-0.6-0.2-1-0.6-1.4-1.2
		c-0.4-0.6-0.5-1.2-0.5-1.9c0-1.2,0.4-2.1,1.2-2.8c0.8-0.7,1.9-1,3.3-1c0.3,0,0.7,0,1.1,0.1c0.4,0.1,0.7,0.1,0.8,0.1h3.8V-82.6z
		 M227.9-70.1c0,0.4,0.2,0.7,0.6,1c0.4,0.3,0.9,0.4,1.7,0.4c1.1,0,1.9-0.1,2.5-0.4c0.6-0.3,0.9-0.7,0.9-1.2c0-0.4-0.2-0.7-0.5-0.8
		s-0.9-0.2-1.7-0.2h-1.5c-0.5,0-1,0.1-1.4,0.4C228.1-70.6,227.9-70.5,227.9-70.1z M229-79c0,0.6,0.1,1.1,0.4,1.4s0.7,0.5,1.2,0.5
		c0.6,0,1-0.2,1.2-0.5c0.2-0.3,0.4-0.8,0.4-1.4c0-1.3-0.5-2-1.6-2C229.5-81,229-80.3,229-79z"/>
	<path class="st1" d="M250.2-71.6l-0.6-1.5h-0.1c-0.5,0.6-1,1.1-1.5,1.3c-0.5,0.2-1.2,0.4-2.1,0.4c-1,0-1.9-0.3-2.5-0.9
		c-0.6-0.6-0.9-1.5-0.9-2.6c0-1.2,0.4-2,1.2-2.6c0.8-0.6,2-0.9,3.7-0.9l1.9-0.1V-79c0-1.1-0.6-1.7-1.7-1.7c-0.9,0-1.9,0.3-3.1,0.8
		l-1-2c1.3-0.7,2.6-1,4.2-1c1.5,0,2.6,0.3,3.4,1c0.8,0.7,1.2,1.6,1.2,2.9v7.3L250.2-71.6L250.2-71.6z M249.4-76.7h-1.2
		c-0.9,0-1.5,0.2-1.9,0.5c-0.4,0.3-0.6,0.7-0.6,1.3c0,0.8,0.5,1.3,1.4,1.3c0.7,0,1.2-0.2,1.7-0.6c0.5-0.4,0.6-0.9,0.6-1.6V-76.7z"/>
	<path class="st1" d="M265.5-71.6h-3V-78c0-0.8-0.1-1.4-0.4-1.8c-0.3-0.4-0.7-0.6-1.3-0.6c-0.8,0-1.4,0.3-1.8,0.8
		c-0.4,0.5-0.6,1.5-0.6,2.8v5.1h-3v-10.9h2.3l0.4,1.4h0.2c0.3-0.5,0.8-0.9,1.4-1.2c0.6-0.3,1.2-0.4,2-0.4c1.3,0,2.2,0.3,2.9,1
		c0.7,0.7,1,1.7,1,3L265.5-71.6L265.5-71.6z"/>
	<path class="st1" d="M278.7-71.4c-1.8,0-3.1-0.5-4.1-1.5s-1.5-2.3-1.5-4.1c0-1.8,0.5-3.2,1.4-4.2s2.2-1.5,3.8-1.5
		c1.5,0,2.7,0.4,3.6,1.3c0.9,0.9,1.3,2.1,1.3,3.6v1.4h-7c0,0.8,0.3,1.5,0.8,2s1.1,0.7,2,0.7c0.7,0,1.3-0.1,1.9-0.2
		c0.6-0.1,1.2-0.4,1.8-0.7v2.3c-0.5,0.3-1.1,0.5-1.7,0.6C280.4-71.6,279.5-71.4,278.7-71.4z M278.2-80.6c-0.6,0-1.1,0.2-1.5,0.6
		c-0.4,0.4-0.6,1-0.6,1.7h4.2c0-0.7-0.2-1.3-0.6-1.7C279.3-80.4,278.9-80.6,278.2-80.6z"/>
	<path class="st1" d="M295.3-71.6h-3V-78c0-0.8-0.1-1.4-0.4-1.8c-0.3-0.4-0.7-0.6-1.2-0.6c-0.8,0-1.3,0.3-1.7,0.8s-0.5,1.5-0.5,2.8
		v5.1h-3v-10.9h2.3l0.4,1.4h0.2c0.3-0.5,0.7-0.9,1.3-1.2c0.6-0.3,1.2-0.4,1.9-0.4c1.6,0,2.7,0.5,3.3,1.6h0.3
		c0.3-0.5,0.7-0.9,1.3-1.2c0.6-0.3,1.2-0.4,1.9-0.4c1.2,0,2.2,0.3,2.8,1s1,1.7,1,3.1v7.1h-3V-78c0-0.8-0.1-1.4-0.4-1.8
		c-0.3-0.4-0.7-0.6-1.2-0.6c-0.7,0-1.3,0.3-1.6,0.8c-0.3,0.5-0.5,1.3-0.5,2.5v5.5H295.3z"/>
	<path class="st1" d="M312.1-71.6l-0.6-1.5h-0.1c-0.5,0.6-1,1.1-1.5,1.3c-0.5,0.2-1.2,0.4-2.1,0.4c-1,0-1.9-0.3-2.5-0.9
		c-0.6-0.6-0.9-1.5-0.9-2.6c0-1.2,0.4-2,1.2-2.6c0.8-0.6,2-0.9,3.7-0.9l1.9-0.1V-79c0-1.1-0.6-1.7-1.7-1.7c-0.9,0-1.9,0.3-3.1,0.8
		l-1-2c1.3-0.7,2.6-1,4.2-1c1.5,0,2.6,0.3,3.4,1c0.8,0.7,1.2,1.6,1.2,2.9v7.3L312.1-71.6L312.1-71.6z M311.2-76.7H310
		c-0.9,0-1.5,0.2-1.9,0.5c-0.4,0.3-0.6,0.7-0.6,1.3c0,0.8,0.5,1.3,1.4,1.3c0.7,0,1.2-0.2,1.7-0.6c0.5-0.4,0.6-0.9,0.6-1.6V-76.7z"/>
	<path class="st1" d="M317.1-85.4c0-1,0.5-1.5,1.6-1.5s1.6,0.5,1.6,1.5c0,0.5-0.1,0.8-0.4,1.1c-0.3,0.3-0.7,0.4-1.2,0.4
		C317.7-83.9,317.1-84.4,317.1-85.4z M320.2-71.6h-3v-11h3V-71.6z"/>
	<path class="st1" d="M326.3-71.6h-3v-15.2h3V-71.6z"/>
	<path class="st1" d="M175.2-56.3h-2.6v8.7h-3v-8.7H168v-1.5l1.6-0.8v-0.8c0-1.2,0.3-2.2,0.9-2.7c0.6-0.5,1.6-0.9,2.9-0.9
		c1,0,1.9,0.2,2.7,0.5l-0.8,2.2c-0.6-0.2-1.2-0.3-1.7-0.3c-0.4,0-0.7,0.1-0.9,0.4c-0.2,0.3-0.3,0.6-0.3,1v0.7h2.6v2.2H175.2z"/>
	<path class="st1" d="M183-58.8c0.4,0,0.7,0,1,0.1l-0.2,2.8c-0.2-0.1-0.5-0.1-0.9-0.1c-1,0-1.7,0.2-2.2,0.7s-0.8,1.2-0.8,2.1v5.6h-3
		v-11h2.3l0.4,1.8h0.1c0.3-0.6,0.8-1.1,1.4-1.5S182.3-58.8,183-58.8z"/>
	<path class="st1" d="M195.9-53.1c0,1.8-0.5,3.2-1.4,4.2c-0.9,1-2.2,1.5-3.9,1.5c-1,0-2-0.2-2.8-0.7s-1.4-1.1-1.8-2
		c-0.4-0.9-0.6-1.9-0.6-3c0-1.8,0.5-3.2,1.4-4.2c0.9-1,2.2-1.5,3.9-1.5c1,0,2,0.2,2.8,0.7c0.8,0.5,1.4,1.1,1.8,2
		S195.9-54.3,195.9-53.1z M188.4-53.1c0,1.1,0.2,1.9,0.5,2.5c0.4,0.6,0.9,0.8,1.7,0.8s1.4-0.3,1.7-0.8c0.3-0.6,0.5-1.4,0.5-2.5
		s-0.2-1.9-0.5-2.4c-0.3-0.5-0.9-0.8-1.7-0.8s-1.4,0.3-1.7,0.8S188.4-54.2,188.4-53.1z"/>
	<path class="st1" d="M208.2-47.6h-3V-54c0-0.8-0.1-1.4-0.4-1.8s-0.7-0.6-1.2-0.6c-0.8,0-1.3,0.3-1.7,0.8c-0.4,0.5-0.5,1.5-0.5,2.8
		v5.1h-3v-10.9h2.3l0.4,1.4h0.2c0.3-0.5,0.7-0.9,1.3-1.2c0.6-0.3,1.2-0.4,1.9-0.4c1.6,0,2.7,0.5,3.3,1.6h0.2
		c0.3-0.5,0.7-0.9,1.3-1.2s1.2-0.4,1.9-0.4c1.2,0,2.2,0.3,2.8,1s1,1.7,1,3.1v7.1h-3V-54c0-0.8-0.1-1.4-0.4-1.8s-0.7-0.6-1.2-0.6
		c-0.7,0-1.3,0.3-1.6,0.8c-0.3,0.5-0.5,1.3-0.5,2.5v5.5H208.2z"/>
	<path class="st1" d="M230.8-50.9c0,1.1-0.4,2-1.2,2.6c-0.8,0.6-1.9,0.9-3.5,0.9c-0.8,0-1.5-0.1-2-0.2s-1.1-0.3-1.6-0.5v-2.5
		c0.6,0.3,1.2,0.5,1.9,0.7c0.7,0.2,1.3,0.3,1.8,0.3c1.1,0,1.6-0.3,1.6-0.9c0-0.2-0.1-0.4-0.2-0.6c-0.1-0.2-0.4-0.3-0.7-0.5
		c-0.3-0.2-0.8-0.4-1.4-0.6c-0.8-0.4-1.5-0.7-1.9-1c-0.4-0.3-0.7-0.6-0.9-1c-0.2-0.4-0.3-0.9-0.3-1.4c0-1,0.4-1.7,1.1-2.3
		s1.8-0.8,3.2-0.8c1.3,0,2.6,0.3,3.8,0.9l-0.7,2c-0.5-0.2-1.1-0.4-1.5-0.6c-0.4-0.2-1-0.2-1.5-0.2c-0.9,0-1.3,0.2-1.3,0.7
		c0,0.3,0.1,0.5,0.4,0.7s0.9,0.5,1.9,0.9c0.9,0.3,1.5,0.7,1.9,1c0.4,0.3,0.7,0.6,0.9,1C230.8-51.9,230.8-51.4,230.8-50.9z"/>
	<path class="st1" d="M243.1-53.1c0,1.8-0.5,3.2-1.4,4.2c-0.9,1-2.2,1.5-3.9,1.5c-1,0-2-0.2-2.8-0.7s-1.4-1.1-1.8-2
		c-0.4-0.9-0.6-1.9-0.6-3c0-1.8,0.5-3.2,1.4-4.2c0.9-1,2.2-1.5,3.9-1.5c1,0,2,0.2,2.8,0.7s1.4,1.1,1.8,2
		C242.9-55.2,243.1-54.3,243.1-53.1z M235.5-53.1c0,1.1,0.2,1.9,0.5,2.5c0.4,0.6,0.9,0.8,1.7,0.8c0.8,0,1.4-0.3,1.7-0.8
		c0.3-0.6,0.5-1.4,0.5-2.5s-0.2-1.9-0.5-2.4s-0.9-0.8-1.7-0.8s-1.4,0.3-1.7,0.8C235.7-55,235.5-54.2,235.5-53.1z"/>
	<path class="st1" d="M255.3-47.6h-3V-54c0-0.8-0.1-1.4-0.4-1.8s-0.7-0.6-1.2-0.6c-0.8,0-1.3,0.3-1.7,0.8s-0.5,1.5-0.5,2.8v5.1h-3
		v-10.9h2.3l0.4,1.4h0.2c0.3-0.5,0.7-0.9,1.3-1.2s1.2-0.4,1.9-0.4c1.6,0,2.7,0.5,3.3,1.6h0.3c0.3-0.5,0.7-0.9,1.3-1.2
		c0.6-0.3,1.2-0.4,1.9-0.4c1.2,0,2.2,0.3,2.8,1s1,1.7,1,3.1v7.1h-3V-54c0-0.8-0.1-1.4-0.4-1.8c-0.3-0.4-0.7-0.6-1.2-0.6
		c-0.7,0-1.3,0.3-1.6,0.8c-0.3,0.5-0.5,1.3-0.5,2.5v5.5H255.3z"/>
	<path class="st1" d="M270.1-47.4c-1.8,0-3.1-0.5-4.1-1.5s-1.5-2.3-1.5-4.1s0.5-3.2,1.4-4.2s2.2-1.5,3.8-1.5c1.5,0,2.7,0.4,3.6,1.3
		c0.9,0.9,1.3,2.1,1.3,3.6v1.4h-7c0,0.8,0.3,1.5,0.8,2s1.1,0.7,2,0.7c0.7,0,1.3-0.1,1.9-0.2c0.6-0.1,1.2-0.4,1.8-0.7v2.3
		c-0.5,0.3-1.1,0.5-1.7,0.6C271.8-47.6,271-47.4,270.1-47.4z M269.7-56.6c-0.6,0-1.1,0.2-1.5,0.6s-0.6,1-0.6,1.7h4.2
		c0-0.7-0.2-1.3-0.6-1.7C270.8-56.4,270.3-56.6,269.7-56.6z"/>
	<path class="st1" d="M286.9-53.1c0,1.8-0.5,3.2-1.4,4.2s-2.2,1.5-3.9,1.5c-1,0-2-0.2-2.8-0.7c-0.8-0.5-1.4-1.1-1.8-2
		c-0.4-0.9-0.6-1.9-0.6-3c0-1.8,0.5-3.2,1.4-4.2s2.2-1.5,3.9-1.5c1,0,2,0.2,2.8,0.7c0.8,0.5,1.4,1.1,1.8,2
		C286.7-55.2,286.9-54.3,286.9-53.1z M279.4-53.1c0,1.1,0.2,1.9,0.5,2.5c0.4,0.6,0.9,0.8,1.7,0.8c0.8,0,1.4-0.3,1.7-0.8
		c0.3-0.6,0.5-1.4,0.5-2.5s-0.2-1.9-0.5-2.4c-0.3-0.5-0.9-0.8-1.7-0.8c-0.8,0-1.4,0.3-1.7,0.8C279.6-55,279.4-54.2,279.4-53.1z"/>
	<path class="st1" d="M299.5-47.6h-3V-54c0-0.8-0.1-1.4-0.4-1.8s-0.7-0.6-1.3-0.6c-0.8,0-1.4,0.3-1.8,0.8c-0.4,0.5-0.6,1.5-0.6,2.8
		v5.1h-3v-10.9h2.3l0.4,1.4h0.2c0.3-0.5,0.8-0.9,1.4-1.2c0.6-0.3,1.2-0.4,2-0.4c1.3,0,2.2,0.3,2.9,1c0.7,0.7,1,1.7,1,3L299.5-47.6
		L299.5-47.6z"/>
	<path class="st1" d="M307.5-47.4c-1.8,0-3.1-0.5-4.1-1.5s-1.5-2.3-1.5-4.1s0.5-3.2,1.4-4.2s2.2-1.5,3.8-1.5c1.5,0,2.7,0.4,3.6,1.3
		c0.9,0.9,1.3,2.1,1.3,3.6v1.4h-7c0,0.8,0.3,1.5,0.8,2s1.1,0.7,2,0.7c0.7,0,1.3-0.1,1.9-0.2c0.6-0.1,1.2-0.4,1.8-0.7v2.3
		c-0.5,0.3-1.1,0.5-1.7,0.6C309.2-47.6,308.3-47.4,307.5-47.4z M307-56.6c-0.6,0-1.1,0.2-1.5,0.6s-0.6,1-0.6,1.7h4.2
		c0-0.7-0.2-1.3-0.6-1.7C308.1-56.4,307.7-56.6,307-56.6z"/>
	<path class="st1" d="M163.4-34.6h3.3l2.1,6.1c0.2,0.5,0.3,1.2,0.4,1.9h0.1c0.1-0.7,0.2-1.3,0.4-1.9l2-6.1h3.2l-4.6,12.3
		c-0.4,1.1-1,2-1.8,2.6s-1.8,0.9-2.9,0.9c-0.5,0-1-0.1-1.5-0.2v-2.4c0.4,0.1,0.7,0.1,1.2,0.1s1-0.2,1.4-0.5c0.4-0.3,0.7-0.8,0.9-1.5
		l0.2-0.5L163.4-34.6z"/>
	<path class="st1" d="M186.3-29.1c0,1.8-0.5,3.2-1.4,4.2c-0.9,1-2.2,1.5-3.9,1.5c-1,0-2-0.2-2.8-0.7c-0.8-0.5-1.4-1.1-1.8-2
		c-0.4-0.9-0.6-1.9-0.6-3c0-1.8,0.5-3.2,1.4-4.2c0.9-1,2.1-1.5,3.8-1.5c1,0,2,0.2,2.8,0.7s1.4,1.1,1.8,2
		C186-31.2,186.3-30.3,186.3-29.1z M178.7-29.1c0,1.1,0.2,1.9,0.5,2.5c0.3,0.6,1,0.8,1.8,0.8c0.8,0,1.4-0.3,1.7-0.8
		c0.3-0.5,0.5-1.4,0.5-2.5s-0.2-1.9-0.5-2.4c-0.3-0.5-0.9-0.8-1.7-0.8c-0.8,0-1.4,0.3-1.7,0.8S178.7-30.2,178.7-29.1z"/>
	<path class="st1" d="M196.5-23.6l-0.4-1.4h-0.2c-0.3,0.5-0.8,0.9-1.4,1.2s-1.3,0.4-2,0.4c-1.3,0-2.2-0.3-2.9-1c-0.7-0.7-1-1.7-1-3
		v-7.1h3v6.4c0,0.8,0.1,1.4,0.4,1.8s0.7,0.6,1.3,0.6c0.8,0,1.4-0.3,1.8-0.8c0.4-0.5,0.6-1.5,0.6-2.8v-5.1h3v10.9L196.5-23.6
		L196.5-23.6z"/>
	<path class="st1" d="M210.5-23.4c-1.3,0-2.3-0.5-3-1.5s-1.1-2.4-1.1-4.1c0-1.8,0.4-3.2,1.1-4.2s1.8-1.5,3.1-1.5
		c1.4,0,2.4,0.5,3.1,1.6h0.1c-0.1-0.8-0.2-1.5-0.2-2.2v-3.5h3v15.2h-2.3l-0.6-1.4h-0.1C213-24,211.9-23.4,210.5-23.4z M211.6-25.8
		c0.8,0,1.3-0.2,1.7-0.7s0.5-1.2,0.6-2.3v-0.3c0-1.2-0.2-2-0.5-2.5c-0.3-0.5-0.9-0.8-1.8-0.8c-0.7,0-1.2,0.3-1.5,0.8
		c-0.3,0.5-0.6,1.4-0.6,2.5s0.2,1.9,0.6,2.4C210.5-26.2,210.9-25.8,211.6-25.8z"/>
	<path class="st1" d="M229.7-29.1c0,1.8-0.5,3.2-1.4,4.2c-0.9,1-2.2,1.5-3.9,1.5c-1,0-2-0.2-2.8-0.7s-1.4-1.1-1.8-2
		c-0.4-0.9-0.6-1.9-0.6-3c0-1.8,0.5-3.2,1.4-4.2c0.9-1,2.2-1.5,3.9-1.5c1,0,2,0.2,2.8,0.7s1.4,1.1,1.8,2
		C229.5-31.2,229.7-30.3,229.7-29.1z M222.1-29.1c0,1.1,0.2,1.9,0.5,2.5s0.9,0.8,1.7,0.8s1.4-0.3,1.7-0.8c0.3-0.5,0.5-1.4,0.5-2.5
		s-0.2-1.9-0.5-2.4s-0.9-0.8-1.7-0.8c-0.8,0-1.4,0.3-1.7,0.8C222.3-31,222.1-30.2,222.1-29.1z"/>
	<path class="st1" d="M242.2-23.6h-3V-30c0-0.8-0.1-1.4-0.4-1.8c-0.3-0.4-0.7-0.6-1.3-0.6c-0.8,0-1.4,0.3-1.8,0.8
		c-0.4,0.5-0.6,1.5-0.6,2.8v5.1h-3v-10.9h2.3l0.4,1.4h0.2c0.3-0.5,0.8-0.9,1.4-1.2c0.6-0.3,1.2-0.4,2-0.4c1.3,0,2.2,0.3,2.9,1
		c0.7,0.7,1,1.7,1,3v7.2H242.2z"/>
	<path class="st1" d="M247.7-37.9l0.1,0.2c-0.3,1.3-0.9,2.8-1.7,4.7H244c0.4-1.9,0.8-3.6,1-4.9C245-37.9,247.7-37.9,247.7-37.9z"/>
	<path class="st1" d="M254.2-25.8c0.5,0,1.1-0.1,1.9-0.3v2.2c-0.7,0.3-1.7,0.5-2.7,0.5c-1.2,0-2.1-0.3-2.6-0.9S250-25.8,250-27v-5.3
		h-1.4v-1.3l1.6-1l0.9-2.3h1.9v2.3h3.1v2.2H253v5.3c0,0.4,0.1,0.7,0.4,0.9S253.8-25.8,254.2-25.8z"/>
	<path class="st1" d="M266.3-29.6l1.3-1.7l3.1-3.3h3.4l-4.3,4.7l4.6,6.2H271l-3.1-4.4l-1.3,1v3.4h-3v-15.1h3v6.8L266.3-29.6
		L266.3-29.6z"/>
	<path class="st1" d="M286-23.6h-3V-30c0-0.8-0.1-1.4-0.4-1.8c-0.3-0.4-0.7-0.6-1.3-0.6c-0.8,0-1.4,0.3-1.8,0.8
		c-0.4,0.5-0.6,1.5-0.6,2.8v5.1h-3v-10.9h2.3l0.4,1.4h0.2c0.3-0.5,0.8-0.9,1.4-1.2c0.6-0.3,1.2-0.4,2-0.4c1.3,0,2.2,0.3,2.9,1
		c0.7,0.7,1,1.7,1,3L286-23.6L286-23.6z"/>
	<path class="st1" d="M298.9-29.1c0,1.8-0.5,3.2-1.4,4.2s-2.2,1.5-3.9,1.5c-1,0-2-0.2-2.8-0.7c-0.8-0.5-1.4-1.1-1.8-2
		c-0.4-0.9-0.6-1.9-0.6-3c0-1.8,0.5-3.2,1.4-4.2s2.2-1.5,3.9-1.5c1,0,2,0.2,2.8,0.7c0.8,0.5,1.4,1.1,1.8,2
		C298.7-31.2,298.9-30.3,298.9-29.1z M291.4-29.1c0,1.1,0.2,1.9,0.5,2.5c0.3,0.6,0.9,0.8,1.7,0.8c0.8,0,1.4-0.3,1.7-0.8
		c0.3-0.5,0.5-1.4,0.5-2.5s-0.2-1.9-0.5-2.4c-0.3-0.5-0.9-0.8-1.7-0.8c-0.8,0-1.4,0.3-1.7,0.8C291.6-31,291.4-30.2,291.4-29.1z"/>
	<path class="st1" d="M310.4-23.6l-0.8-3.8l-1.1-4.8h-0.1l-2,8.6h-3.2l-3.2-11h3l1.3,4.8c0.2,0.9,0.4,2.1,0.6,3.6h0.1
		c0-0.5,0.1-1.3,0.3-2.4l0.2-0.8l1.3-5.2h3.3l1.3,5.2c0,0.1,0.1,0.4,0.1,0.6s0.1,0.6,0.2,0.9c0.1,0.3,0.1,0.6,0.1,0.9
		s0.1,0.5,0.1,0.7h0.1c0.1-0.5,0.2-1.1,0.3-1.9s0.3-1.4,0.3-1.7l1.3-4.8h2.9l-3.1,10.9h-3.3V-23.6z"/>
</g>
<g>
	<path class="st1" d="M238.2,5.9c0,1.3-0.5,2.3-1.4,3s-2.2,1.1-3.9,1.1c-1.5,0-2.9-0.3-4-0.9V6.4c1,0.4,1.8,0.7,2.4,0.9
		s1.3,0.3,1.8,0.3c0.7,0,1.2-0.1,1.5-0.4s0.5-0.6,0.5-1.1c0-0.3-0.1-0.5-0.2-0.7s-0.4-0.4-0.7-0.6s-0.9-0.5-1.9-1
		c-0.9-0.4-1.5-0.8-2-1.2s-0.8-0.8-1-1.3s-0.4-1.1-0.4-1.8c0-1.3,0.4-2.3,1.3-3s2-1.1,3.5-1.1c0.7,0,1.5,0.1,2.1,0.3
		s1.4,0.4,2.1,0.7l-1,2.4c-0.8-0.3-1.4-0.5-1.9-0.7s-1-0.2-1.5-0.2c-0.6,0-1,0.1-1.3,0.4s-0.5,0.6-0.5,1c0,0.3,0.1,0.5,0.2,0.7
		s0.3,0.4,0.6,0.6s0.9,0.5,1.9,1c1.3,0.6,2.2,1.3,2.7,1.9S238.2,5,238.2,5.9z"/>
	<path class="st1" d="M250.6,9.9h-3V3.5c0-1.6-0.6-2.4-1.8-2.4c-0.8,0-1.4,0.3-1.8,0.8s-0.6,1.5-0.6,2.8v5.1h-3V-5.3h3v3.1
		c0,0.2,0,0.8-0.1,1.7l-0.1,0.9h0.2c0.7-1.1,1.7-1.6,3.2-1.6c1.3,0,2.3,0.3,2.9,1s1,1.7,1,3V9.9z"/>
	<path class="st1" d="M260.6,9.9l-0.6-1.5H260c-0.5,0.6-1,1.1-1.5,1.3s-1.2,0.4-2.1,0.4c-1,0-1.9-0.3-2.5-0.9S253,7.7,253,6.6
		c0-1.2,0.4-2,1.2-2.6s2-0.9,3.7-0.9l1.9-0.1V2.6c0-1.1-0.6-1.7-1.7-1.7c-0.9,0-1.9,0.3-3.1,0.8l-1-2c1.3-0.7,2.6-1,4.2-1
		c1.5,0,2.6,0.3,3.4,1s1.2,1.6,1.2,2.9v7.3H260.6z M259.8,4.8l-1.2,0c-0.9,0-1.5,0.2-1.9,0.5S256,6,256,6.6c0,0.8,0.5,1.3,1.4,1.3
		c0.7,0,1.2-0.2,1.7-0.6s0.6-0.9,0.6-1.6V4.8z"/>
	<path class="st1" d="M271.9-1.3c0.4,0,0.7,0,1,0.1l-0.2,2.8c-0.2-0.1-0.5-0.1-0.9-0.1c-1,0-1.7,0.2-2.2,0.7s-0.8,1.2-0.8,2.1v5.6
		h-3V-1.1h2.3l0.4,1.8h0.1c0.3-0.6,0.8-1.1,1.4-1.5S271.2-1.3,271.9-1.3z"/>
	<path class="st1" d="M274.7-3.9c0-1,0.5-1.5,1.6-1.5s1.6,0.5,1.6,1.5c0,0.5-0.1,0.8-0.4,1.1s-0.7,0.4-1.2,0.4
		C275.3-2.4,274.7-2.9,274.7-3.9z M277.9,9.9h-3V-1.1h3V9.9z"/>
	<path class="st1" d="M291.1,9.9h-3V3.5c0-0.8-0.1-1.4-0.4-1.8s-0.7-0.6-1.3-0.6c-0.8,0-1.4,0.3-1.8,0.8S284,3.4,284,4.7v5.1h-3
		V-1.1h2.3l0.4,1.4h0.2c0.3-0.5,0.8-0.9,1.4-1.2s1.2-0.4,2-0.4c1.3,0,2.2,0.3,2.9,1s1,1.7,1,3V9.9z"/>
	<path class="st1" d="M303.6-1.1v1.5l-1.7,0.4c0.3,0.5,0.5,1,0.5,1.6c0,1.2-0.4,2.1-1.2,2.7s-2,1-3.4,1l-0.5,0l-0.4,0
		c-0.3,0.2-0.5,0.5-0.5,0.8c0,0.4,0.5,0.6,1.6,0.6h1.9c1.2,0,2.1,0.3,2.7,0.8s0.9,1.3,0.9,2.3c0,1.3-0.5,2.3-1.6,3s-2.6,1.1-4.6,1.1
		c-1.5,0-2.7-0.3-3.5-0.8s-1.2-1.3-1.2-2.2c0-0.7,0.2-1.2,0.6-1.7s1-0.8,1.8-0.9c-0.3-0.1-0.6-0.3-0.8-0.6s-0.3-0.6-0.3-0.9
		c0-0.4,0.1-0.8,0.4-1s0.6-0.5,1-0.8c-0.6-0.2-1-0.6-1.4-1.2s-0.5-1.2-0.5-1.9c0-1.2,0.4-2.1,1.2-2.8s1.9-1,3.3-1
		c0.3,0,0.7,0,1.1,0.1s0.7,0.1,0.8,0.1H303.6z M295.2,11.4c0,0.4,0.2,0.7,0.6,1s0.9,0.4,1.7,0.4c1.1,0,1.9-0.1,2.5-0.4
		s0.9-0.7,0.9-1.2c0-0.4-0.2-0.7-0.5-0.8s-0.9-0.2-1.7-0.2h-1.5c-0.5,0-1,0.1-1.4,0.4S295.2,11,295.2,11.4z M296.3,2.5
		c0,0.6,0.1,1.1,0.4,1.4s0.7,0.5,1.2,0.5c0.6,0,1-0.2,1.2-0.5s0.4-0.8,0.4-1.4c0-1.3-0.5-2-1.6-2C296.8,0.5,296.3,1.2,296.3,2.5z"/>
	<path class="st1" d="M309.1-1.1h3.3l2.1,6.1c0.2,0.5,0.3,1.2,0.4,1.9h0.1c0.1-0.7,0.2-1.3,0.4-1.9l2-6.1h3.2l-4.6,12.3
		c-0.4,1.1-1,2-1.8,2.6s-1.7,0.8-2.7,0.8c-0.5,0-1-0.1-1.5-0.2v-2.4c0.4,0.1,0.7,0.1,1.2,0.1c0.5,0,1-0.2,1.4-0.5s0.7-0.8,0.9-1.5
		l0.2-0.5L309.1-1.1z"/>
	<path class="st1" d="M331.9,4.4c0,1.8-0.5,3.2-1.4,4.2s-2.2,1.5-3.9,1.5c-1,0-2-0.2-2.8-0.7s-1.4-1.1-1.8-2s-0.6-1.9-0.6-3
		c0-1.8,0.5-3.2,1.4-4.2s2.2-1.5,3.9-1.5c1,0,2,0.2,2.8,0.7s1.4,1.1,1.8,2S331.9,3.2,331.9,4.4z M324.4,4.4c0,1.1,0.2,1.9,0.5,2.5
		s0.9,0.8,1.7,0.8c0.8,0,1.4-0.3,1.7-0.8s0.5-1.4,0.5-2.5c0-1.1-0.2-1.9-0.5-2.4s-0.9-0.8-1.7-0.8c-0.8,0-1.4,0.3-1.7,0.8
		S324.4,3.3,324.4,4.4z"/>
	<path class="st1" d="M342.1,9.9l-0.4-1.4h-0.2c-0.3,0.5-0.8,0.9-1.4,1.2s-1.3,0.4-2,0.4c-1.3,0-2.2-0.3-2.9-1s-1-1.7-1-3v-7.1h3
		v6.4c0,0.8,0.1,1.4,0.4,1.8s0.7,0.6,1.3,0.6c0.8,0,1.4-0.3,1.8-0.8s0.6-1.5,0.6-2.8v-5.1h3V9.9H342.1z"/>
	<path class="st1" d="M353.6-1.3c0.4,0,0.7,0,1,0.1l-0.2,2.8c-0.2-0.1-0.5-0.1-0.9-0.1c-1,0-1.7,0.2-2.2,0.7s-0.8,1.2-0.8,2.1v5.6
		h-3V-1.1h2.3l0.4,1.8h0.1c0.3-0.6,0.8-1.1,1.4-1.5S352.9-1.3,353.6-1.3z"/>
	<path class="st1" d="M233,33.9h-3v-6.4c0-1.6-0.6-2.4-1.8-2.4c-0.8,0-1.4,0.3-1.8,0.8s-0.6,1.5-0.6,2.8v5.1h-3V18.7h3v3.1
		c0,0.2,0,0.8-0.1,1.7l-0.1,0.9h0.2c0.7-1.1,1.7-1.6,3.2-1.6c1.3,0,2.3,0.3,2.9,1s1,1.7,1,3V33.9z"/>
	<path class="st1" d="M246,28.4c0,1.8-0.5,3.2-1.4,4.2s-2.2,1.5-3.9,1.5c-1,0-2-0.2-2.8-0.7s-1.4-1.1-1.8-2s-0.6-1.9-0.6-3
		c0-1.8,0.5-3.2,1.4-4.2s2.2-1.5,3.9-1.5c1,0,2,0.2,2.8,0.7s1.4,1.1,1.8,2S246,27.2,246,28.4z M238.4,28.4c0,1.1,0.2,1.9,0.5,2.5
		s0.9,0.8,1.7,0.8c0.8,0,1.4-0.3,1.7-0.8s0.5-1.4,0.5-2.5c0-1.1-0.2-1.9-0.5-2.4s-0.9-0.8-1.7-0.8c-0.8,0-1.4,0.3-1.7,0.8
		S238.4,27.3,238.4,28.4z"/>
	<path class="st1" d="M258.2,33.9h-3v-6.4c0-0.8-0.1-1.4-0.4-1.8s-0.7-0.6-1.2-0.6c-0.8,0-1.3,0.3-1.7,0.8s-0.5,1.5-0.5,2.8v5.1h-3
		V22.9h2.3l0.4,1.4h0.2c0.3-0.5,0.7-0.9,1.3-1.2s1.2-0.4,1.9-0.4c1.6,0,2.7,0.5,3.3,1.6h0.3c0.3-0.5,0.7-0.9,1.3-1.2
		s1.2-0.4,1.9-0.4c1.2,0,2.2,0.3,2.8,1s1,1.7,1,3.1v7.1h-3v-6.4c0-0.8-0.1-1.4-0.4-1.8s-0.7-0.6-1.2-0.6c-0.7,0-1.3,0.3-1.6,0.8
		s-0.5,1.3-0.5,2.5V33.9z"/>
	<path class="st1" d="M273,34.1c-1.8,0-3.1-0.5-4.1-1.5s-1.5-2.3-1.5-4.1c0-1.8,0.5-3.2,1.4-4.2s2.2-1.5,3.8-1.5
		c1.5,0,2.7,0.4,3.6,1.3s1.3,2.1,1.3,3.6v1.4h-7c0,0.8,0.3,1.5,0.8,2s1.1,0.7,2,0.7c0.7,0,1.3-0.1,1.9-0.2s1.2-0.4,1.8-0.7v2.3
		c-0.5,0.3-1.1,0.5-1.7,0.6S273.9,34.1,273,34.1z M272.6,24.9c-0.6,0-1.1,0.2-1.5,0.6s-0.6,1-0.6,1.7h4.2c0-0.7-0.2-1.3-0.6-1.7
		S273.2,24.9,272.6,24.9z"/>
	<path class="st1" d="M292,33.9l-0.6-1.5h-0.1c-0.5,0.6-1,1.1-1.5,1.3s-1.2,0.4-2.1,0.4c-1,0-1.9-0.3-2.5-0.9s-0.9-1.5-0.9-2.6
		c0-1.2,0.4-2,1.2-2.6s2-0.9,3.7-0.9l1.9-0.1v-0.5c0-1.1-0.6-1.7-1.7-1.7c-0.9,0-1.9,0.3-3.1,0.8l-1-2c1.3-0.7,2.6-1,4.2-1
		c1.5,0,2.6,0.3,3.4,1s1.2,1.6,1.2,2.9v7.3H292z M291.1,28.8l-1.2,0c-0.9,0-1.5,0.2-1.9,0.5s-0.6,0.7-0.6,1.3c0,0.8,0.5,1.3,1.4,1.3
		c0.7,0,1.2-0.2,1.7-0.6s0.6-0.9,0.6-1.6V28.8z"/>
	<path class="st1" d="M300.6,34.1c-1.3,0-2.3-0.5-3-1.5s-1.1-2.4-1.1-4.1c0-1.8,0.4-3.2,1.1-4.2s1.8-1.5,3.1-1.5
		c1.4,0,2.4,0.5,3.1,1.6h0.1c-0.1-0.8-0.2-1.5-0.2-2.2v-3.5h3v15.2h-2.3l-0.6-1.4h-0.1C303,33.5,302,34.1,300.6,34.1z M301.7,31.7
		c0.8,0,1.3-0.2,1.7-0.7s0.5-1.2,0.6-2.3v-0.3c0-1.2-0.2-2-0.5-2.5s-0.9-0.8-1.8-0.8c-0.7,0-1.2,0.3-1.5,0.8s-0.6,1.4-0.6,2.5
		s0.2,1.9,0.6,2.4S301,31.7,301.7,31.7z"/>
	<path class="st1" d="M313.3,34.1c-1.3,0-2.3-0.5-3-1.5s-1.1-2.4-1.1-4.1c0-1.8,0.4-3.2,1.1-4.2s1.8-1.5,3.1-1.5
		c1.4,0,2.4,0.5,3.1,1.6h0.1c-0.1-0.8-0.2-1.5-0.2-2.2v-3.5h3v15.2h-2.3l-0.6-1.4h-0.1C315.7,33.5,314.7,34.1,313.3,34.1z
		 M314.3,31.7c0.8,0,1.3-0.2,1.7-0.7s0.5-1.2,0.6-2.3v-0.3c0-1.2-0.2-2-0.5-2.5s-0.9-0.8-1.8-0.8c-0.7,0-1.2,0.3-1.5,0.8
		s-0.6,1.4-0.6,2.5s0.2,1.9,0.6,2.4S313.6,31.7,314.3,31.7z"/>
	<path class="st1" d="M328.6,22.7c0.4,0,0.7,0,1,0.1l-0.2,2.8c-0.2-0.1-0.5-0.1-0.9-0.1c-1,0-1.7,0.2-2.2,0.7s-0.8,1.2-0.8,2.1v5.6
		h-3V22.9h2.3l0.4,1.8h0.1c0.3-0.6,0.8-1.1,1.4-1.5S327.9,22.7,328.6,22.7z"/>
	<path class="st1" d="M336.5,34.1c-1.8,0-3.1-0.5-4.1-1.5s-1.5-2.3-1.5-4.1c0-1.8,0.5-3.2,1.4-4.2s2.2-1.5,3.8-1.5
		c1.5,0,2.7,0.4,3.6,1.3s1.3,2.1,1.3,3.6v1.4h-7c0,0.8,0.3,1.5,0.8,2s1.1,0.7,2,0.7c0.7,0,1.3-0.1,1.9-0.2s1.2-0.4,1.8-0.7v2.3
		c-0.5,0.3-1.1,0.5-1.7,0.6S337.3,34.1,336.5,34.1z M336.1,24.9c-0.6,0-1.1,0.2-1.5,0.6s-0.6,1-0.6,1.7h4.2c0-0.7-0.2-1.3-0.6-1.7
		S336.7,24.9,336.1,24.9z"/>
	<path class="st1" d="M351,30.6c0,1.1-0.4,2-1.2,2.6s-1.9,0.9-3.5,0.9c-0.8,0-1.5-0.1-2-0.2s-1.1-0.3-1.6-0.5V31
		c0.6,0.3,1.2,0.5,1.9,0.7s1.3,0.3,1.8,0.3c1.1,0,1.6-0.3,1.6-0.9c0-0.2-0.1-0.4-0.2-0.6s-0.4-0.3-0.7-0.5s-0.8-0.4-1.4-0.6
		c-0.8-0.4-1.5-0.7-1.9-1s-0.7-0.6-0.9-1s-0.3-0.9-0.3-1.4c0-1,0.4-1.7,1.1-2.3s1.8-0.8,3.2-0.8c1.3,0,2.6,0.3,3.8,0.9l-0.9,2.1
		c-0.5-0.2-1.1-0.4-1.5-0.6s-1-0.2-1.5-0.2c-0.9,0-1.3,0.2-1.3,0.7c0,0.3,0.1,0.5,0.4,0.7s0.9,0.5,1.9,0.9c0.9,0.3,1.5,0.7,1.9,1
		s0.7,0.6,0.9,1S351,30.1,351,30.6z"/>
	<path class="st1" d="M360.9,30.6c0,1.1-0.4,2-1.2,2.6s-1.9,0.9-3.5,0.9c-0.8,0-1.5-0.1-2-0.2s-1.1-0.3-1.6-0.5V31
		c0.6,0.3,1.2,0.5,1.9,0.7s1.3,0.3,1.8,0.3c1.1,0,1.6-0.3,1.6-0.9c0-0.2-0.1-0.4-0.2-0.6s-0.4-0.3-0.7-0.5s-0.8-0.4-1.4-0.6
		c-0.8-0.4-1.5-0.7-1.9-1s-0.7-0.6-0.9-1s-0.3-0.9-0.3-1.4c0-1,0.4-1.7,1.1-2.3s1.8-0.8,3.2-0.8c1.3,0,2.6,0.3,3.8,0.9l-0.9,2.1
		c-0.5-0.2-1.1-0.4-1.5-0.6s-1-0.2-1.5-0.2c-0.9,0-1.3,0.2-1.3,0.7c0,0.3,0.1,0.5,0.4,0.7s0.9,0.5,1.9,0.9c0.9,0.3,1.5,0.7,1.9,1
		s0.7,0.6,0.9,1S360.9,30.1,360.9,30.6z"/>
	<path class="st1" d="M225.7,57.9l-0.8-3.8l-1.1-4.8h-0.1l-2,8.6h-3.2l-3.1-10.9h3l1.3,4.8c0.2,0.9,0.4,2.1,0.6,3.6h0.1
		c0-0.5,0.1-1.3,0.3-2.4l0.2-0.8l1.3-5.2h3.3l1.3,5.2c0,0.1,0.1,0.4,0.1,0.6s0.1,0.6,0.2,0.9s0.1,0.6,0.1,0.9s0.1,0.5,0.1,0.7h0.1
		c0.1-0.5,0.2-1.1,0.3-1.9s0.3-1.4,0.3-1.7l1.3-4.8h2.9L229,57.9H225.7z"/>
	<path class="st1" d="M233.7,44.1c0-1,0.5-1.5,1.6-1.5s1.6,0.5,1.6,1.5c0,0.5-0.1,0.8-0.4,1.1c-0.3,0.3-0.7,0.4-1.2,0.4
		C234.3,45.6,233.7,45.1,233.7,44.1z M236.8,57.9h-3V46.9h3V57.9z"/>
	<path class="st1" d="M244.6,55.7c0.5,0,1.1-0.1,1.9-0.3v2.2c-0.7,0.3-1.7,0.5-2.7,0.5c-1.2,0-2.1-0.3-2.6-0.9s-0.8-1.5-0.8-2.7
		v-5.3h-1.4v-1.3l1.6-1l0.9-2.3h1.9v2.3h3.1v2.2h-3.1v5.3c0,0.4,0.1,0.7,0.4,0.9S244.2,55.7,244.6,55.7z"/>
	<path class="st1" d="M258.7,57.9h-3v-6.4c0-1.6-0.6-2.4-1.8-2.4c-0.8,0-1.4,0.3-1.8,0.8s-0.6,1.5-0.6,2.8v5.1h-3V42.7h3v3.1
		c0,0.2,0,0.8-0.1,1.7l-0.1,0.9h0.2c0.7-1.1,1.7-1.6,3.2-1.6c1.3,0,2.3,0.3,2.9,1s1,1.7,1,3V57.9z"/>
	<path class="st1" d="M273.9,57.9l-0.6-1.5h-0.1c-0.5,0.6-1,1.1-1.5,1.3s-1.2,0.4-2.1,0.4c-1,0-1.9-0.3-2.5-0.9s-0.9-1.5-0.9-2.6
		c0-1.2,0.4-2,1.2-2.6s2-0.9,3.7-0.9l1.9-0.1v-0.5c0-1.1-0.6-1.7-1.7-1.7c-0.9,0-1.9,0.3-3.1,0.8l-1-2c1.3-0.7,2.6-1,4.2-1
		c1.5,0,2.6,0.3,3.4,1s1.2,1.6,1.2,2.9v7.3H273.9z M273.1,52.8l-1.2,0c-0.9,0-1.5,0.2-1.9,0.5s-0.6,0.7-0.6,1.3
		c0,0.8,0.5,1.3,1.4,1.3c0.7,0,1.2-0.2,1.7-0.6s0.6-0.9,0.6-1.6V52.8z"/>
	<path class="st1" d="M291.9,54.6c0,1.1-0.4,2-1.2,2.6s-1.9,0.9-3.5,0.9c-0.8,0-1.5-0.1-2-0.2s-1.1-0.3-1.6-0.5V55
		c0.6,0.3,1.2,0.5,1.9,0.7s1.3,0.3,1.8,0.3c1.1,0,1.6-0.3,1.6-0.9c0-0.2-0.1-0.4-0.2-0.6s-0.4-0.3-0.7-0.5s-0.8-0.4-1.4-0.6
		c-0.8-0.4-1.5-0.7-1.9-1s-0.7-0.6-0.9-1s-0.3-0.9-0.3-1.4c0-1,0.4-1.7,1.1-2.3s1.8-0.8,3.2-0.8c1.3,0,2.6,0.3,3.8,0.9l-0.9,2.1
		c-0.5-0.2-1.1-0.4-1.5-0.6s-1-0.2-1.5-0.2c-0.9,0-1.3,0.2-1.3,0.7c0,0.3,0.1,0.5,0.4,0.7s0.9,0.5,1.9,0.9c0.9,0.3,1.5,0.7,1.9,1
		s0.7,0.6,0.9,1C291.8,53.6,291.9,54.1,291.9,54.6z"/>
	<path class="st1" d="M298.8,55.7c0.5,0,1.1-0.1,1.9-0.3v2.2c-0.7,0.3-1.7,0.5-2.7,0.5c-1.2,0-2.1-0.3-2.6-0.9s-0.8-1.5-0.8-2.7
		v-5.3h-1.4v-1.3l1.6-1l0.9-2.3h1.9v2.3h3.1v2.2h-3.1v5.3c0,0.4,0.1,0.7,0.4,0.9S298.4,55.7,298.8,55.7z"/>
	<path class="st1" d="M309,46.7c0.4,0,0.7,0,1,0.1l-0.2,2.8c-0.2-0.1-0.5-0.1-0.9-0.1c-1,0-1.7,0.2-2.2,0.7s-0.8,1.2-0.8,2.1v5.6h-3
		V46.9h2.3l0.4,1.8h0.1c0.3-0.6,0.8-1.1,1.4-1.5S308.3,46.7,309,46.7z"/>
	<path class="st1" d="M318.9,57.9l-0.6-1.5h-0.1c-0.5,0.6-1,1.1-1.5,1.3s-1.2,0.4-2.1,0.4c-1,0-1.9-0.3-2.5-0.9s-0.9-1.5-0.9-2.6
		c0-1.2,0.4-2,1.2-2.6s2-0.9,3.7-0.9l1.9-0.1v-0.5c0-1.1-0.6-1.7-1.7-1.7c-0.9,0-1.9,0.3-3.1,0.8l-1-2c1.3-0.7,2.6-1,4.2-1
		c1.5,0,2.6,0.3,3.4,1s1.2,1.6,1.2,2.9v7.3H318.9z M318,52.8l-1.2,0c-0.9,0-1.5,0.2-1.9,0.5s-0.6,0.7-0.6,1.3c0,0.8,0.5,1.3,1.4,1.3
		c0.7,0,1.2-0.2,1.7-0.6s0.6-0.9,0.6-1.6V52.8z"/>
	<path class="st1" d="M334.1,57.9h-3v-6.4c0-0.8-0.1-1.4-0.4-1.8s-0.7-0.6-1.3-0.6c-0.8,0-1.4,0.3-1.8,0.8s-0.6,1.5-0.6,2.8v5.1h-3
		V46.9h2.3l0.4,1.4h0.2c0.3-0.5,0.8-0.9,1.4-1.2s1.2-0.4,2-0.4c1.3,0,2.2,0.3,2.9,1s1,1.7,1,3V57.9z"/>
	<path class="st1" d="M346.7,46.9v1.5l-1.7,0.4c0.3,0.5,0.5,1,0.5,1.6c0,1.2-0.4,2.1-1.2,2.7s-2,1-3.4,1l-0.5,0l-0.4,0
		c-0.3,0.2-0.5,0.5-0.5,0.8c0,0.4,0.5,0.6,1.6,0.6h1.9c1.2,0,2.1,0.3,2.7,0.8s0.9,1.3,0.9,2.3c0,1.3-0.5,2.3-1.6,3s-2.6,1.1-4.6,1.1
		c-1.5,0-2.7-0.3-3.5-0.8s-1.2-1.3-1.2-2.2c0-0.7,0.2-1.2,0.6-1.7s1-0.8,1.8-0.9c-0.3-0.1-0.6-0.3-0.8-0.6s-0.3-0.6-0.3-0.9
		c0-0.4,0.1-0.8,0.4-1s0.6-0.5,1-0.8c-0.6-0.2-1-0.6-1.4-1.2s-0.5-1.2-0.5-1.9c0-1.2,0.4-2.1,1.2-2.8s1.9-1,3.3-1
		c0.3,0,0.7,0,1.1,0.1s0.7,0.1,0.8,0.1H346.7z M338.3,59.4c0,0.4,0.2,0.7,0.6,1s0.9,0.4,1.7,0.4c1.1,0,1.9-0.1,2.5-0.4
		s0.9-0.7,0.9-1.2c0-0.4-0.2-0.7-0.5-0.8s-0.9-0.2-1.7-0.2h-1.5c-0.5,0-1,0.1-1.4,0.4S338.3,59,338.3,59.4z M339.4,50.5
		c0,0.6,0.1,1.1,0.4,1.4s0.7,0.5,1.2,0.5c0.6,0,1-0.2,1.2-0.5s0.4-0.8,0.4-1.4c0-1.3-0.5-2-1.6-2C339.9,48.5,339.4,49.2,339.4,50.5z
		"/>
	<path class="st1" d="M353.4,58.1c-1.8,0-3.1-0.5-4.1-1.5s-1.5-2.3-1.5-4.1c0-1.8,0.5-3.2,1.4-4.2s2.2-1.5,3.8-1.5
		c1.5,0,2.7,0.4,3.6,1.3s1.3,2.1,1.3,3.6v1.4h-7c0,0.8,0.3,1.5,0.8,2s1.1,0.7,2,0.7c0.7,0,1.3-0.1,1.9-0.2s1.2-0.4,1.8-0.7v2.3
		c-0.5,0.3-1.1,0.5-1.7,0.6S354.3,58.1,353.4,58.1z M353,48.9c-0.6,0-1.1,0.2-1.5,0.6s-0.6,1-0.6,1.7h4.2c0-0.7-0.2-1.3-0.6-1.7
		S353.7,48.9,353,48.9z"/>
	<path class="st1" d="M366.4,46.7c0.4,0,0.7,0,1,0.1l-0.2,2.8c-0.2-0.1-0.5-0.1-0.9-0.1c-1,0-1.7,0.2-2.2,0.7s-0.8,1.2-0.8,2.1v5.6
		h-3V46.9h2.3l0.4,1.8h0.1c0.3-0.6,0.8-1.1,1.4-1.5S365.7,46.7,366.4,46.7z"/>
</g>
<rect x="-38.2" y="-101.5" style="fill:none;" width="171.6" height="97"/>
<text transform="matrix(1 0 0 1 -15.9621 -86.319)"><tspan x="0" y="0" class="st1" style="font-family:'OpenSans-Bold'; font-size:20px;">Sharing your </tspan><tspan x="-6.7" y="24" class="st1" style="font-family:'OpenSans-Bold'; font-size:20px;">home address </tspan><tspan x="-12.8" y="48" class="st1" style="font-family:'OpenSans-Bold'; font-size:20px;">with a stranger</tspan></text>
<rect x="198.6" y="73.5" style="fill:none;" width="171.6" height="97"/>
<text transform="matrix(1 0 0 1 216.3463 88.6666)"><tspan x="0" y="0" class="st1" style="font-family:'OpenSans-Bold'; font-size:20px;">Buying things </tspan><tspan x="2.8" y="24" class="st1" style="font-family:'OpenSans-Bold'; font-size:20px;">without your </tspan><tspan x="29.3" y="48" class="st1" style="font-family:'OpenSans-Bold'; font-size:20px;">parents</tspan></text>
<g>
	<path class="st1" d="M-73.5,157.9H-77l-3.7-6l-1.3,0.9v5.1h-3v-14.3h3v6.5l1.2-1.7l3.9-4.9h3.4l-5,6.3L-73.5,157.9z"/>
	<path class="st1" d="M-67,158.1c-1.8,0-3.1-0.5-4.1-1.5s-1.5-2.3-1.5-4.1c0-1.8,0.5-3.2,1.4-4.2s2.2-1.5,3.8-1.5
		c1.5,0,2.7,0.4,3.6,1.3s1.3,2.1,1.3,3.6v1.4h-7c0,0.8,0.3,1.5,0.8,2s1.1,0.7,2,0.7c0.7,0,1.3-0.1,1.9-0.2s1.2-0.4,1.8-0.7v2.3
		c-0.5,0.3-1.1,0.5-1.7,0.6S-66.2,158.1-67,158.1z M-67.4,148.9c-0.6,0-1.1,0.2-1.5,0.6s-0.6,1-0.6,1.7h4.2c0-0.7-0.2-1.3-0.6-1.7
		S-66.8,148.9-67.4,148.9z"/>
	<path class="st1" d="M-55.2,158.1c-1.8,0-3.1-0.5-4.1-1.5s-1.5-2.3-1.5-4.1c0-1.8,0.5-3.2,1.4-4.2s2.2-1.5,3.8-1.5
		c1.5,0,2.7,0.4,3.6,1.3s1.3,2.1,1.3,3.6v1.4h-7c0,0.8,0.3,1.5,0.8,2s1.1,0.7,2,0.7c0.7,0,1.3-0.1,1.9-0.2s1.2-0.4,1.8-0.7v2.3
		c-0.5,0.3-1.1,0.5-1.7,0.6S-54.3,158.1-55.2,158.1z M-55.6,148.9c-0.6,0-1.1,0.2-1.5,0.6s-0.6,1-0.6,1.7h4.2c0-0.7-0.2-1.3-0.6-1.7
		S-55,148.9-55.6,148.9z"/>
	<path class="st1" d="M-42.3,158.1c-1.3,0-2.3-0.5-3-1.4h-0.2c0.1,0.9,0.2,1.4,0.2,1.6v4.4h-3v-15.7h2.4l0.4,1.4h0.1
		c0.7-1.1,1.7-1.6,3.1-1.6c1.3,0,2.3,0.5,3,1.5s1.1,2.4,1.1,4.2c0,1.2-0.2,2.2-0.5,3s-0.8,1.5-1.5,2S-41.5,158.1-42.3,158.1z
		 M-43.2,149.1c-0.7,0-1.3,0.2-1.6,0.7s-0.5,1.2-0.5,2.2v0.3c0,1.2,0.2,2,0.5,2.5s0.9,0.8,1.7,0.8c1.3,0,2-1.1,2-3.3
		c0-1.1-0.2-1.9-0.5-2.4S-42.5,149.1-43.2,149.1z"/>
	<path class="st1" d="M-35.8,144.1c0-1,0.5-1.5,1.6-1.5s1.6,0.5,1.6,1.5c0,0.5-0.1,0.8-0.4,1.1s-0.7,0.4-1.2,0.4
		C-35.2,145.6-35.8,145.1-35.8,144.1z M-32.7,157.9h-3v-10.9h3V157.9z"/>
	<path class="st1" d="M-19.5,157.9h-3v-6.4c0-0.8-0.1-1.4-0.4-1.8s-0.7-0.6-1.3-0.6c-0.8,0-1.4,0.3-1.8,0.8s-0.6,1.5-0.6,2.8v5.1h-3
		v-10.9h2.3l0.4,1.4h0.2c0.3-0.5,0.8-0.9,1.4-1.2s1.2-0.4,2-0.4c1.3,0,2.2,0.3,2.9,1s1,1.7,1,3V157.9z"/>
	<path class="st1" d="M-6.9,146.9v1.5l-1.7,0.4c0.3,0.5,0.5,1,0.5,1.6c0,1.2-0.4,2.1-1.2,2.7s-2,1-3.4,1l-0.5,0l-0.4,0
		c-0.3,0.2-0.5,0.5-0.5,0.8c0,0.4,0.5,0.6,1.6,0.6h1.9c1.2,0,2.1,0.3,2.7,0.8s0.9,1.3,0.9,2.3c0,1.3-0.5,2.3-1.6,3s-2.6,1.1-4.6,1.1
		c-1.5,0-2.7-0.3-3.5-0.8s-1.2-1.3-1.2-2.2c0-0.7,0.2-1.2,0.6-1.7s1-0.8,1.8-0.9c-0.3-0.1-0.6-0.3-0.8-0.6s-0.3-0.6-0.3-0.9
		c0-0.4,0.1-0.8,0.4-1s0.6-0.5,1-0.8c-0.6-0.2-1-0.6-1.4-1.2s-0.5-1.2-0.5-1.9c0-1.2,0.4-2.1,1.2-2.8s1.9-1,3.3-1
		c0.3,0,0.7,0,1.1,0.1s0.7,0.1,0.8,0.1H-6.9z M-15.3,159.4c0,0.4,0.2,0.7,0.6,1s0.9,0.4,1.7,0.4c1.1,0,1.9-0.1,2.5-0.4
		s0.9-0.7,0.9-1.2c0-0.4-0.2-0.7-0.5-0.8s-0.9-0.2-1.7-0.2h-1.5c-0.5,0-1,0.1-1.4,0.4S-15.3,159-15.3,159.4z M-14.3,150.5
		c0,0.6,0.1,1.1,0.4,1.4s0.7,0.5,1.2,0.5c0.6,0,1-0.2,1.2-0.5s0.4-0.8,0.4-1.4c0-1.3-0.5-2-1.6-2C-13.7,148.5-14.3,149.2-14.3,150.5
		z"/>
	<path class="st1" d="M-1.5,146.9h3.3l2.1,6.1c0.2,0.5,0.3,1.2,0.4,1.9h0.1c0.1-0.7,0.2-1.3,0.4-1.9l2-6.1h3.2l-4.6,12.3
		c-0.4,1.1-1,2-1.8,2.6s-1.7,0.8-2.7,0.8c-0.5,0-1-0.1-1.5-0.2v-2.4c0.4,0.1,0.7,0.1,1.2,0.1c0.5,0,1-0.2,1.4-0.5s0.7-0.8,0.9-1.5
		l0.2-0.5L-1.5,146.9z"/>
	<path class="st1" d="M21.4,152.4c0,1.8-0.5,3.2-1.4,4.2s-2.2,1.5-3.9,1.5c-1,0-2-0.2-2.8-0.7s-1.4-1.1-1.8-2s-0.6-1.9-0.6-3
		c0-1.8,0.5-3.2,1.4-4.2s2.2-1.5,3.9-1.5c1,0,2,0.2,2.8,0.7s1.4,1.1,1.8,2S21.4,151.2,21.4,152.4z M13.8,152.4
		c0,1.1,0.2,1.9,0.5,2.5s0.9,0.8,1.7,0.8c0.8,0,1.4-0.3,1.7-0.8s0.5-1.4,0.5-2.5c0-1.1-0.2-1.9-0.5-2.4s-0.9-0.8-1.7-0.8
		c-0.8,0-1.4,0.3-1.7,0.8S13.8,151.3,13.8,152.4z"/>
	<path class="st1" d="M31.6,157.9l-0.4-1.4H31c-0.3,0.5-0.8,0.9-1.4,1.2s-1.3,0.4-2,0.4c-1.3,0-2.2-0.3-2.9-1s-1-1.7-1-3v-7.1h3v6.4
		c0,0.8,0.1,1.4,0.4,1.8s0.7,0.6,1.3,0.6c0.8,0,1.4-0.3,1.8-0.8s0.6-1.5,0.6-2.8v-5.1h3v10.9H31.6z"/>
	<path class="st1" d="M43.1,146.7c0.4,0,0.7,0,1,0.1l-0.2,2.8c-0.2-0.1-0.5-0.1-0.9-0.1c-1,0-1.7,0.2-2.2,0.7s-0.8,1.2-0.8,2.1v5.6
		h-3v-10.9h2.3l0.4,1.8h0.1c0.3-0.6,0.8-1.1,1.4-1.5S42.4,146.7,43.1,146.7z"/>
	<path class="st1" d="M-94.9,182.1c-1.3,0-2.3-0.5-3-1.4h-0.2c0.1,0.9,0.2,1.4,0.2,1.6v4.4h-3v-15.7h2.4l0.4,1.4h0.1
		c0.7-1.1,1.7-1.6,3.1-1.6c1.3,0,2.3,0.5,3,1.5c0.7,1,1.1,2.4,1.1,4.1c0,1.2-0.2,2.2-0.5,3s-0.8,1.5-1.5,2S-94.1,182.1-94.9,182.1z
		 M-95.8,173.1c-0.7,0-1.3,0.2-1.6,0.7c-0.3,0.5-0.5,1.2-0.5,2.2v0.3c0,1.2,0.2,2,0.5,2.5s0.9,0.8,1.7,0.8c1.3,0,2-1.1,2-3.3
		c0-1.1-0.2-1.9-0.5-2.4S-95.1,173.1-95.8,173.1z"/>
	<path class="st1" d="M-81.3,181.9l-0.6-1.5H-82c-0.5,0.6-1,1.1-1.5,1.3s-1.2,0.4-2.1,0.4c-1,0-1.9-0.3-2.5-0.9
		c-0.6-0.6-0.9-1.5-0.9-2.6c0-1.2,0.4-2,1.2-2.6c0.8-0.5,2-0.9,3.7-0.9l1.9-0.1v-0.5c0-1.1-0.6-1.7-1.7-1.7c-0.9,0-1.9,0.3-3.1,0.8
		l-1-2c1.3-0.7,2.6-1,4.2-1c1.5,0,2.6,0.3,3.4,1s1.2,1.6,1.2,2.9v7.3H-81.3z M-82.2,176.8l-1.2,0c-0.9,0-1.5,0.2-1.9,0.5
		c-0.4,0.3-0.6,0.7-0.6,1.3c0,0.8,0.5,1.3,1.4,1.3c0.7,0,1.2-0.2,1.7-0.6c0.4-0.4,0.6-0.9,0.6-1.6V176.8z"/>
	<path class="st1" d="M-68.6,178.6c0,1.1-0.4,2-1.2,2.6s-1.9,0.9-3.5,0.9c-0.8,0-1.5-0.1-2-0.2s-1.1-0.3-1.6-0.5V179
		c0.6,0.3,1.2,0.5,1.9,0.7s1.3,0.3,1.8,0.3c1.1,0,1.6-0.3,1.6-0.9c0-0.2-0.1-0.4-0.2-0.6s-0.4-0.3-0.7-0.5s-0.8-0.4-1.4-0.6
		c-0.8-0.4-1.5-0.7-1.9-1c-0.4-0.3-0.7-0.6-0.9-1c-0.2-0.4-0.3-0.9-0.3-1.4c0-1,0.4-1.7,1.1-2.3s1.8-0.8,3.2-0.8
		c1.3,0,2.6,0.3,3.8,0.9l-0.9,2.1c-0.5-0.2-1.1-0.4-1.5-0.6c-0.5-0.1-1-0.2-1.5-0.2c-0.9,0-1.3,0.2-1.3,0.7c0,0.3,0.1,0.5,0.4,0.7
		s0.9,0.5,1.9,0.9c0.9,0.3,1.5,0.7,1.9,1c0.4,0.3,0.7,0.6,0.9,1S-68.6,178.1-68.6,178.6z"/>
	<path class="st1" d="M-58.6,178.6c0,1.1-0.4,2-1.2,2.6s-1.9,0.9-3.5,0.9c-0.8,0-1.5-0.1-2-0.2s-1.1-0.3-1.6-0.5V179
		c0.6,0.3,1.2,0.5,1.9,0.7s1.3,0.3,1.8,0.3c1.1,0,1.6-0.3,1.6-0.9c0-0.2-0.1-0.4-0.2-0.6s-0.4-0.3-0.7-0.5s-0.8-0.4-1.4-0.6
		c-0.8-0.4-1.5-0.7-1.9-1c-0.4-0.3-0.7-0.6-0.9-1c-0.2-0.4-0.3-0.9-0.3-1.4c0-1,0.4-1.7,1.1-2.3s1.8-0.8,3.2-0.8
		c1.3,0,2.6,0.3,3.8,0.9l-0.9,2.1c-0.5-0.2-1.1-0.4-1.5-0.6c-0.5-0.1-1-0.2-1.5-0.2c-0.9,0-1.3,0.2-1.3,0.7c0,0.3,0.1,0.5,0.4,0.7
		s0.9,0.5,1.9,0.9c0.9,0.3,1.5,0.7,1.9,1c0.4,0.3,0.7,0.6,0.9,1S-58.6,178.1-58.6,178.6z"/>
	<path class="st1" d="M-47.3,181.9l-0.8-3.8l-1.1-4.8h-0.1l-2,8.6h-3.2l-3.1-10.9h3l1.3,4.8c0.2,0.9,0.4,2.1,0.6,3.6h0.1
		c0-0.5,0.1-1.3,0.3-2.4l0.2-0.8l1.3-5.2h3.3l1.3,5.2c0,0.1,0.1,0.4,0.1,0.6c0.1,0.3,0.1,0.6,0.2,0.9c0.1,0.3,0.1,0.6,0.1,0.9
		s0.1,0.5,0.1,0.7h0.1c0.1-0.5,0.2-1.1,0.3-1.9c0.1-0.8,0.3-1.4,0.3-1.7l1.3-4.8h2.9l-3.1,10.9H-47.3z"/>
	<path class="st1" d="M-29.3,176.4c0,1.8-0.5,3.2-1.4,4.2c-0.9,1-2.2,1.5-3.9,1.5c-1,0-2-0.2-2.8-0.7s-1.4-1.1-1.8-2s-0.6-1.9-0.6-3
		c0-1.8,0.5-3.2,1.4-4.2s2.2-1.5,3.9-1.5c1,0,2,0.2,2.8,0.7s1.4,1.1,1.8,2C-29.5,174.2-29.3,175.2-29.3,176.4z M-36.8,176.4
		c0,1.1,0.2,1.9,0.5,2.5c0.4,0.6,0.9,0.8,1.7,0.8c0.8,0,1.4-0.3,1.7-0.8c0.3-0.5,0.5-1.4,0.5-2.5c0-1.1-0.2-1.9-0.5-2.4
		c-0.4-0.5-0.9-0.8-1.7-0.8c-0.8,0-1.4,0.3-1.7,0.8S-36.8,175.3-36.8,176.4z"/>
	<path class="st1" d="M-20.7,170.7c0.4,0,0.7,0,1,0.1l-0.2,2.8c-0.2-0.1-0.5-0.1-0.9-0.1c-1,0-1.7,0.2-2.2,0.7s-0.8,1.2-0.8,2.1v5.6
		h-3v-10.9h2.3l0.4,1.8h0.1c0.3-0.6,0.8-1.1,1.4-1.5S-21.4,170.7-20.7,170.7z"/>
	<path class="st1" d="M-14.3,182.1c-1.3,0-2.3-0.5-3-1.5s-1.1-2.4-1.1-4.1c0-1.8,0.4-3.2,1.1-4.2s1.8-1.5,3.1-1.5
		c1.4,0,2.4,0.5,3.1,1.6h0.1c-0.1-0.8-0.2-1.5-0.2-2.2v-3.5h3v15.2h-2.3l-0.6-1.4h-0.1C-11.8,181.5-12.9,182.1-14.3,182.1z
		 M-13.2,179.7c0.8,0,1.3-0.2,1.7-0.7c0.4-0.4,0.5-1.2,0.6-2.3v-0.3c0-1.2-0.2-2-0.5-2.5s-0.9-0.8-1.8-0.8c-0.7,0-1.2,0.3-1.5,0.8
		c-0.4,0.6-0.6,1.4-0.6,2.5s0.2,1.9,0.6,2.4S-13.9,179.7-13.2,179.7z"/>
	<path class="st1" d="M7.8,178.6c0,1.1-0.4,2-1.2,2.6s-1.9,0.9-3.5,0.9c-0.8,0-1.5-0.1-2-0.2s-1.1-0.3-1.6-0.5V179
		c0.6,0.3,1.2,0.5,1.9,0.7s1.3,0.3,1.8,0.3c1.1,0,1.6-0.3,1.6-0.9c0-0.2-0.1-0.4-0.2-0.6s-0.4-0.3-0.7-0.5s-0.8-0.4-1.4-0.6
		c-0.8-0.4-1.5-0.7-1.9-1c-0.4-0.3-0.7-0.6-0.9-1c-0.2-0.4-0.3-0.9-0.3-1.4c0-1,0.4-1.7,1.1-2.3s1.8-0.8,3.2-0.8
		c1.3,0,2.6,0.3,3.8,0.9l-0.9,2.1c-0.5-0.2-1.1-0.4-1.5-0.6c-0.5-0.1-1-0.2-1.5-0.2c-0.9,0-1.3,0.2-1.3,0.7c0,0.3,0.1,0.5,0.4,0.7
		s0.9,0.5,1.9,0.9c0.9,0.3,1.5,0.7,1.9,1c0.4,0.3,0.7,0.6,0.9,1S7.8,178.1,7.8,178.6z"/>
	<path class="st1" d="M15,182.1c-1.8,0-3.1-0.5-4.1-1.5c-1-1-1.5-2.3-1.5-4.1c0-1.8,0.5-3.2,1.4-4.2s2.2-1.5,3.8-1.5
		c1.5,0,2.7,0.4,3.6,1.3s1.3,2.1,1.3,3.6v1.4h-7c0,0.8,0.3,1.5,0.8,2c0.5,0.5,1.1,0.7,2,0.7c0.7,0,1.3-0.1,1.9-0.2s1.2-0.4,1.8-0.7
		v2.3c-0.5,0.3-1.1,0.5-1.7,0.6S15.9,182.1,15,182.1z M14.6,172.9c-0.6,0-1.1,0.2-1.5,0.6c-0.4,0.4-0.6,1-0.6,1.7h4.2
		c0-0.7-0.2-1.3-0.6-1.7C15.7,173.1,15.2,172.9,14.6,172.9z"/>
	<path class="st1" d="M26.3,182.1c-3.4,0-5.1-1.9-5.1-5.6c0-1.9,0.5-3.3,1.4-4.3s2.2-1.5,4-1.5c1.3,0,2.4,0.2,3.4,0.7l-0.9,2.3
		c-0.5-0.2-0.9-0.3-1.3-0.5c-0.4-0.1-0.8-0.2-1.2-0.2c-1.5,0-2.3,1.1-2.3,3.3c0,2.1,0.8,3.2,2.3,3.2c0.6,0,1.1-0.1,1.6-0.2
		c0.5-0.2,1-0.4,1.5-0.7v2.5c-0.5,0.3-1,0.5-1.5,0.6S27.1,182.1,26.3,182.1z"/>
	<path class="st1" d="M38.3,170.7c0.4,0,0.7,0,1,0.1l-0.2,2.8c-0.2-0.1-0.5-0.1-0.9-0.1c-1,0-1.7,0.2-2.2,0.7s-0.8,1.2-0.8,2.1v5.6
		h-3v-10.9h2.3l0.4,1.8H35c0.3-0.6,0.8-1.1,1.4-1.5S37.6,170.7,38.3,170.7z"/>
	<path class="st1" d="M46.2,182.1c-1.8,0-3.1-0.5-4.1-1.5c-1-1-1.5-2.3-1.5-4.1c0-1.8,0.5-3.2,1.4-4.2s2.2-1.5,3.8-1.5
		c1.5,0,2.7,0.4,3.6,1.3s1.3,2.1,1.3,3.6v1.4h-7c0,0.8,0.3,1.5,0.8,2c0.5,0.5,1.1,0.7,2,0.7c0.7,0,1.3-0.1,1.9-0.2s1.2-0.4,1.8-0.7
		v2.3c-0.5,0.3-1.1,0.5-1.7,0.6S47,182.1,46.2,182.1z M45.8,172.9c-0.6,0-1.1,0.2-1.5,0.6c-0.4,0.4-0.6,1-0.6,1.7h4.2
		c0-0.7-0.2-1.3-0.6-1.7C46.9,173.1,46.4,172.9,45.8,172.9z"/>
	<path class="st1" d="M57.7,179.7c0.5,0,1.1-0.1,1.9-0.3v2.2c-0.7,0.3-1.7,0.5-2.7,0.5c-1.2,0-2.1-0.3-2.6-0.9
		c-0.5-0.6-0.8-1.5-0.8-2.7v-5.3H52v-1.3l1.6-1l0.9-2.3h1.9v2.3h3.1v2.2h-3.1v5.3c0,0.4,0.1,0.7,0.4,0.9
		C57,179.6,57.3,179.7,57.7,179.7z"/>
</g>
<g>
	<path class="st1" d="M94.7,165.9c-1.1,0-2,0.4-2.6,1.3s-0.9,2-0.9,3.6c0,3.2,1.2,4.8,3.6,4.8c1,0,2.2-0.3,3.6-0.8v2.5
		c-1.2,0.5-2.5,0.7-3.9,0.7c-2.1,0-3.7-0.6-4.8-1.9s-1.7-3.1-1.7-5.4c0-1.5,0.3-2.8,0.8-3.9s1.3-2,2.3-2.6s2.2-0.9,3.6-0.9
		c1.4,0,2.8,0.3,4.2,1l-1,2.5c-0.5-0.3-1.1-0.5-1.6-0.7S95.3,165.9,94.7,165.9z"/>
	<path class="st1" d="M108.1,177.9l-0.6-1.5h-0.1c-0.5,0.6-1,1.1-1.5,1.3s-1.2,0.4-2.1,0.4c-1,0-1.9-0.3-2.5-0.9s-0.9-1.5-0.9-2.6
		c0-1.2,0.4-2,1.2-2.6s2-0.9,3.7-0.9l1.9-0.1v-0.5c0-1.1-0.6-1.7-1.7-1.7c-0.9,0-1.9,0.3-3.1,0.8l-1-2c1.3-0.7,2.6-1,4.2-1
		c1.5,0,2.6,0.3,3.4,1s1.2,1.6,1.2,2.9v7.3H108.1z M107.2,172.8l-1.2,0c-0.9,0-1.5,0.2-1.9,0.5s-0.6,0.7-0.6,1.3
		c0,0.8,0.5,1.3,1.4,1.3c0.7,0,1.2-0.2,1.7-0.6s0.6-0.9,0.6-1.6V172.8z"/>
	<path class="st1" d="M116.2,177.9h-3v-15.2h3V177.9z"/>
	<path class="st1" d="M122.3,177.9h-3v-15.2h3V177.9z"/>
	<path class="st1" d="M125.3,164.1c0-1,0.5-1.5,1.6-1.5s1.6,0.5,1.6,1.5c0,0.5-0.1,0.8-0.4,1.1s-0.7,0.4-1.2,0.4
		C125.9,165.6,125.3,165.1,125.3,164.1z M128.4,177.9h-3v-10.9h3V177.9z"/>
	<path class="st1" d="M141.6,177.9h-3v-6.4c0-0.8-0.1-1.4-0.4-1.8s-0.7-0.6-1.3-0.6c-0.8,0-1.4,0.3-1.8,0.8s-0.6,1.5-0.6,2.8v5.1h-3
		v-10.9h2.3l0.4,1.4h0.2c0.3-0.5,0.8-0.9,1.4-1.2s1.2-0.4,2-0.4c1.3,0,2.2,0.3,2.9,1s1,1.7,1,3V177.9z"/>
	<path class="st1" d="M154.2,166.9v1.5l-1.7,0.4c0.3,0.5,0.5,1,0.5,1.6c0,1.2-0.4,2.1-1.2,2.7s-2,1-3.4,1l-0.5,0l-0.4,0
		c-0.3,0.2-0.5,0.5-0.5,0.8c0,0.4,0.5,0.6,1.6,0.6h1.9c1.2,0,2.1,0.3,2.7,0.8s0.9,1.3,0.9,2.3c0,1.3-0.5,2.3-1.6,3s-2.6,1.1-4.6,1.1
		c-1.5,0-2.7-0.3-3.5-0.8s-1.2-1.3-1.2-2.2c0-0.7,0.2-1.2,0.6-1.7s1-0.8,1.8-0.9c-0.3-0.1-0.6-0.3-0.8-0.6s-0.3-0.6-0.3-0.9
		c0-0.4,0.1-0.8,0.4-1s0.6-0.5,1-0.8c-0.6-0.2-1-0.6-1.4-1.2s-0.5-1.2-0.5-1.9c0-1.2,0.4-2.1,1.2-2.8s1.9-1,3.3-1
		c0.3,0,0.7,0,1.1,0.1s0.7,0.1,0.8,0.1H154.2z M145.8,179.4c0,0.4,0.2,0.7,0.6,1s0.9,0.4,1.7,0.4c1.1,0,1.9-0.1,2.5-0.4
		s0.9-0.7,0.9-1.2c0-0.4-0.2-0.7-0.5-0.8s-0.9-0.2-1.7-0.2h-1.5c-0.5,0-1,0.1-1.4,0.4S145.8,179,145.8,179.4z M146.9,170.5
		c0,0.6,0.1,1.1,0.4,1.4s0.7,0.5,1.2,0.5c0.6,0,1-0.2,1.2-0.5s0.4-0.8,0.4-1.4c0-1.3-0.5-2-1.6-2
		C147.4,168.5,146.9,169.2,146.9,170.5z"/>
	<path class="st1" d="M159.6,166.9h3.3l2.1,6.1c0.2,0.5,0.3,1.2,0.4,1.9h0.1c0.1-0.7,0.2-1.3,0.4-1.9l2-6.1h3.2l-4.6,12.3
		c-0.4,1.1-1,2-1.8,2.6s-1.7,0.8-2.7,0.8c-0.5,0-1-0.1-1.5-0.2v-2.4c0.4,0.1,0.7,0.1,1.2,0.1c0.5,0,1-0.2,1.4-0.5s0.7-0.8,0.9-1.5
		l0.2-0.5L159.6,166.9z"/>
	<path class="st1" d="M182.5,172.4c0,1.8-0.5,3.2-1.4,4.2s-2.2,1.5-3.9,1.5c-1,0-2-0.2-2.8-0.7s-1.4-1.1-1.8-2s-0.6-1.9-0.6-3
		c0-1.8,0.5-3.2,1.4-4.2s2.2-1.5,3.9-1.5c1,0,2,0.2,2.8,0.7s1.4,1.1,1.8,2S182.5,171.2,182.5,172.4z M175,172.4
		c0,1.1,0.2,1.9,0.5,2.5s0.9,0.8,1.7,0.8c0.8,0,1.4-0.3,1.7-0.8s0.5-1.4,0.5-2.5c0-1.1-0.2-1.9-0.5-2.4s-0.9-0.8-1.7-0.8
		c-0.8,0-1.4,0.3-1.7,0.8S175,171.3,175,172.4z"/>
	<path class="st1" d="M192.7,177.9l-0.4-1.4h-0.2c-0.3,0.5-0.8,0.9-1.4,1.2s-1.3,0.4-2,0.4c-1.3,0-2.2-0.3-2.9-1s-1-1.7-1-3v-7.1h3
		v6.4c0,0.8,0.1,1.4,0.4,1.8s0.7,0.6,1.3,0.6c0.8,0,1.4-0.3,1.8-0.8s0.6-1.5,0.6-2.8v-5.1h3v10.9H192.7z"/>
	<path class="st1" d="M204.2,166.7c0.4,0,0.7,0,1,0.1l-0.2,2.8c-0.2-0.1-0.5-0.1-0.9-0.1c-1,0-1.7,0.2-2.2,0.7s-0.8,1.2-0.8,2.1v5.6
		h-3v-10.9h2.3l0.4,1.8h0.1c0.3-0.6,0.8-1.1,1.4-1.5S203.5,166.7,204.2,166.7z"/>
	<path class="st1" d="M218.5,166.7c1.3,0,2.3,0.5,3,1.5s1.1,2.4,1.1,4.1c0,1.8-0.4,3.2-1.1,4.2s-1.8,1.5-3.1,1.5
		c-1.3,0-2.3-0.5-3-1.4h-0.2l-0.5,1.2h-2.3v-15.2h3v3.5c0,0.4,0,1.2-0.1,2.2h0.1C216.1,167.3,217.1,166.7,218.5,166.7z M217.5,169.1
		c-0.7,0-1.3,0.2-1.6,0.7s-0.5,1.2-0.5,2.2v0.3c0,1.2,0.2,2,0.5,2.5s0.9,0.8,1.7,0.8c0.6,0,1.1-0.3,1.5-0.8s0.5-1.4,0.5-2.5
		s-0.2-1.9-0.5-2.4S218.1,169.1,217.5,169.1z"/>
	<path class="st1" d="M230,178.1c-1.8,0-3.1-0.5-4.1-1.5s-1.5-2.3-1.5-4.1c0-1.8,0.5-3.2,1.4-4.2s2.2-1.5,3.8-1.5
		c1.5,0,2.7,0.4,3.6,1.3s1.3,2.1,1.3,3.6v1.4h-7c0,0.8,0.3,1.5,0.8,2s1.1,0.7,2,0.7c0.7,0,1.3-0.1,1.9-0.2s1.2-0.4,1.8-0.7v2.3
		c-0.5,0.3-1.1,0.5-1.7,0.6S230.8,178.1,230,178.1z M229.6,168.9c-0.6,0-1.1,0.2-1.5,0.6s-0.6,1-0.6,1.7h4.2c0-0.7-0.2-1.3-0.6-1.7
		S230.2,168.9,229.6,168.9z"/>
	<path class="st1" d="M244.5,174.6c0,1.1-0.4,2-1.2,2.6s-1.9,0.9-3.5,0.9c-0.8,0-1.5-0.1-2-0.2s-1.1-0.3-1.6-0.5V175
		c0.6,0.3,1.2,0.5,1.9,0.7s1.3,0.3,1.8,0.3c1.1,0,1.6-0.3,1.6-0.9c0-0.2-0.1-0.4-0.2-0.6s-0.4-0.3-0.7-0.5s-0.8-0.4-1.4-0.6
		c-0.8-0.4-1.5-0.7-1.9-1s-0.7-0.6-0.9-1s-0.3-0.9-0.3-1.4c0-1,0.4-1.7,1.1-2.3s1.8-0.8,3.2-0.8c1.3,0,2.6,0.3,3.8,0.9l-0.9,2.1
		c-0.5-0.2-1.1-0.4-1.5-0.6s-1-0.2-1.5-0.2c-0.9,0-1.3,0.2-1.3,0.7c0,0.3,0.1,0.5,0.4,0.7s0.9,0.5,1.9,0.9c0.9,0.3,1.5,0.7,1.9,1
		s0.7,0.6,0.9,1S244.5,174.1,244.5,174.6z"/>
	<path class="st1" d="M251.4,175.7c0.5,0,1.1-0.1,1.9-0.3v2.2c-0.7,0.3-1.7,0.5-2.7,0.5c-1.2,0-2.1-0.3-2.6-0.9s-0.8-1.5-0.8-2.7
		v-5.3h-1.4v-1.3l1.6-1l0.9-2.3h1.9v2.3h3.1v2.2h-3.1v5.3c0,0.4,0.1,0.7,0.4,0.9S251,175.7,251.4,175.7z"/>
	<path class="st1" d="M102.6,193.2H100v8.7h-3v-8.7h-1.6v-1.4l1.6-0.8v-0.8c0-1.2,0.3-2.2,0.9-2.7s1.6-0.9,2.9-0.9
		c1,0,1.9,0.2,2.7,0.5l-0.8,2.2c-0.6-0.2-1.2-0.3-1.7-0.3c-0.4,0-0.7,0.1-0.9,0.4s-0.3,0.6-0.3,1v0.7h2.6V193.2z"/>
	<path class="st1" d="M110.4,190.7c0.4,0,0.7,0,1,0.1l-0.2,2.8c-0.2-0.1-0.5-0.1-0.9-0.1c-1,0-1.7,0.2-2.2,0.7s-0.8,1.2-0.8,2.1v5.6
		h-3v-10.9h2.3l0.4,1.8h0.1c0.3-0.6,0.8-1.1,1.4-1.5C109.1,190.9,109.7,190.7,110.4,190.7z"/>
	<path class="st1" d="M113.3,188.1c0-1,0.5-1.5,1.6-1.5s1.6,0.5,1.6,1.5c0,0.5-0.1,0.8-0.4,1.1s-0.7,0.4-1.2,0.4
		C113.8,189.6,113.3,189.1,113.3,188.1z M116.4,201.9h-3v-10.9h3V201.9z"/>
	<path class="st1" d="M124.4,202.1c-1.8,0-3.1-0.5-4.1-1.5c-1-1-1.5-2.3-1.5-4.1c0-1.8,0.5-3.2,1.4-4.2c0.9-1,2.2-1.5,3.8-1.5
		c1.5,0,2.7,0.4,3.6,1.3s1.3,2.1,1.3,3.6v1.4h-7c0,0.8,0.3,1.5,0.8,2c0.5,0.5,1.1,0.7,2,0.7c0.7,0,1.3-0.1,1.9-0.2s1.2-0.4,1.8-0.7
		v2.3c-0.5,0.3-1.1,0.5-1.7,0.6S125.3,202.1,124.4,202.1z M124,192.9c-0.6,0-1.1,0.2-1.5,0.6s-0.6,1-0.6,1.7h4.2
		c0-0.7-0.2-1.3-0.6-1.7S124.6,192.9,124,192.9z"/>
	<path class="st1" d="M141.4,201.9h-3v-6.4c0-0.8-0.1-1.4-0.4-1.8c-0.3-0.4-0.7-0.6-1.3-0.6c-0.8,0-1.4,0.3-1.8,0.8
		s-0.6,1.5-0.6,2.8v5.1h-3v-10.9h2.3l0.4,1.4h0.2c0.3-0.5,0.8-0.9,1.4-1.2c0.6-0.3,1.2-0.4,2-0.4c1.3,0,2.2,0.3,2.9,1
		c0.7,0.7,1,1.7,1,3V201.9z"/>
	<path class="st1" d="M147.9,202.1c-1.3,0-2.3-0.5-3-1.5s-1.1-2.4-1.1-4.1c0-1.8,0.4-3.2,1.1-4.2c0.7-1,1.8-1.5,3.1-1.5
		c1.4,0,2.4,0.5,3.1,1.6h0.1c-0.1-0.8-0.2-1.5-0.2-2.2v-3.5h3v15.2h-2.3l-0.6-1.4H151C150.3,201.5,149.3,202.1,147.9,202.1z
		 M149,199.7c0.8,0,1.3-0.2,1.7-0.7c0.4-0.4,0.5-1.2,0.6-2.3v-0.3c0-1.2-0.2-2-0.5-2.5s-0.9-0.8-1.8-0.8c-0.7,0-1.2,0.3-1.5,0.8
		c-0.4,0.6-0.6,1.4-0.6,2.5s0.2,1.9,0.6,2.4S148.3,199.7,149,199.7z"/>
	<path class="st1" d="M172.2,196.4c0,1.8-0.5,3.2-1.4,4.2c-0.9,1-2.2,1.5-3.9,1.5c-1,0-2-0.2-2.8-0.7s-1.4-1.1-1.8-2s-0.6-1.9-0.6-3
		c0-1.8,0.5-3.2,1.4-4.2c0.9-1,2.2-1.5,3.9-1.5c1,0,2,0.2,2.8,0.7c0.8,0.5,1.4,1.1,1.8,2C172,194.2,172.2,195.2,172.2,196.4z
		 M164.7,196.4c0,1.1,0.2,1.9,0.5,2.5c0.4,0.6,0.9,0.8,1.7,0.8c0.8,0,1.4-0.3,1.7-0.8c0.3-0.5,0.5-1.4,0.5-2.5
		c0-1.1-0.2-1.9-0.5-2.4c-0.4-0.5-0.9-0.8-1.7-0.8c-0.8,0-1.4,0.3-1.7,0.8S164.7,195.3,164.7,196.4z"/>
	<path class="st1" d="M184.8,201.9h-3v-6.4c0-0.8-0.1-1.4-0.4-1.8c-0.3-0.4-0.7-0.6-1.3-0.6c-0.8,0-1.4,0.3-1.8,0.8
		s-0.6,1.5-0.6,2.8v5.1h-3v-10.9h2.3l0.4,1.4h0.2c0.3-0.5,0.8-0.9,1.4-1.2c0.6-0.3,1.2-0.4,2-0.4c1.3,0,2.2,0.3,2.9,1
		c0.7,0.7,1,1.7,1,3V201.9z"/>
	<path class="st1" d="M195.6,201.9l-4.2-10.9h3.1l2.1,6.2c0.2,0.8,0.4,1.5,0.4,2.2h0.1c0-0.6,0.2-1.4,0.4-2.2l2.1-6.2h3.1l-4.2,10.9
		H195.6z"/>
	<path class="st1" d="M204.3,188.1c0-1,0.5-1.5,1.6-1.5s1.6,0.5,1.6,1.5c0,0.5-0.1,0.8-0.4,1.1s-0.7,0.4-1.2,0.4
		C204.8,189.6,204.3,189.1,204.3,188.1z M207.4,201.9h-3v-10.9h3V201.9z"/>
	<path class="st1" d="M214,202.1c-1.3,0-2.3-0.5-3-1.5s-1.1-2.4-1.1-4.1c0-1.8,0.4-3.2,1.1-4.2c0.7-1,1.8-1.5,3.1-1.5
		c1.4,0,2.4,0.5,3.1,1.6h0.1c-0.1-0.8-0.2-1.5-0.2-2.2v-3.5h3v15.2h-2.3l-0.6-1.4h-0.1C216.4,201.5,215.3,202.1,214,202.1z
		 M215,199.7c0.8,0,1.3-0.2,1.7-0.7c0.4-0.4,0.5-1.2,0.6-2.3v-0.3c0-1.2-0.2-2-0.5-2.5s-0.9-0.8-1.8-0.8c-0.7,0-1.2,0.3-1.5,0.8
		c-0.4,0.6-0.6,1.4-0.6,2.5s0.2,1.9,0.6,2.4S214.3,199.7,215,199.7z"/>
	<path class="st1" d="M228.1,202.1c-1.8,0-3.1-0.5-4.1-1.5c-1-1-1.5-2.3-1.5-4.1c0-1.8,0.5-3.2,1.4-4.2c0.9-1,2.2-1.5,3.8-1.5
		c1.5,0,2.7,0.4,3.6,1.3s1.3,2.1,1.3,3.6v1.4h-7c0,0.8,0.3,1.5,0.8,2c0.5,0.5,1.1,0.7,2,0.7c0.7,0,1.3-0.1,1.9-0.2s1.2-0.4,1.8-0.7
		v2.3c-0.5,0.3-1.1,0.5-1.7,0.6S229,202.1,228.1,202.1z M227.7,192.9c-0.6,0-1.1,0.2-1.5,0.6s-0.6,1-0.6,1.7h4.2
		c0-0.7-0.2-1.3-0.6-1.7S228.3,192.9,227.7,192.9z"/>
	<path class="st1" d="M244.9,196.4c0,1.8-0.5,3.2-1.4,4.2c-0.9,1-2.2,1.5-3.9,1.5c-1,0-2-0.2-2.8-0.7s-1.4-1.1-1.8-2s-0.6-1.9-0.6-3
		c0-1.8,0.5-3.2,1.4-4.2c0.9-1,2.2-1.5,3.9-1.5c1,0,2,0.2,2.8,0.7c0.8,0.5,1.4,1.1,1.8,2C244.7,194.2,244.9,195.2,244.9,196.4z
		 M237.3,196.4c0,1.1,0.2,1.9,0.5,2.5c0.4,0.6,0.9,0.8,1.7,0.8c0.8,0,1.4-0.3,1.7-0.8c0.3-0.5,0.5-1.4,0.5-2.5
		c0-1.1-0.2-1.9-0.5-2.4c-0.4-0.5-0.9-0.8-1.7-0.8c-0.8,0-1.4,0.3-1.7,0.8S237.3,195.3,237.3,196.4z"/>
</g>
<g>
	<path class="st1" d="M43.1,33.4c0,2.4-0.6,4.2-1.8,5.4s-2.9,1.9-5,1.9s-3.9-0.6-5-1.9s-1.8-3.1-1.8-5.5s0.6-4.2,1.8-5.4
		s2.9-1.9,5.1-1.9s3.9,0.6,5,1.9S43.1,31,43.1,33.4z M32.6,33.4c0,1.6,0.3,2.8,0.9,3.6s1.5,1.2,2.7,1.2c2.4,0,3.6-1.6,3.6-4.8
		c0-3.2-1.2-4.8-3.6-4.8c-1.2,0-2.1,0.4-2.7,1.2S32.6,31.8,32.6,33.4z"/>
	<path class="st1" d="M51.8,40.8c-1.3,0-2.3-0.5-3-1.4h-0.2c0.1,0.9,0.2,1.4,0.2,1.6v4.4h-3V29.6h2.4l0.4,1.4h0.1
		c0.7-1.1,1.7-1.6,3.1-1.6c1.3,0,2.3,0.5,3,1.5s1.1,2.4,1.1,4.2c0,1.2-0.2,2.2-0.5,3s-0.8,1.5-1.5,2S52.6,40.8,51.8,40.8z
		 M50.9,31.8c-0.7,0-1.3,0.2-1.6,0.7s-0.5,1.2-0.5,2.2v0.3c0,1.2,0.2,2,0.5,2.5s0.9,0.8,1.7,0.8c1.3,0,2-1.1,2-3.3
		c0-1.1-0.2-1.9-0.5-2.4S51.6,31.8,50.9,31.8z"/>
	<path class="st1" d="M63.4,40.8c-1.8,0-3.1-0.5-4.1-1.5s-1.5-2.3-1.5-4.1c0-1.8,0.5-3.2,1.4-4.2s2.2-1.5,3.8-1.5
		c1.5,0,2.7,0.4,3.6,1.3s1.3,2.1,1.3,3.6v1.4h-7c0,0.8,0.3,1.5,0.8,2s1.1,0.7,2,0.7c0.7,0,1.3-0.1,1.9-0.2s1.2-0.4,1.8-0.7V40
		c-0.5,0.3-1.1,0.5-1.7,0.6S64.2,40.8,63.4,40.8z M63,31.6c-0.6,0-1.1,0.2-1.5,0.6s-0.6,1-0.6,1.7H65c0-0.7-0.2-1.3-0.6-1.7
		S63.6,31.6,63,31.6z"/>
	<path class="st1" d="M80.3,40.6h-3v-6.4c0-0.8-0.1-1.4-0.4-1.8s-0.7-0.6-1.3-0.6c-0.8,0-1.4,0.3-1.8,0.8s-0.6,1.5-0.6,2.8v5.1h-3
		V29.6h2.3l0.4,1.4h0.2c0.3-0.5,0.8-0.9,1.4-1.2s1.2-0.4,2-0.4c1.3,0,2.2,0.3,2.9,1s1,1.7,1,3V40.6z"/>
	<path class="st1" d="M83.3,26.8c0-1,0.5-1.5,1.6-1.5s1.6,0.5,1.6,1.5c0,0.5-0.1,0.8-0.4,1.1s-0.7,0.4-1.2,0.4
		C83.8,28.3,83.3,27.8,83.3,26.8z M86.4,40.6h-3V29.6h3V40.6z"/>
	<path class="st1" d="M99.6,40.6h-3v-6.4c0-0.8-0.1-1.4-0.4-1.8s-0.7-0.6-1.3-0.6c-0.8,0-1.4,0.3-1.8,0.8s-0.6,1.5-0.6,2.8v5.1h-3
		V29.6h2.3l0.4,1.4h0.2c0.3-0.5,0.8-0.9,1.4-1.2s1.2-0.4,2-0.4c1.3,0,2.2,0.3,2.9,1s1,1.7,1,3V40.6z"/>
	<path class="st1" d="M112.1,29.6v1.5l-1.7,0.4c0.3,0.5,0.5,1,0.5,1.6c0,1.2-0.4,2.1-1.2,2.7s-2,1-3.4,1l-0.5,0l-0.4,0
		c-0.3,0.2-0.5,0.5-0.5,0.8c0,0.4,0.5,0.6,1.6,0.6h1.9c1.2,0,2.1,0.3,2.7,0.8s0.9,1.3,0.9,2.3c0,1.3-0.5,2.3-1.6,3s-2.6,1.1-4.6,1.1
		c-1.5,0-2.7-0.3-3.5-0.8s-1.2-1.3-1.2-2.2c0-0.7,0.2-1.2,0.6-1.7s1-0.8,1.8-0.9c-0.3-0.1-0.6-0.3-0.8-0.6s-0.3-0.6-0.3-0.9
		c0-0.4,0.1-0.8,0.4-1s0.6-0.5,1-0.8c-0.6-0.2-1-0.6-1.4-1.2s-0.5-1.2-0.5-1.9c0-1.2,0.4-2.1,1.2-2.8s1.9-1,3.3-1
		c0.3,0,0.7,0,1.1,0.1s0.7,0.1,0.8,0.1H112.1z M103.7,42.1c0,0.4,0.2,0.7,0.6,1s0.9,0.4,1.7,0.4c1.1,0,1.9-0.1,2.5-0.4
		s0.9-0.7,0.9-1.2c0-0.4-0.2-0.7-0.5-0.8s-0.9-0.2-1.7-0.2h-1.5c-0.5,0-1,0.1-1.4,0.4S103.7,41.7,103.7,42.1z M104.8,33.2
		c0,0.6,0.1,1.1,0.4,1.4s0.7,0.5,1.2,0.5c0.6,0,1-0.2,1.2-0.5s0.4-0.8,0.4-1.4c0-1.3-0.5-2-1.6-2C105.4,31.2,104.8,31.9,104.8,33.2z
		"/>
	<path class="st1" d="M126.1,40.6l-0.6-1.5h-0.1c-0.5,0.6-1,1.1-1.5,1.3s-1.2,0.4-2.1,0.4c-1,0-1.9-0.3-2.5-0.9s-0.9-1.5-0.9-2.6
		c0-1.2,0.4-2,1.2-2.6s2-0.9,3.7-0.9l1.9-0.1v-0.5c0-1.1-0.6-1.7-1.7-1.7c-0.9,0-1.9,0.3-3.1,0.8l-1-2c1.3-0.7,2.6-1,4.2-1
		c1.5,0,2.6,0.3,3.4,1s1.2,1.6,1.2,2.9v7.3H126.1z M125.2,35.5l-1.2,0c-0.9,0-1.5,0.2-1.9,0.5s-0.6,0.7-0.6,1.3
		c0,0.8,0.5,1.3,1.4,1.3c0.7,0,1.2-0.2,1.7-0.6s0.6-0.9,0.6-1.6V35.5z"/>
	<path class="st1" d="M139.4,40.6h-3V25.4h3V40.6z"/>
	<path class="st1" d="M142.4,26.8c0-1,0.5-1.5,1.6-1.5s1.6,0.5,1.6,1.5c0,0.5-0.1,0.8-0.4,1.1s-0.7,0.4-1.2,0.4
		C142.9,28.3,142.4,27.8,142.4,26.8z M145.5,40.6h-3V29.6h3V40.6z"/>
	<path class="st1" d="M158.7,40.6h-3v-6.4c0-0.8-0.1-1.4-0.4-1.8s-0.7-0.6-1.3-0.6c-0.8,0-1.4,0.3-1.8,0.8s-0.6,1.5-0.6,2.8v5.1h-3
		V29.6h2.3l0.4,1.4h0.2c0.3-0.5,0.8-0.9,1.4-1.2s1.2-0.4,2-0.4c1.3,0,2.2,0.3,2.9,1s1,1.7,1,3V40.6z"/>
	<path class="st1" d="M164.6,34.6l1.3-1.7l3.1-3.3h3.4l-4.3,4.7l4.6,6.2h-3.4l-3.1-4.4l-1.3,1v3.4h-3V25.4h3v6.8L164.6,34.6
		L164.6,34.6z"/>
	<path class="st1" d="M47.6,61.3c0,1.1-0.4,2-1.2,2.6c-0.8,0.6-1.9,0.9-3.5,0.9c-0.8,0-1.5-0.1-2-0.2c-0.6-0.1-1.1-0.3-1.6-0.5v-2.5
		c0.6,0.3,1.2,0.5,1.9,0.7s1.3,0.3,1.8,0.3c1.1,0,1.6-0.3,1.6-0.9c0-0.2-0.1-0.4-0.2-0.6s-0.4-0.3-0.7-0.5s-0.8-0.4-1.4-0.6
		c-0.8-0.4-1.5-0.7-1.9-1s-0.7-0.6-0.9-1s-0.3-0.9-0.3-1.4c0-1,0.4-1.7,1.1-2.3s1.8-0.8,3.2-0.8c1.3,0,2.6,0.3,3.8,0.9l-0.9,2.1
		c-0.5-0.2-1.1-0.4-1.5-0.6s-1-0.2-1.5-0.2c-0.9,0-1.3,0.2-1.3,0.7c0,0.3,0.1,0.5,0.4,0.7s0.9,0.5,1.9,0.9c0.9,0.3,1.5,0.7,1.9,1
		s0.7,0.6,0.9,1S47.6,60.8,47.6,61.3z"/>
	<path class="st1" d="M54.9,64.8c-1.8,0-3.1-0.5-4.1-1.5c-1-1-1.5-2.3-1.5-4.1c0-1.8,0.5-3.2,1.4-4.2s2.2-1.5,3.8-1.5
		c1.5,0,2.7,0.4,3.6,1.3s1.3,2.1,1.3,3.6v1.4h-7c0,0.8,0.3,1.5,0.8,2s1.1,0.7,2,0.7c0.7,0,1.3-0.1,1.9-0.2s1.2-0.4,1.8-0.7V64
		c-0.5,0.3-1.1,0.5-1.7,0.6C56.5,64.7,55.8,64.8,54.9,64.8z M54.5,55.6c-0.6,0-1.1,0.2-1.5,0.6s-0.6,1-0.6,1.7h4.2
		c0-0.7-0.2-1.3-0.6-1.7S55.1,55.6,54.5,55.6z"/>
	<path class="st1" d="M71.9,64.6h-3v-6.4c0-0.8-0.1-1.4-0.4-1.8s-0.7-0.6-1.3-0.6c-0.8,0-1.4,0.3-1.8,0.8s-0.6,1.5-0.6,2.8v5.1h-3
		V53.6h2.3l0.4,1.4h0.2c0.3-0.5,0.8-0.9,1.4-1.2s1.2-0.4,2-0.4c1.3,0,2.2,0.3,2.9,1s1,1.7,1,3V64.6z"/>
	<path class="st1" d="M79.5,62.4c0.5,0,1.1-0.1,1.9-0.3v2.2c-0.7,0.3-1.7,0.5-2.7,0.5c-1.2,0-2.1-0.3-2.6-0.9
		c-0.5-0.6-0.8-1.5-0.8-2.7v-5.3h-1.4v-1.3l1.6-1l0.9-2.3h1.9v2.3h3.1v2.2h-3.1v5.3c0,0.4,0.1,0.7,0.4,0.9S79.1,62.4,79.5,62.4z"/>
	<path class="st1" d="M94.9,53.4c1.3,0,2.3,0.5,3,1.5s1.1,2.4,1.1,4.1c0,1.8-0.4,3.2-1.1,4.2c-0.8,1-1.8,1.5-3.1,1.5
		c-1.3,0-2.3-0.5-3-1.4h-0.2l-0.5,1.2h-2.3V49.4h3v3.5c0,0.4,0,1.2-0.1,2.2h0.1C92.5,54,93.5,53.4,94.9,53.4z M93.9,55.8
		c-0.7,0-1.3,0.2-1.6,0.7s-0.5,1.2-0.5,2.2v0.3c0,1.2,0.2,2,0.5,2.5s0.9,0.8,1.7,0.8c0.6,0,1.1-0.3,1.5-0.8S96,60.1,96,59
		s-0.2-1.9-0.5-2.4S94.5,55.8,93.9,55.8z"/>
	<path class="st1" d="M99.9,53.6h3.3l2.1,6.1c0.2,0.5,0.3,1.2,0.4,1.9h0.1c0.1-0.7,0.2-1.3,0.4-1.9l2-6.1h3.2L106.7,66
		c-0.4,1.1-1,2-1.8,2.6s-1.7,0.8-2.7,0.8c-0.5,0-1-0.1-1.5-0.2v-2.4c0.4,0.1,0.7,0.1,1.2,0.1c0.5,0,1-0.2,1.4-0.5s0.7-0.8,0.9-1.5
		l0.2-0.5L99.9,53.6z"/>
	<path class="st1" d="M116.5,53.6h3.3l2.1,6.1c0.2,0.5,0.3,1.2,0.4,1.9h0.1c0.1-0.7,0.2-1.3,0.4-1.9l2-6.1h3.2L123.2,66
		c-0.4,1.1-1,2-1.8,2.6s-1.7,0.8-2.7,0.8c-0.5,0-1-0.1-1.5-0.2v-2.4c0.4,0.1,0.7,0.1,1.2,0.1c0.5,0,1-0.2,1.4-0.5s0.7-0.8,0.9-1.5
		l0.2-0.5L116.5,53.6z"/>
	<path class="st1" d="M139.3,59.1c0,1.8-0.5,3.2-1.4,4.2c-0.9,1-2.2,1.5-3.9,1.5c-1,0-2-0.2-2.8-0.7c-0.8-0.5-1.4-1.1-1.8-2
		s-0.6-1.9-0.6-3c0-1.8,0.5-3.2,1.4-4.2s2.2-1.5,3.9-1.5c1,0,2,0.2,2.8,0.7s1.4,1.1,1.8,2S139.3,57.9,139.3,59.1z M131.8,59.1
		c0,1.1,0.2,1.9,0.5,2.5s0.9,0.8,1.7,0.8c0.8,0,1.4-0.3,1.7-0.8s0.5-1.4,0.5-2.5c0-1.1-0.2-1.9-0.5-2.4s-0.9-0.8-1.7-0.8
		c-0.8,0-1.4,0.3-1.7,0.8S131.8,58,131.8,59.1z"/>
	<path class="st1" d="M149.5,64.6l-0.4-1.4H149c-0.3,0.5-0.8,0.9-1.4,1.2s-1.3,0.4-2,0.4c-1.3,0-2.2-0.3-2.9-1c-0.7-0.7-1-1.7-1-3
		v-7.1h3V60c0,0.8,0.1,1.4,0.4,1.8s0.7,0.6,1.3,0.6c0.8,0,1.4-0.3,1.8-0.8s0.6-1.5,0.6-2.8v-5.1h3v10.9H149.5z"/>
	<path class="st1" d="M161,53.4c0.4,0,0.7,0,1,0.1l-0.2,2.8c-0.2-0.1-0.5-0.1-0.9-0.1c-1,0-1.7,0.2-2.2,0.7s-0.8,1.2-0.8,2.1v5.6h-3
		V53.6h2.3l0.4,1.8h0.1c0.3-0.6,0.8-1.1,1.4-1.5S160.3,53.4,161,53.4z"/>
	<path class="st1" d="M33.3,79.9h-2.6v8.7h-3v-8.7h-1.6v-1.4l1.6-0.8v-0.8c0-1.2,0.3-2.2,0.9-2.7c0.6-0.6,1.6-0.9,2.9-0.9
		c1,0,1.9,0.2,2.7,0.5l-0.8,2.2c-0.6-0.2-1.2-0.3-1.7-0.3c-0.4,0-0.7,0.1-0.9,0.4c-0.2,0.3-0.3,0.6-0.3,1v0.7h2.6V79.9z"/>
	<path class="st1" d="M42,88.6l-0.6-1.5h-0.1c-0.5,0.6-1,1.1-1.5,1.3s-1.2,0.4-2.1,0.4c-1,0-1.9-0.3-2.5-0.9s-0.9-1.5-0.9-2.6
		c0-1.2,0.4-2,1.2-2.6s2-0.9,3.7-0.9l1.9-0.1v-0.5c0-1.1-0.6-1.7-1.7-1.7c-0.9,0-1.9,0.3-3.1,0.8l-1-2c1.3-0.7,2.6-1,4.2-1
		c1.5,0,2.6,0.3,3.4,1S44,80,44,81.3v7.3H42z M41.1,83.5l-1.2,0c-0.9,0-1.5,0.2-1.9,0.5s-0.6,0.7-0.6,1.3c0,0.8,0.5,1.3,1.4,1.3
		c0.7,0,1.2-0.2,1.7-0.6s0.6-0.9,0.6-1.6V83.5z"/>
	<path class="st1" d="M49.7,88.6l-4.2-10.9h3.1l2.1,6.2c0.2,0.8,0.4,1.5,0.4,2.2h0.1c0-0.6,0.2-1.4,0.4-2.2l2.1-6.2h3.1l-4.2,10.9
		H49.7z"/>
	<path class="st1" d="M68.4,83.1c0,1.8-0.5,3.2-1.4,4.2s-2.2,1.5-3.9,1.5c-1,0-2-0.2-2.8-0.7s-1.4-1.1-1.8-2s-0.6-1.9-0.6-3
		c0-1.8,0.5-3.2,1.4-4.2s2.2-1.5,3.9-1.5c1,0,2,0.2,2.8,0.7s1.4,1.1,1.8,2S68.4,81.9,68.4,83.1z M60.9,83.1c0,1.1,0.2,1.9,0.5,2.5
		s0.9,0.8,1.7,0.8c0.8,0,1.4-0.3,1.7-0.8s0.5-1.4,0.5-2.5c0-1.1-0.2-1.9-0.5-2.4s-0.9-0.8-1.7-0.8c-0.8,0-1.4,0.3-1.7,0.8
		S60.9,82,60.9,83.1z"/>
	<path class="st1" d="M77,77.4c0.4,0,0.7,0,1,0.1l-0.2,2.8c-0.2-0.1-0.5-0.1-0.9-0.1c-1,0-1.7,0.2-2.2,0.7s-0.8,1.2-0.8,2.1v5.6h-3
		V77.6h2.3l0.4,1.8h0.1c0.3-0.6,0.8-1.1,1.4-1.5S76.3,77.4,77,77.4z"/>
	<path class="st1" d="M79.8,74.8c0-1,0.5-1.5,1.6-1.5s1.6,0.5,1.6,1.5c0,0.5-0.1,0.8-0.4,1.1c-0.3,0.3-0.7,0.4-1.2,0.4
		C80.4,76.3,79.8,75.8,79.8,74.8z M82.9,88.6h-3V77.6h3V88.6z"/>
	<path class="st1" d="M90.7,86.4c0.5,0,1.1-0.1,1.9-0.3v2.2c-0.7,0.3-1.7,0.5-2.7,0.5c-1.2,0-2.1-0.3-2.6-0.9s-0.8-1.5-0.8-2.7v-5.3
		H85v-1.3l1.6-1l0.9-2.3h1.9v2.3h3.1v2.2h-3.1v5.3c0,0.4,0.1,0.7,0.4,0.9S90.3,86.4,90.7,86.4z"/>
	<path class="st1" d="M99.7,88.8c-1.8,0-3.1-0.5-4.1-1.5s-1.5-2.3-1.5-4.1c0-1.8,0.5-3.2,1.4-4.2s2.2-1.5,3.8-1.5
		c1.5,0,2.7,0.4,3.6,1.3s1.3,2.1,1.3,3.6v1.4h-7c0,0.8,0.3,1.5,0.8,2s1.1,0.7,2,0.7c0.7,0,1.3-0.1,1.9-0.2s1.2-0.4,1.8-0.7V88
		c-0.5,0.3-1.1,0.5-1.7,0.6S100.5,88.8,99.7,88.8z M99.3,79.6c-0.6,0-1.1,0.2-1.5,0.6s-0.6,1-0.6,1.7h4.2c0-0.7-0.2-1.3-0.6-1.7
		S99.9,79.6,99.3,79.6z"/>
	<path class="st1" d="M116.2,88.8c-3.4,0-5.1-1.9-5.1-5.6c0-1.9,0.5-3.3,1.4-4.3s2.2-1.5,4-1.5c1.3,0,2.4,0.2,3.4,0.7l-0.9,2.3
		c-0.5-0.2-0.9-0.3-1.3-0.5s-0.8-0.2-1.2-0.2c-1.5,0-2.3,1.1-2.3,3.3c0,2.1,0.8,3.2,2.3,3.2c0.6,0,1.1-0.1,1.6-0.2s1-0.4,1.5-0.7
		v2.5c-0.5,0.3-1,0.5-1.5,0.6S116.9,88.8,116.2,88.8z"/>
	<path class="st1" d="M132,83.1c0,1.8-0.5,3.2-1.4,4.2s-2.2,1.5-3.9,1.5c-1,0-2-0.2-2.8-0.7s-1.4-1.1-1.8-2s-0.6-1.9-0.6-3
		c0-1.8,0.5-3.2,1.4-4.2s2.2-1.5,3.9-1.5c1,0,2,0.2,2.8,0.7s1.4,1.1,1.8,2S132,81.9,132,83.1z M124.4,83.1c0,1.1,0.2,1.9,0.5,2.5
		s0.9,0.8,1.7,0.8c0.8,0,1.4-0.3,1.7-0.8s0.5-1.4,0.5-2.5c0-1.1-0.2-1.9-0.5-2.4s-0.9-0.8-1.7-0.8c-0.8,0-1.4,0.3-1.7,0.8
		S124.4,82,124.4,83.1z"/>
	<path class="st1" d="M142.1,88.6l-0.4-1.4h-0.2c-0.3,0.5-0.8,0.9-1.4,1.2s-1.3,0.4-2,0.4c-1.3,0-2.2-0.3-2.9-1s-1-1.7-1-3v-7.1h3
		V84c0,0.8,0.1,1.4,0.4,1.8s0.7,0.6,1.3,0.6c0.8,0,1.4-0.3,1.8-0.8s0.6-1.5,0.6-2.8v-5.1h3v10.9H142.1z"/>
	<path class="st1" d="M155.2,85.3c0,1.1-0.4,2-1.2,2.6s-1.9,0.9-3.5,0.9c-0.8,0-1.5-0.1-2-0.2s-1.1-0.3-1.6-0.5v-2.5
		c0.6,0.3,1.2,0.5,1.9,0.7s1.3,0.3,1.8,0.3c1.1,0,1.6-0.3,1.6-0.9c0-0.2-0.1-0.4-0.2-0.6s-0.4-0.3-0.7-0.5s-0.8-0.4-1.4-0.6
		c-0.8-0.4-1.5-0.7-1.9-1s-0.7-0.6-0.9-1s-0.3-0.9-0.3-1.4c0-1,0.4-1.7,1.1-2.3s1.8-0.8,3.2-0.8c1.3,0,2.6,0.3,3.8,0.9l-0.9,2.1
		c-0.5-0.2-1.1-0.4-1.5-0.6s-1-0.2-1.5-0.2c-0.9,0-1.3,0.2-1.3,0.7c0,0.3,0.1,0.5,0.4,0.7s0.9,0.5,1.9,0.9c0.9,0.3,1.5,0.7,1.9,1
		s0.7,0.6,0.9,1S155.2,84.8,155.2,85.3z"/>
	<path class="st1" d="M157.4,74.8c0-1,0.5-1.5,1.6-1.5s1.6,0.5,1.6,1.5c0,0.5-0.1,0.8-0.4,1.1c-0.3,0.3-0.7,0.4-1.2,0.4
		C157.9,76.3,157.4,75.8,157.4,74.8z M160.5,88.6h-3V77.6h3V88.6z"/>
	<path class="st1" d="M173.7,88.6h-3v-6.4c0-0.8-0.1-1.4-0.4-1.8s-0.7-0.6-1.3-0.6c-0.8,0-1.4,0.3-1.8,0.8s-0.6,1.5-0.6,2.8v5.1h-3
		V77.6h2.3l0.4,1.4h0.2c0.3-0.5,0.8-0.9,1.4-1.2s1.2-0.4,2-0.4c1.3,0,2.2,0.3,2.9,1s1,1.7,1,3V88.6z"/>
</g>
</svg>
